<svg width="219" height="390" viewBox="0 0 219 390" fill="none" xmlns="http://www.w3.org/2000/svg">
<path d="M0.440181 7.16912C0.440181 3.45283 3.45283 0.440181 7.16912 0.440181H211.831C215.547 0.440181 218.56 3.45283 218.56 7.16912V382.831C218.56 386.547 215.547 389.56 211.831 389.56H7.16912C3.45283 389.56 0.440181 386.547 0.440181 382.831V7.16912Z" fill="white" stroke="#003E5C" stroke-width="0.880361"/>
<rect x="108.254" y="293.934" width="110.404" height="32.261" fill="#FFD600"/>
<line y1="32.5598" x2="219" y2="32.5598" stroke="#003E5C" stroke-width="0.880361"/>
<line x1="107.846" y1="1.93284e-08" x2="107.846" y2="390" stroke="#003E5C" stroke-width="0.884363"/>
<line x1="218.44" y1="14" x2="218.44" y2="376" stroke="#003E5C" stroke-width="0.880361"/>
<path d="M149.54 13.6116C149.035 13.6116 148.58 13.6995 148.175 13.8754C147.777 14.0436 147.441 14.2884 147.166 14.6095C146.89 14.9231 146.68 15.3016 146.535 15.7451C146.39 16.181 146.317 16.6666 146.317 17.2019C146.317 17.936 146.432 18.5784 146.661 19.1289C146.89 19.6719 147.235 20.0925 147.693 20.3907C148.16 20.6889 148.737 20.8381 149.425 20.8381C149.823 20.8381 150.19 20.8075 150.527 20.7463C150.863 20.6851 151.173 20.6086 151.456 20.5169V21.0904C151.18 21.1975 150.871 21.2816 150.527 21.3428C150.19 21.4039 149.796 21.4345 149.345 21.4345C148.527 21.4345 147.839 21.2586 147.28 20.9069C146.73 20.5551 146.313 20.0619 146.03 19.4272C145.755 18.7925 145.617 18.0507 145.617 17.2019C145.617 16.5978 145.705 16.0395 145.881 15.5272C146.057 15.0148 146.313 14.5713 146.65 14.1966C146.986 13.8219 147.395 13.5313 147.877 13.3248C148.366 13.1184 148.925 13.0151 149.552 13.0151C149.942 13.0151 150.316 13.0534 150.676 13.1298C151.043 13.2063 151.383 13.3172 151.697 13.4625L151.433 14.0475C151.142 13.9022 150.836 13.7951 150.515 13.7263C150.202 13.6498 149.877 13.6116 149.54 13.6116ZM153.704 15.401C153.704 15.5539 153.701 15.7031 153.693 15.8484C153.685 15.9936 153.678 16.1389 153.67 16.2842H153.716C153.823 16.0548 153.972 15.8522 154.163 15.6763C154.354 15.5004 154.584 15.3628 154.852 15.2634C155.127 15.1639 155.437 15.1142 155.781 15.1142C156.247 15.1142 156.641 15.1945 156.962 15.3551C157.283 15.5081 157.524 15.7489 157.685 16.0778C157.853 16.3989 157.937 16.8195 157.937 17.3395V21.3198H157.295V17.3739C157.295 16.7851 157.161 16.3531 156.893 16.0778C156.626 15.8025 156.232 15.6648 155.712 15.6648C155.268 15.6648 154.897 15.7528 154.599 15.9286C154.301 16.0969 154.075 16.3569 153.922 16.7086C153.777 17.0528 153.704 17.481 153.704 17.9934V21.3198H153.062V12.6022H153.704V15.401ZM164.69 15.2175V21.3198H164.151L164.059 20.276H164.025C163.918 20.4978 163.765 20.6966 163.566 20.8725C163.375 21.0484 163.145 21.186 162.878 21.2854C162.61 21.3848 162.3 21.4345 161.949 21.4345C161.475 21.4345 161.077 21.3542 160.756 21.1936C160.442 21.0254 160.205 20.7769 160.045 20.4481C159.884 20.1192 159.804 19.7101 159.804 19.2207V15.2175H160.458V19.1634C160.458 19.7445 160.588 20.1766 160.848 20.4595C161.115 20.7348 161.505 20.8725 162.018 20.8725C162.469 20.8725 162.843 20.7884 163.142 20.6201C163.44 20.4442 163.662 20.1842 163.807 19.8401C163.96 19.496 164.036 19.0678 164.036 18.5554V15.2175H164.69ZM168.426 20.8839C168.595 20.8839 168.755 20.8725 168.908 20.8495C169.061 20.8189 169.195 20.7845 169.31 20.7463V21.2739C169.195 21.3198 169.05 21.3581 168.874 21.3886C168.706 21.4192 168.526 21.4345 168.335 21.4345C167.998 21.4345 167.711 21.3734 167.474 21.251C167.237 21.121 167.054 20.9222 166.924 20.6545C166.801 20.3869 166.74 20.0428 166.74 19.6222V15.7451H165.846V15.3781L166.74 15.1716L166.981 13.7607H167.394V15.2175H169.275V15.7451H167.394V19.5992C167.394 20.0198 167.478 20.341 167.646 20.5628C167.815 20.7769 168.075 20.8839 168.426 20.8839ZM172.91 15.1028C173.437 15.1028 173.873 15.2251 174.217 15.4698C174.569 15.7069 174.833 16.0357 175.009 16.4563C175.192 16.8769 175.284 17.3625 175.284 17.9131V18.3489H170.925C170.925 19.1672 171.113 19.7904 171.487 20.2186C171.87 20.6469 172.409 20.861 173.105 20.861C173.487 20.861 173.82 20.8304 174.103 20.7692C174.386 20.7081 174.695 20.601 175.032 20.4481V21.0445C174.726 21.1822 174.424 21.2816 174.126 21.3428C173.827 21.4039 173.479 21.4345 173.082 21.4345C172.478 21.4345 171.961 21.3084 171.533 21.056C171.113 20.8036 170.791 20.4442 170.57 19.9778C170.356 19.5036 170.248 18.9531 170.248 18.326C170.248 17.6989 170.352 17.1445 170.558 16.6628C170.765 16.181 171.067 15.8025 171.464 15.5272C171.862 15.2442 172.344 15.1028 172.91 15.1028ZM172.91 15.6534C172.344 15.6534 171.889 15.8407 171.545 16.2154C171.201 16.5825 170.998 17.1139 170.937 17.8098H174.607C174.607 17.3816 174.546 17.0069 174.424 16.6857C174.301 16.3645 174.114 16.1122 173.862 15.9286C173.617 15.7451 173.3 15.6534 172.91 15.6534ZM180.764 19.7025C180.764 20.0695 180.672 20.3831 180.489 20.6431C180.305 20.9031 180.038 21.1019 179.686 21.2395C179.334 21.3695 178.906 21.4345 178.401 21.4345C177.981 21.4345 177.606 21.3963 177.277 21.3198C176.948 21.2434 176.669 21.1516 176.44 21.0445V20.4136C176.715 20.5513 177.025 20.666 177.369 20.7578C177.713 20.8419 178.061 20.8839 178.413 20.8839C179.025 20.8839 179.464 20.7845 179.732 20.5857C180 20.3792 180.133 20.1001 180.133 19.7484C180.133 19.5189 180.068 19.3316 179.938 19.1863C179.816 19.0334 179.629 18.8995 179.376 18.7848C179.132 18.6625 178.826 18.5401 178.459 18.4178C178.084 18.2878 177.751 18.1578 177.461 18.0278C177.17 17.8901 176.945 17.7181 176.784 17.5116C176.623 17.3051 176.543 17.0222 176.543 16.6628C176.543 16.1734 176.742 15.791 177.14 15.5157C177.537 15.2404 178.069 15.1028 178.734 15.1028C179.101 15.1028 179.441 15.1372 179.755 15.206C180.076 15.2748 180.367 15.3666 180.627 15.4813L180.397 16.0204C180.244 15.9516 180.072 15.8904 179.881 15.8369C179.69 15.7757 179.495 15.7298 179.296 15.6992C179.097 15.6686 178.898 15.6534 178.7 15.6534C178.218 15.6534 177.843 15.7375 177.575 15.9057C177.308 16.0739 177.174 16.3186 177.174 16.6398C177.174 16.8845 177.235 17.0795 177.357 17.2248C177.487 17.3625 177.675 17.481 177.92 17.5804C178.172 17.6798 178.474 17.7945 178.826 17.9245C179.185 18.0469 179.51 18.1769 179.801 18.3145C180.099 18.4522 180.332 18.6281 180.5 18.8422C180.676 19.0563 180.764 19.3431 180.764 19.7025Z" fill="#003E5C"/>
<line y1="65.5598" x2="219" y2="65.5598" stroke="#003E5C" stroke-width="0.880361"/>
<line y1="98.5598" x2="219" y2="98.5598" stroke="#003E5C" stroke-width="0.880361"/>
<line y1="130.56" x2="219" y2="130.56" stroke="#003E5C" stroke-width="0.880361"/>
<line y1="163.56" x2="219" y2="163.56" stroke="#003E5C" stroke-width="0.880361"/>
<line y1="195.56" x2="219" y2="195.56" stroke="#003E5C" stroke-width="0.880361"/>
<line y1="228.56" x2="219" y2="228.56" stroke="#003E5C" stroke-width="0.880361"/>
<line y1="260.56" x2="219" y2="260.56" stroke="#003E5C" stroke-width="0.880361"/>
<line y1="293.56" x2="219" y2="293.56" stroke="#003E5C" stroke-width="0.880361"/>
<line y1="326.56" x2="219" y2="326.56" stroke="#003E5C" stroke-width="0.880361"/>
<line y1="358.56" x2="219" y2="358.56" stroke="#003E5C" stroke-width="0.880361"/>
<path d="M45.7112 54.2573C45.6208 54.2573 45.5468 54.2286 45.4893 54.171C45.44 54.1135 45.4154 54.0437 45.4154 53.9615V47.5771L43.542 49.0192C43.468 49.0685 43.3941 49.089 43.3201 49.0808C43.2462 49.0644 43.1804 49.0192 43.1229 48.9452L42.6053 48.2797C42.556 48.2057 42.5354 48.1277 42.5436 48.0455C42.5601 47.9633 42.6053 47.8976 42.6792 47.8483L45.44 45.7161C45.4893 45.675 45.5386 45.6503 45.5879 45.6421C45.6372 45.6339 45.6906 45.6298 45.7481 45.6298H46.8327C46.9149 45.6298 46.9848 45.6585 47.0423 45.7161C47.0998 45.7736 47.1285 45.8434 47.1285 45.9256V53.9615C47.1285 54.0437 47.0998 54.1135 47.0423 54.171C46.9848 54.2286 46.9149 54.2573 46.8327 54.2573H45.7112ZM52.0449 54.3806C51.4615 54.3806 50.9644 54.2943 50.5536 54.1217C50.1427 53.9492 49.8058 53.7109 49.5429 53.4069C49.28 53.1029 49.0828 52.7537 48.9513 52.3593C48.8198 51.9566 48.7418 51.5294 48.7171 51.0775C48.7089 50.8556 48.7007 50.6132 48.6925 50.3503C48.6925 50.0791 48.6925 49.808 48.6925 49.5368C48.7007 49.2657 48.7089 49.0151 48.7171 48.785C48.7336 48.3331 48.8116 47.9099 48.9513 47.5155C49.091 47.1129 49.2923 46.7637 49.5552 46.4679C49.8264 46.1721 50.1674 45.9379 50.5782 45.7654C50.9891 45.5928 51.4779 45.5065 52.0449 45.5065C52.6201 45.5065 53.1131 45.5928 53.5239 45.7654C53.9347 45.9379 54.2716 46.1721 54.5346 46.4679C54.8057 46.7637 55.007 47.1129 55.1385 47.5155C55.2782 47.9099 55.3562 48.3331 55.3727 48.785C55.3891 49.0151 55.3973 49.2657 55.3973 49.5368C55.3973 49.808 55.3973 50.0791 55.3973 50.3503C55.3973 50.6132 55.3891 50.8556 55.3727 51.0775C55.3562 51.5294 55.2823 51.9566 55.1508 52.3593C55.0193 52.7537 54.8221 53.1029 54.5592 53.4069C54.2963 53.7109 53.9553 53.9492 53.5362 54.1217C53.1254 54.2943 52.6283 54.3806 52.0449 54.3806ZM52.0449 52.9632C52.579 52.9632 52.9693 52.7906 53.2158 52.4455C53.4705 52.0922 53.602 51.6157 53.6102 51.0158C53.6266 50.7775 53.6348 50.5393 53.6348 50.301C53.6348 50.0545 53.6348 49.808 53.6348 49.5615C53.6348 49.315 53.6266 49.0808 53.6102 48.8589C53.602 48.2756 53.4705 47.8072 53.2158 47.4539C52.9693 47.0924 52.579 46.9116 52.0449 46.9116C51.519 46.9116 51.1287 47.0924 50.874 47.4539C50.6275 47.8072 50.496 48.2756 50.4796 48.8589C50.4796 49.0808 50.4755 49.315 50.4673 49.5615C50.4673 49.808 50.4673 50.0545 50.4673 50.301C50.4755 50.5393 50.4796 50.7775 50.4796 51.0158C50.496 51.6157 50.6316 52.0922 50.8863 52.4455C51.1411 52.7906 51.5272 52.9632 52.0449 52.9632Z" fill="#003E5C"/>
<path d="M49.2301 87.146C49.1562 87.146 49.0946 87.1213 49.0453 87.072C48.996 87.0145 48.9713 86.9488 48.9713 86.8748C48.9713 86.8338 48.9754 86.8009 48.9836 86.7762C49.0001 86.7516 49.0124 86.7311 49.0206 86.7146L50.8324 84.2126C50.6681 84.2537 50.4955 84.2701 50.3147 84.2619C49.9039 84.2537 49.5177 84.1757 49.1562 84.0278C48.8029 83.8716 48.4906 83.6662 48.2195 83.4115C47.9566 83.1486 47.747 82.8487 47.5909 82.5118C47.443 82.1667 47.3691 81.7928 47.3691 81.3902C47.3691 81.0204 47.4389 80.6589 47.5786 80.3056C47.7183 79.9441 47.9237 79.6195 48.1948 79.3319C48.4742 79.0443 48.8193 78.8184 49.2301 78.654C49.6492 78.4815 50.1381 78.3952 50.6968 78.3952C51.2473 78.3952 51.7321 78.4733 52.1512 78.6294C52.5702 78.7855 52.9194 79.0032 53.1988 79.2826C53.4864 79.5538 53.7 79.866 53.8397 80.2193C53.9876 80.5726 54.0616 80.9465 54.0616 81.3409C54.0616 81.6942 54.004 82.0229 53.889 82.3269C53.774 82.6309 53.6302 82.9103 53.4576 83.165C53.2933 83.4115 53.129 83.6539 52.9646 83.8922L50.7954 86.8995C50.7626 86.9406 50.7133 86.994 50.6475 87.0597C50.59 87.1172 50.4996 87.146 50.3764 87.146H49.2301ZM50.7092 82.9555C51.005 82.9555 51.272 82.8939 51.5103 82.7706C51.7568 82.6391 51.9499 82.4584 52.0896 82.2283C52.2375 81.99 52.3114 81.7106 52.3114 81.3902C52.3114 81.0615 52.2375 80.7822 52.0896 80.5521C51.9499 80.3138 51.7568 80.133 51.5103 80.0098C51.2638 79.8783 50.9967 79.8126 50.7092 79.8126C50.4133 79.8126 50.1422 79.8783 49.8957 80.0098C49.6574 80.133 49.4643 80.3138 49.3164 80.5521C49.1767 80.7822 49.1069 81.0615 49.1069 81.3902C49.1069 81.7106 49.1767 81.99 49.3164 82.2283C49.4643 82.4584 49.6574 82.6391 49.8957 82.7706C50.1422 82.8939 50.4133 82.9555 50.7092 82.9555Z" fill="#003E5C"/>
<path d="M49.7389 120.158C49.1966 120.158 48.7118 120.093 48.2845 119.961C47.8573 119.83 47.4957 119.645 47.1999 119.407C46.9123 119.168 46.6905 118.889 46.5344 118.568C46.3865 118.248 46.3125 117.891 46.3125 117.496C46.3125 117.02 46.4276 116.609 46.6576 116.264C46.8959 115.91 47.204 115.639 47.582 115.45C47.278 115.261 47.0397 115.019 46.8672 114.723C46.7028 114.427 46.6207 114.082 46.6207 113.688C46.6207 113.211 46.7398 112.796 46.9781 112.443C47.2246 112.081 47.5779 111.798 48.038 111.592C48.5064 111.387 49.0733 111.284 49.7389 111.284C50.4044 111.284 50.9673 111.387 51.4274 111.592C51.8876 111.79 52.2368 112.069 52.4751 112.431C52.7133 112.784 52.8325 113.199 52.8325 113.675C52.8325 114.07 52.7503 114.415 52.586 114.711C52.4216 115.007 52.1916 115.253 51.8958 115.45C52.282 115.631 52.5901 115.902 52.8202 116.264C53.0502 116.617 53.1653 117.032 53.1653 117.509C53.1653 118.026 53.0297 118.486 52.7585 118.889C52.4956 119.283 52.1053 119.596 51.5877 119.826C51.0782 120.047 50.462 120.158 49.7389 120.158ZM49.7389 118.877C50.0593 118.877 50.3469 118.823 50.6016 118.716C50.8646 118.601 51.07 118.441 51.2179 118.236C51.374 118.03 51.4521 117.788 51.4521 117.509C51.4521 117.221 51.374 116.979 51.2179 116.781C51.07 116.576 50.8646 116.42 50.6016 116.313C50.3469 116.198 50.0593 116.14 49.7389 116.14C49.4184 116.14 49.1267 116.198 48.8638 116.313C48.6091 116.42 48.4037 116.576 48.2476 116.781C48.0997 116.979 48.0257 117.221 48.0257 117.509C48.0257 117.788 48.0997 118.03 48.2476 118.236C48.4037 118.441 48.6091 118.601 48.8638 118.716C49.1267 118.823 49.4184 118.877 49.7389 118.877ZM49.7389 114.92C50.01 114.912 50.2565 114.859 50.4784 114.76C50.7085 114.661 50.8892 114.53 51.0207 114.366C51.1604 114.193 51.2302 113.988 51.2302 113.749C51.2302 113.511 51.1645 113.306 51.033 113.133C50.9098 112.952 50.7331 112.813 50.503 112.714C50.2812 112.615 50.0265 112.566 49.7389 112.566C49.4513 112.566 49.1925 112.615 48.9624 112.714C48.7406 112.813 48.5639 112.952 48.4324 113.133C48.3092 113.306 48.2476 113.511 48.2476 113.749C48.2476 113.988 48.3092 114.193 48.4324 114.366C48.5639 114.538 48.7406 114.674 48.9624 114.772C49.1925 114.871 49.4513 114.92 49.7389 114.92Z" fill="#003E5C"/>
<path d="M48.1815 152.924C48.1076 152.924 48.0459 152.9 47.9966 152.85C47.9473 152.793 47.9227 152.727 47.9227 152.653C47.9227 152.62 47.9309 152.583 47.9473 152.542L50.9177 145.763H47.0476C46.9572 145.763 46.8833 145.735 46.8258 145.677C46.7765 145.62 46.7518 145.55 46.7518 145.468V144.605C46.7518 144.515 46.7765 144.441 46.8258 144.383C46.8833 144.326 46.9572 144.297 47.0476 144.297H52.4583C52.5487 144.297 52.6185 144.326 52.6678 144.383C52.7253 144.441 52.7541 144.515 52.7541 144.605V145.369C52.7541 145.484 52.7418 145.583 52.7171 145.665C52.7007 145.739 52.676 145.817 52.6432 145.899L49.6975 152.629C49.6728 152.686 49.6276 152.752 49.5619 152.826C49.5044 152.891 49.4181 152.924 49.3031 152.924H48.1815Z" fill="#003E5C"/>
<path d="M49.3688 185.936C48.6622 185.936 48.0541 185.805 47.5447 185.542C47.0353 185.271 46.6409 184.909 46.3615 184.457C46.0821 183.997 45.9424 183.484 45.9424 182.917C45.9424 182.662 45.9753 182.415 46.041 182.177C46.1068 181.939 46.1931 181.713 46.2999 181.499C46.4067 181.286 46.5094 181.097 46.608 180.932C46.7148 180.76 46.8093 180.624 46.8915 180.526L49.147 177.432C49.1798 177.391 49.2291 177.342 49.2949 177.284C49.3606 177.218 49.451 177.185 49.566 177.185H50.7122C50.7862 177.185 50.8478 177.214 50.8971 177.272C50.9464 177.321 50.9711 177.383 50.9711 177.457C50.9711 177.489 50.9628 177.522 50.9464 177.555C50.9382 177.58 50.9259 177.6 50.9094 177.617L49.1839 180.008C49.2579 179.983 49.3442 179.967 49.4428 179.959C49.5414 179.95 49.6317 179.946 49.7139 179.946C50.1247 179.954 50.515 180.037 50.8848 180.193C51.2545 180.341 51.5791 180.546 51.8585 180.809C52.1378 181.072 52.3556 181.38 52.5117 181.733C52.676 182.087 52.7582 182.473 52.7582 182.892C52.7582 183.434 52.6226 183.94 52.3515 184.408C52.0803 184.868 51.69 185.238 51.1806 185.517C50.6794 185.797 50.0754 185.936 49.3688 185.936ZM49.3565 184.519C49.6523 184.519 49.9234 184.457 50.1699 184.334C50.4247 184.211 50.6301 184.03 50.7862 183.792C50.9423 183.553 51.0204 183.258 51.0204 182.904C51.0204 182.559 50.9423 182.267 50.7862 182.029C50.6301 181.791 50.4247 181.61 50.1699 181.487C49.9234 181.364 49.6523 181.302 49.3565 181.302C49.0607 181.302 48.7854 181.364 48.5307 181.487C48.2842 181.61 48.0829 181.791 47.9268 182.029C47.7707 182.267 47.6926 182.559 47.6926 182.904C47.6926 183.258 47.7707 183.553 47.9268 183.792C48.0829 184.03 48.2842 184.211 48.5307 184.334C48.7854 184.457 49.0607 184.519 49.3565 184.519Z" fill="#003E5C"/>
<path d="M49.6904 218.838C48.9838 218.838 48.3881 218.723 47.9033 218.493C47.4185 218.254 47.0487 217.946 46.794 217.568C46.5475 217.19 46.4161 216.788 46.3996 216.36C46.3914 216.286 46.4119 216.229 46.4612 216.188C46.5188 216.139 46.5845 216.114 46.6584 216.114H47.8047C47.8951 216.114 47.969 216.134 48.0265 216.176C48.0923 216.208 48.1416 216.27 48.1744 216.36C48.2566 216.607 48.3716 216.808 48.5195 216.964C48.6756 217.12 48.8523 217.235 49.0495 217.309C49.2549 217.383 49.4686 217.42 49.6904 217.42C49.9862 217.42 50.2533 217.363 50.4915 217.248C50.738 217.125 50.9352 216.944 51.0831 216.705C51.231 216.467 51.305 216.176 51.305 215.83C51.305 215.526 51.2352 215.263 51.0955 215.042C50.9558 214.82 50.7627 214.647 50.5162 214.524C50.2779 214.392 50.0026 214.327 49.6904 214.327C49.4603 214.327 49.2714 214.356 49.1235 214.413C48.9756 214.471 48.8482 214.536 48.7414 214.61C48.6428 214.684 48.5524 214.75 48.4702 214.807C48.3963 214.865 48.31 214.894 48.2114 214.894H47.0775C47.0035 214.894 46.9378 214.869 46.8803 214.82C46.831 214.762 46.8063 214.697 46.8063 214.623L47.2377 210.407C47.2459 210.301 47.2829 210.218 47.3487 210.161C47.4144 210.103 47.4924 210.075 47.5828 210.075H52.217C52.2992 210.075 52.3691 210.103 52.4266 210.161C52.4841 210.218 52.5128 210.288 52.5128 210.37V211.196C52.5128 211.278 52.4841 211.348 52.4266 211.406C52.3691 211.463 52.2992 211.492 52.217 211.492H48.6551L48.4579 213.501C48.6058 213.402 48.803 213.308 49.0495 213.217C49.296 213.127 49.637 213.082 50.0725 213.082C50.4669 213.082 50.8408 213.148 51.1941 213.279C51.5556 213.402 51.8761 213.587 52.1554 213.834C52.4348 214.072 52.6525 214.364 52.8087 214.709C52.973 215.046 53.0552 215.432 53.0552 215.867C53.0552 216.467 52.9155 216.989 52.6361 217.433C52.3567 217.876 51.9664 218.221 51.4652 218.468C50.964 218.714 50.3724 218.838 49.6904 218.838Z" fill="#003E5C"/>
<path d="M50.5887 251.591C50.5066 251.591 50.4367 251.563 50.3792 251.505C50.3217 251.448 50.2929 251.378 50.2929 251.296V249.718H46.3859C46.2955 249.718 46.2216 249.689 46.164 249.632C46.1147 249.574 46.0901 249.504 46.0901 249.422V248.584C46.0901 248.535 46.0983 248.477 46.1147 248.411C46.1394 248.337 46.1764 248.272 46.2257 248.214L49.8616 243.173C49.9684 243.034 50.1204 242.964 50.3176 242.964H51.661C51.7432 242.964 51.813 242.993 51.8706 243.05C51.9281 243.108 51.9568 243.177 51.9568 243.26V248.264H53.0538C53.1524 248.264 53.2263 248.292 53.2756 248.35C53.3331 248.399 53.3619 248.469 53.3619 248.559V249.422C53.3619 249.504 53.3331 249.574 53.2756 249.632C53.2181 249.689 53.1482 249.718 53.0661 249.718H51.9568V251.296C51.9568 251.378 51.9281 251.448 51.8706 251.505C51.813 251.563 51.7432 251.591 51.661 251.591H50.5887ZM47.8033 248.313H50.3299V244.751L47.8033 248.313Z" fill="#003E5C"/>
<path d="M50.132 284.604C49.5569 284.604 49.0598 284.534 48.6407 284.394C48.2217 284.255 47.8725 284.074 47.5931 283.852C47.3219 283.622 47.1165 283.375 46.9768 283.112C46.8371 282.841 46.7632 282.574 46.755 282.311C46.755 282.237 46.7796 282.18 46.8289 282.139C46.8864 282.089 46.9522 282.065 47.0261 282.065H48.1354C48.2176 282.065 48.2874 282.081 48.3449 282.114C48.4024 282.147 48.4517 282.213 48.4928 282.311C48.5668 282.533 48.6859 282.71 48.8502 282.841C49.0228 282.973 49.22 283.067 49.4418 283.125C49.6637 283.174 49.8979 283.199 50.1444 283.199C50.6374 283.199 51.0277 283.084 51.3153 282.854C51.6111 282.615 51.759 282.278 51.759 281.843C51.759 281.407 51.6234 281.095 51.3522 280.906C51.0811 280.709 50.7031 280.61 50.2183 280.61H48.9488C48.8585 280.61 48.7845 280.586 48.727 280.536C48.6695 280.479 48.6407 280.405 48.6407 280.315V279.797C48.6407 279.715 48.6571 279.645 48.69 279.587C48.7311 279.522 48.7722 279.468 48.8133 279.427L51.0195 277.27H47.4945C47.4041 277.27 47.3302 277.242 47.2726 277.184C47.2233 277.127 47.1987 277.057 47.1987 276.975V276.161C47.1987 276.071 47.2233 275.997 47.2726 275.939C47.3302 275.882 47.4041 275.853 47.4945 275.853H52.7819C52.8723 275.853 52.9463 275.882 53.0038 275.939C53.0613 275.997 53.0901 276.071 53.0901 276.161V276.901C53.0901 276.975 53.0736 277.04 53.0408 277.098C53.0079 277.155 52.9709 277.205 52.9298 277.246L50.7976 279.44L50.9455 279.452C51.4467 279.493 51.8904 279.608 52.2766 279.797C52.671 279.978 52.975 280.245 53.1887 280.598C53.4105 280.951 53.5214 281.395 53.5214 281.929C53.5214 282.488 53.3735 282.969 53.0777 283.371C52.7902 283.766 52.3916 284.07 51.8822 284.283C51.3728 284.497 50.7894 284.604 50.132 284.604Z" fill="#003E5C"/>
<path d="M46.3357 317.37C46.2535 317.37 46.1837 317.341 46.1262 317.283C46.0686 317.226 46.0399 317.156 46.0399 317.074V316.445C46.0399 316.371 46.0563 316.285 46.0892 316.186C46.1303 316.08 46.2165 315.973 46.348 315.866L48.2954 313.931C48.8377 313.504 49.2732 313.142 49.6018 312.846C49.9387 312.542 50.1811 312.267 50.329 312.021C50.4851 311.766 50.5632 311.515 50.5632 311.269C50.5632 310.899 50.4605 310.599 50.2551 310.369C50.0579 310.139 49.7415 310.024 49.306 310.024C49.0184 310.024 48.7761 310.086 48.5788 310.209C48.3816 310.324 48.2255 310.48 48.1105 310.677C48.0037 310.874 47.9297 311.092 47.8886 311.33C47.8722 311.437 47.827 311.511 47.7531 311.552C47.6791 311.593 47.6052 311.614 47.5312 311.614H46.4343C46.3603 311.614 46.2987 311.589 46.2494 311.54C46.2001 311.491 46.1755 311.433 46.1755 311.367C46.1837 311.014 46.2576 310.673 46.3973 310.344C46.537 310.007 46.7383 309.712 47.0012 309.457C47.2724 309.194 47.6011 308.984 47.9872 308.828C48.3734 308.672 48.8089 308.594 49.2937 308.594C49.9757 308.594 50.5385 308.709 50.9822 308.939C51.4342 309.169 51.771 309.482 51.9929 309.876C52.223 310.27 52.338 310.714 52.338 311.207C52.338 311.593 52.264 311.951 52.1161 312.279C51.9682 312.6 51.7546 312.912 51.4752 313.216C51.1959 313.512 50.859 313.816 50.4646 314.128L48.7144 315.903H52.2271C52.3175 315.903 52.3873 315.932 52.4366 315.989C52.4941 316.039 52.5229 316.108 52.5229 316.199V317.074C52.5229 317.156 52.4941 317.226 52.4366 317.283C52.3873 317.341 52.3175 317.37 52.2271 317.37H46.3357Z" fill="#003E5C"/>
<path d="M50.3019 350.258C50.2115 350.258 50.1376 350.23 50.08 350.172C50.0307 350.115 50.0061 350.045 50.0061 349.962V343.578L48.1327 345.02C48.0587 345.069 47.9848 345.09 47.9108 345.082C47.8369 345.065 47.7712 345.02 47.7136 344.946L47.196 344.281C47.1467 344.207 47.1261 344.129 47.1344 344.046C47.1508 343.964 47.196 343.899 47.2699 343.849L50.0307 341.717C50.08 341.676 50.1293 341.651 50.1786 341.643C50.2279 341.635 50.2814 341.631 50.3389 341.631H51.4235C51.5056 341.631 51.5755 341.66 51.633 341.717C51.6905 341.775 51.7193 341.844 51.7193 341.927V349.962C51.7193 350.045 51.6905 350.115 51.633 350.172C51.5755 350.23 51.5056 350.258 51.4235 350.258H50.3019Z" fill="#003E5C"/>
<path d="M49.2927 383.271C48.7093 383.271 48.2122 383.184 47.8013 383.012C47.3905 382.839 47.0536 382.601 46.7907 382.297C46.5277 381.993 46.3305 381.644 46.1991 381.249C46.0676 380.847 45.9895 380.42 45.9649 379.968C45.9567 379.746 45.9485 379.503 45.9402 379.24C45.9402 378.969 45.9402 378.698 45.9402 378.427C45.9485 378.156 45.9567 377.905 45.9649 377.675C45.9813 377.223 46.0594 376.8 46.1991 376.406C46.3387 376.003 46.5401 375.654 46.803 375.358C47.0741 375.062 47.4151 374.828 47.826 374.655C48.2368 374.483 48.7257 374.397 49.2927 374.397C49.8678 374.397 50.3608 374.483 50.7717 374.655C51.1825 374.828 51.5194 375.062 51.7823 375.358C52.0535 375.654 52.2548 376.003 52.3862 376.406C52.5259 376.8 52.604 377.223 52.6204 377.675C52.6369 377.905 52.6451 378.156 52.6451 378.427C52.6451 378.698 52.6451 378.969 52.6451 379.24C52.6451 379.503 52.6369 379.746 52.6204 379.968C52.604 380.42 52.53 380.847 52.3986 381.249C52.2671 381.644 52.0699 381.993 51.807 382.297C51.544 382.601 51.203 382.839 50.784 383.012C50.3732 383.184 49.876 383.271 49.2927 383.271ZM49.2927 381.853C49.8267 381.853 50.217 381.681 50.4635 381.336C50.7183 380.982 50.8497 380.506 50.8579 379.906C50.8744 379.668 50.8826 379.429 50.8826 379.191C50.8826 378.945 50.8826 378.698 50.8826 378.452C50.8826 378.205 50.8744 377.971 50.8579 377.749C50.8497 377.166 50.7183 376.697 50.4635 376.344C50.217 375.982 49.8267 375.802 49.2927 375.802C48.7668 375.802 48.3765 375.982 48.1218 376.344C47.8753 376.697 47.7438 377.166 47.7274 377.749C47.7274 377.971 47.7233 378.205 47.715 378.452C47.715 378.698 47.715 378.945 47.715 379.191C47.7233 379.429 47.7274 379.668 47.7274 379.906C47.7438 380.506 47.8794 380.982 48.1341 381.336C48.3888 381.681 48.775 381.853 49.2927 381.853Z" fill="#003E5C"/>
<path d="M155.547 57.2448L148.194 53.9012V53.3624L155.547 49.797V50.621L149.208 53.6001L155.547 56.4208V57.2448ZM168.526 59.2573H161.379V58.4967L164.628 55.1214C165.177 54.572 165.631 54.0755 165.99 53.6318C166.36 53.1775 166.64 52.7286 166.83 52.2849C167.02 51.8306 167.116 51.3341 167.116 50.7953C167.116 50.0875 166.91 49.5434 166.498 49.1631C166.086 48.7722 165.526 48.5768 164.818 48.5768C164.321 48.5768 163.846 48.6666 163.392 48.8462C162.948 49.0258 162.515 49.2846 162.092 49.6227L161.601 48.9888C161.918 48.7352 162.251 48.5187 162.599 48.3391C162.948 48.1595 163.307 48.0222 163.677 47.9271C164.057 47.832 164.437 47.7845 164.818 47.7845C165.473 47.7845 166.038 47.9112 166.513 48.1648C166.999 48.4078 167.374 48.7511 167.638 49.1948C167.903 49.6279 168.035 50.1456 168.035 50.7478C168.035 51.2126 167.971 51.6457 167.844 52.0472C167.728 52.438 167.554 52.8184 167.322 53.1881C167.089 53.5473 166.804 53.9171 166.466 54.2974C166.138 54.6671 165.769 55.058 165.357 55.47L162.536 58.3858V58.4333H168.526V59.2573Z" fill="#003E5C"/>
<path d="M148.194 88.1137L154.533 85.293L148.194 82.3139V81.4898L155.547 85.0553V85.5941L148.194 88.9377V88.1137ZM169.334 88.1295H167.448V90.9502H166.577V88.1295H160.888V87.4006L166.513 79.5724H167.448V87.3055H169.334V88.1295ZM166.577 83.1062C166.577 82.7998 166.577 82.5304 166.577 82.298C166.577 82.0656 166.577 81.8543 166.577 81.6641C166.587 81.474 166.593 81.2891 166.593 81.1095C166.603 80.9299 166.614 80.7503 166.624 80.5707H166.577C166.439 80.8137 166.307 81.0408 166.181 81.2521C166.054 81.4634 165.901 81.6906 165.721 81.9335L161.839 87.3055H166.577V83.1062Z" fill="#003E5C"/>
<path d="M148.194 121.568L154.533 118.747L148.194 115.768V114.944L155.547 118.509V119.048L148.194 122.392V121.568ZM161.506 119.587C161.506 118.774 161.564 118.023 161.68 117.337C161.807 116.65 161.997 116.037 162.251 115.499C162.504 114.949 162.826 114.484 163.217 114.104C163.608 113.713 164.073 113.417 164.612 113.217C165.151 113.016 165.763 112.916 166.45 112.916C166.725 112.916 166.989 112.931 167.242 112.963C167.506 112.995 167.734 113.037 167.924 113.09V113.898C167.734 113.824 167.512 113.771 167.258 113.74C167.015 113.697 166.751 113.676 166.466 113.676C165.79 113.676 165.198 113.798 164.691 114.041C164.194 114.273 163.777 114.616 163.439 115.071C163.112 115.514 162.858 116.064 162.679 116.719C162.509 117.374 162.414 118.129 162.393 118.985H162.457C162.605 118.71 162.811 118.451 163.075 118.208C163.339 117.965 163.666 117.77 164.057 117.622C164.459 117.464 164.923 117.384 165.452 117.384C166.128 117.384 166.709 117.522 167.195 117.796C167.691 118.071 168.072 118.467 168.336 118.985C168.61 119.492 168.748 120.099 168.748 120.807C168.748 121.557 168.605 122.217 168.32 122.788C168.045 123.348 167.644 123.786 167.116 124.103C166.598 124.41 165.98 124.563 165.261 124.563C164.649 124.563 164.11 124.441 163.645 124.198C163.18 123.955 162.789 123.612 162.473 123.168C162.156 122.725 161.913 122.196 161.744 121.584C161.585 120.971 161.506 120.305 161.506 119.587ZM165.246 123.786C166.059 123.786 166.693 123.533 167.147 123.026C167.612 122.508 167.844 121.768 167.844 120.807C167.844 119.973 167.633 119.318 167.211 118.842C166.799 118.367 166.165 118.129 165.309 118.129C164.728 118.129 164.221 118.245 163.788 118.478C163.365 118.71 163.038 119.001 162.805 119.349C162.573 119.698 162.457 120.047 162.457 120.395C162.457 120.733 162.504 121.098 162.599 121.489C162.694 121.869 162.848 122.239 163.059 122.598C163.281 122.946 163.566 123.232 163.915 123.454C164.274 123.675 164.717 123.786 165.246 123.786Z" fill="#003E5C"/>
<path d="M148.194 153.26L154.533 150.439L148.194 147.46V146.636L155.547 150.202V150.741L148.194 154.084V153.26ZM165.024 144.624C165.668 144.624 166.233 144.729 166.719 144.941C167.205 145.141 167.586 145.437 167.86 145.828C168.135 146.219 168.272 146.7 168.272 147.27C168.272 147.724 168.167 148.126 167.955 148.475C167.755 148.813 167.475 149.114 167.116 149.378C166.756 149.631 166.344 149.864 165.88 150.075C166.429 150.286 166.91 150.535 167.322 150.82C167.734 151.105 168.056 151.443 168.288 151.834C168.521 152.214 168.637 152.669 168.637 153.197C168.637 153.841 168.478 154.391 168.161 154.845C167.855 155.299 167.427 155.648 166.878 155.891C166.339 156.134 165.716 156.255 165.008 156.255C164.279 156.255 163.645 156.134 163.106 155.891C162.568 155.637 162.15 155.294 161.854 154.861C161.569 154.417 161.427 153.889 161.427 153.276C161.427 152.727 161.538 152.251 161.759 151.85C161.992 151.448 162.309 151.11 162.71 150.836C163.122 150.55 163.576 150.313 164.073 150.123C163.65 149.922 163.265 149.7 162.916 149.457C162.578 149.203 162.303 148.902 162.092 148.554C161.891 148.195 161.791 147.767 161.791 147.27C161.791 146.721 161.928 146.251 162.203 145.86C162.488 145.469 162.874 145.168 163.36 144.957C163.846 144.735 164.401 144.624 165.024 144.624ZM162.314 153.276C162.314 153.942 162.546 154.48 163.011 154.892C163.487 155.304 164.147 155.51 164.992 155.51C165.563 155.51 166.049 155.421 166.45 155.241C166.862 155.051 167.179 154.787 167.401 154.449C167.633 154.1 167.749 153.688 167.749 153.213C167.749 152.79 167.649 152.426 167.448 152.119C167.258 151.802 166.973 151.522 166.593 151.279C166.223 151.036 165.774 150.82 165.246 150.63L164.897 150.503C164.379 150.693 163.925 150.915 163.534 151.168C163.154 151.411 162.853 151.702 162.631 152.04C162.42 152.378 162.314 152.79 162.314 153.276ZM165.008 145.384C164.332 145.384 163.772 145.548 163.328 145.876C162.895 146.203 162.679 146.679 162.679 147.302C162.679 147.724 162.779 148.084 162.98 148.379C163.191 148.675 163.476 148.929 163.835 149.14C164.194 149.341 164.607 149.531 165.071 149.711C165.557 149.51 165.969 149.304 166.307 149.093C166.645 148.871 166.904 148.617 167.084 148.332C167.274 148.036 167.369 147.687 167.369 147.286C167.369 146.663 167.158 146.193 166.735 145.876C166.323 145.548 165.747 145.384 165.008 145.384Z" fill="#003E5C"/>
<path d="M143.667 185.834L150.006 183.013L143.667 180.034V179.21L151.02 182.776V183.314L143.667 186.658V185.834ZM161.337 188.67H160.465V180.256C160.465 179.95 160.465 179.685 160.465 179.464C160.465 179.242 160.47 179.036 160.481 178.846C160.492 178.655 160.497 178.476 160.497 178.307C160.349 178.444 160.212 178.571 160.085 178.687C159.958 178.793 159.789 178.925 159.578 179.083L157.993 180.303L157.518 179.67L160.592 177.356H161.337V188.67ZM173.21 182.982C173.21 183.932 173.136 184.772 172.988 185.501C172.851 186.219 172.635 186.827 172.339 187.323C172.043 187.82 171.663 188.195 171.198 188.449C170.743 188.702 170.199 188.829 169.566 188.829C168.773 188.829 168.108 188.607 167.569 188.163C167.03 187.72 166.623 187.065 166.349 186.198C166.074 185.332 165.937 184.26 165.937 182.982C165.937 181.819 166.053 180.805 166.285 179.939C166.528 179.073 166.914 178.397 167.442 177.911C167.981 177.425 168.694 177.182 169.581 177.182C170.448 177.182 171.145 177.419 171.673 177.895C172.212 178.37 172.603 179.046 172.846 179.923C173.089 180.789 173.21 181.809 173.21 182.982ZM166.84 182.982C166.84 184.122 166.935 185.068 167.125 185.818C167.315 186.558 167.611 187.112 168.013 187.482C168.414 187.852 168.932 188.037 169.566 188.037C170.221 188.037 170.743 187.857 171.134 187.498C171.536 187.128 171.826 186.568 172.006 185.818C172.196 185.068 172.291 184.122 172.291 182.982C172.291 181.925 172.207 181.027 172.038 180.288C171.879 179.538 171.599 178.967 171.198 178.576C170.807 178.175 170.268 177.974 169.581 177.974C168.895 177.974 168.351 178.175 167.949 178.576C167.548 178.978 167.263 179.553 167.094 180.303C166.924 181.043 166.84 181.936 166.84 182.982Z" fill="#003E5C"/>
<path d="M143.667 218.407L150.006 215.586L143.667 212.607V211.783L151.02 215.349V215.888L143.667 219.231V218.407ZM161.337 221.244H160.465V212.829C160.465 212.523 160.465 212.259 160.465 212.037C160.465 211.815 160.47 211.609 160.481 211.419C160.492 211.229 160.497 211.049 160.497 210.88C160.349 211.017 160.212 211.144 160.085 211.26C159.958 211.366 159.789 211.498 159.578 211.657L157.993 212.877L157.518 212.243L160.592 209.929H161.337V221.244ZM173.052 221.244H165.905V220.483L169.154 217.108C169.703 216.558 170.157 216.062 170.516 215.618C170.886 215.164 171.166 214.715 171.356 214.271C171.546 213.817 171.641 213.32 171.641 212.782C171.641 212.074 171.435 211.53 171.023 211.149C170.611 210.759 170.052 210.563 169.344 210.563C168.847 210.563 168.372 210.653 167.918 210.833C167.474 211.012 167.041 211.271 166.618 211.609L166.127 210.975C166.444 210.722 166.777 210.505 167.125 210.325C167.474 210.146 167.833 210.008 168.203 209.913C168.583 209.818 168.963 209.771 169.344 209.771C169.999 209.771 170.564 209.898 171.039 210.151C171.525 210.394 171.9 210.737 172.164 211.181C172.429 211.614 172.561 212.132 172.561 212.734C172.561 213.199 172.497 213.632 172.37 214.033C172.254 214.424 172.08 214.805 171.847 215.174C171.615 215.534 171.33 215.903 170.992 216.284C170.664 216.653 170.295 217.044 169.883 217.456L167.062 220.372V220.42H173.052V221.244Z" fill="#003E5C"/>
<path d="M143.667 250.981L150.006 248.16L143.667 245.181V244.357L151.02 247.922V248.461L143.667 251.805V250.981ZM161.337 253.817H160.465V245.403C160.465 245.097 160.465 244.832 160.465 244.611C160.465 244.389 160.47 244.183 160.481 243.993C160.492 243.802 160.497 243.623 160.497 243.454C160.349 243.591 160.212 243.718 160.085 243.834C159.958 243.94 159.789 244.072 159.578 244.23L157.993 245.45L157.518 244.817L160.592 242.503H161.337V253.817ZM173.86 250.997H171.974V253.817H171.103V250.997H165.414V250.268L171.039 242.44H171.974V250.173H173.86V250.997ZM171.103 245.973C171.103 245.667 171.103 245.398 171.103 245.165C171.103 244.933 171.103 244.721 171.103 244.531C171.113 244.341 171.119 244.156 171.119 243.977C171.129 243.797 171.14 243.618 171.15 243.438H171.103C170.965 243.681 170.833 243.908 170.707 244.119C170.58 244.331 170.427 244.558 170.247 244.801L166.365 250.173H171.103V245.973Z" fill="#003E5C"/>
<path d="M143.667 282.673L150.006 279.853L143.667 276.873V276.049L151.02 279.615V280.154L143.667 283.497V282.673ZM161.337 285.51H160.465V277.095C160.465 276.789 160.465 276.525 160.465 276.303C160.465 276.081 160.47 275.875 160.481 275.685C160.492 275.495 160.497 275.315 160.497 275.146C160.349 275.283 160.212 275.41 160.085 275.526C159.958 275.632 159.789 275.764 159.578 275.923L157.993 277.143L157.518 276.509L160.592 274.195H161.337V285.51ZM166.032 280.692C166.032 279.879 166.09 279.129 166.206 278.442C166.333 277.756 166.523 277.143 166.777 276.604C167.03 276.055 167.352 275.59 167.743 275.21C168.134 274.819 168.599 274.523 169.138 274.322C169.676 274.121 170.289 274.021 170.976 274.021C171.251 274.021 171.515 274.037 171.768 274.069C172.032 274.1 172.259 274.143 172.45 274.195V275.004C172.259 274.93 172.038 274.877 171.784 274.845C171.541 274.803 171.277 274.782 170.992 274.782C170.316 274.782 169.724 274.903 169.217 275.146C168.72 275.379 168.303 275.722 167.965 276.176C167.638 276.62 167.384 277.169 167.204 277.824C167.035 278.479 166.94 279.235 166.919 280.09H166.983C167.13 279.816 167.336 279.557 167.601 279.314C167.865 279.071 168.192 278.875 168.583 278.727C168.985 278.569 169.449 278.49 169.978 278.49C170.654 278.49 171.235 278.627 171.721 278.902C172.217 279.176 172.598 279.573 172.862 280.09C173.136 280.597 173.274 281.205 173.274 281.913C173.274 282.663 173.131 283.323 172.846 283.893C172.571 284.453 172.17 284.892 171.641 285.209C171.124 285.515 170.506 285.668 169.787 285.668C169.175 285.668 168.636 285.547 168.171 285.304C167.706 285.061 167.315 284.717 166.998 284.274C166.682 283.83 166.439 283.302 166.27 282.689C166.111 282.076 166.032 281.411 166.032 280.692ZM169.772 284.892C170.585 284.892 171.219 284.638 171.673 284.131C172.138 283.613 172.37 282.874 172.37 281.913C172.37 281.078 172.159 280.423 171.737 279.948C171.325 279.472 170.691 279.235 169.835 279.235C169.254 279.235 168.747 279.351 168.314 279.583C167.891 279.816 167.564 280.106 167.331 280.455C167.099 280.803 166.983 281.152 166.983 281.501C166.983 281.839 167.03 282.203 167.125 282.594C167.22 282.974 167.373 283.344 167.585 283.703C167.807 284.052 168.092 284.337 168.44 284.559C168.8 284.781 169.243 284.892 169.772 284.892Z" fill="#003E5C"/>
<path d="M143.667 315.247L150.006 312.426L143.667 309.447V308.623L151.02 312.189V312.727L143.667 316.071V315.247ZM161.337 318.083H160.465V309.669C160.465 309.363 160.465 309.099 160.465 308.877C160.465 308.655 160.47 308.449 160.481 308.259C160.492 308.069 160.497 307.889 160.497 307.72C160.349 307.857 160.212 307.984 160.085 308.1C159.958 308.206 159.789 308.338 159.578 308.496L157.993 309.717L157.518 309.083L160.592 306.769H161.337V318.083ZM169.55 306.611C170.194 306.611 170.759 306.716 171.245 306.928C171.731 307.128 172.112 307.424 172.386 307.815C172.661 308.206 172.798 308.687 172.798 309.257C172.798 309.711 172.693 310.113 172.481 310.461C172.281 310.799 172.001 311.1 171.641 311.365C171.282 311.618 170.87 311.851 170.405 312.062C170.955 312.273 171.435 312.521 171.847 312.807C172.259 313.092 172.582 313.43 172.814 313.821C173.047 314.201 173.163 314.655 173.163 315.184C173.163 315.828 173.004 316.377 172.687 316.832C172.381 317.286 171.953 317.635 171.404 317.877C170.865 318.12 170.242 318.242 169.534 318.242C168.805 318.242 168.171 318.12 167.632 317.877C167.094 317.624 166.676 317.281 166.38 316.847C166.095 316.404 165.953 315.876 165.953 315.263C165.953 314.713 166.063 314.238 166.285 313.837C166.518 313.435 166.835 313.097 167.236 312.822C167.648 312.537 168.102 312.3 168.599 312.109C168.176 311.909 167.791 311.687 167.442 311.444C167.104 311.19 166.829 310.889 166.618 310.541C166.417 310.181 166.317 309.754 166.317 309.257C166.317 308.708 166.454 308.238 166.729 307.847C167.014 307.456 167.4 307.155 167.886 306.943C168.372 306.722 168.926 306.611 169.55 306.611ZM166.84 315.263C166.84 315.928 167.072 316.467 167.537 316.879C168.013 317.291 168.673 317.497 169.518 317.497C170.089 317.497 170.574 317.407 170.976 317.228C171.388 317.038 171.705 316.774 171.927 316.435C172.159 316.087 172.275 315.675 172.275 315.199C172.275 314.777 172.175 314.412 171.974 314.106C171.784 313.789 171.499 313.509 171.119 313.266C170.749 313.023 170.3 312.807 169.772 312.616L169.423 312.49C168.905 312.68 168.451 312.902 168.06 313.155C167.68 313.398 167.379 313.689 167.157 314.027C166.946 314.365 166.84 314.777 166.84 315.263ZM169.534 307.371C168.858 307.371 168.298 307.535 167.854 307.863C167.421 308.19 167.204 308.665 167.204 309.289C167.204 309.711 167.305 310.07 167.506 310.366C167.717 310.662 168.002 310.916 168.361 311.127C168.72 311.328 169.132 311.518 169.597 311.697C170.083 311.497 170.495 311.291 170.833 311.079C171.171 310.857 171.43 310.604 171.61 310.319C171.8 310.023 171.895 309.674 171.895 309.273C171.895 308.65 171.684 308.179 171.261 307.863C170.849 307.535 170.273 307.371 169.534 307.371Z" fill="#003E5C"/>
<path d="M143.667 347.82L150.006 345L143.667 342.02V341.196L151.02 344.762V345.301L143.667 348.644V347.82ZM163.999 350.657H156.852V349.896L160.101 346.521C160.65 345.971 161.104 345.475 161.463 345.031C161.833 344.577 162.113 344.128 162.303 343.684C162.493 343.23 162.589 342.733 162.589 342.195C162.589 341.487 162.383 340.943 161.971 340.563C161.559 340.172 160.999 339.976 160.291 339.976C159.794 339.976 159.319 340.066 158.865 340.246C158.421 340.425 157.988 340.684 157.565 341.022L157.074 340.388C157.391 340.135 157.724 339.918 158.072 339.738C158.421 339.559 158.78 339.422 159.15 339.326C159.53 339.231 159.91 339.184 160.291 339.184C160.946 339.184 161.511 339.311 161.986 339.564C162.472 339.807 162.847 340.151 163.111 340.594C163.376 341.027 163.508 341.545 163.508 342.147C163.508 342.612 163.444 343.045 163.317 343.447C163.201 343.837 163.027 344.218 162.795 344.588C162.562 344.947 162.277 345.316 161.939 345.697C161.611 346.067 161.242 346.457 160.83 346.869L158.009 349.785V349.833H163.999V350.657ZM173.21 344.968C173.21 345.919 173.136 346.758 172.988 347.487C172.851 348.206 172.635 348.813 172.339 349.31C172.043 349.806 171.663 350.181 171.198 350.435C170.743 350.688 170.199 350.815 169.566 350.815C168.773 350.815 168.108 350.593 167.569 350.15C167.03 349.706 166.623 349.051 166.349 348.185C166.074 347.318 165.937 346.246 165.937 344.968C165.937 343.806 166.053 342.792 166.285 341.925C166.528 341.059 166.914 340.383 167.442 339.897C167.981 339.411 168.694 339.168 169.581 339.168C170.448 339.168 171.145 339.406 171.673 339.881C172.212 340.357 172.603 341.033 172.846 341.909C173.089 342.776 173.21 343.795 173.21 344.968ZM166.84 344.968C166.84 346.109 166.935 347.054 167.125 347.804C167.315 348.544 167.611 349.098 168.013 349.468C168.414 349.838 168.932 350.023 169.566 350.023C170.221 350.023 170.743 349.843 171.134 349.484C171.536 349.114 171.826 348.554 172.006 347.804C172.196 347.054 172.291 346.109 172.291 344.968C172.291 343.911 172.207 343.013 172.038 342.274C171.879 341.524 171.599 340.953 171.198 340.563C170.807 340.161 170.268 339.96 169.581 339.96C168.895 339.96 168.351 340.161 167.949 340.563C167.548 340.964 167.263 341.54 167.094 342.29C166.924 343.029 166.84 343.922 166.84 344.968Z" fill="#003E5C"/>
<path d="M143.667 379.513L150.006 376.692L143.667 373.713V372.889L151.02 376.455V376.993L143.667 380.337V379.513ZM163.999 382.35H156.852V381.589L160.101 378.214C160.65 377.664 161.104 377.168 161.463 376.724C161.833 376.27 162.113 375.821 162.303 375.377C162.493 374.923 162.589 374.426 162.589 373.888C162.589 373.18 162.383 372.636 161.971 372.255C161.559 371.865 160.999 371.669 160.291 371.669C159.794 371.669 159.319 371.759 158.865 371.938C158.421 372.118 157.988 372.377 157.565 372.715L157.074 372.081C157.391 371.828 157.724 371.611 158.072 371.431C158.421 371.252 158.78 371.114 159.15 371.019C159.53 370.924 159.91 370.877 160.291 370.877C160.946 370.877 161.511 371.004 161.986 371.257C162.472 371.5 162.847 371.843 163.111 372.287C163.376 372.72 163.508 373.238 163.508 373.84C163.508 374.305 163.444 374.738 163.317 375.139C163.201 375.53 163.027 375.911 162.795 376.28C162.562 376.64 162.277 377.009 161.939 377.39C161.611 377.759 161.242 378.15 160.83 378.562L158.009 381.478V381.526H163.999V382.35ZM173.052 382.35H165.905V381.589L169.154 378.214C169.703 377.664 170.157 377.168 170.516 376.724C170.886 376.27 171.166 375.821 171.356 375.377C171.546 374.923 171.641 374.426 171.641 373.888C171.641 373.18 171.435 372.636 171.023 372.255C170.611 371.865 170.052 371.669 169.344 371.669C168.847 371.669 168.372 371.759 167.918 371.938C167.474 372.118 167.041 372.377 166.618 372.715L166.127 372.081C166.444 371.828 166.777 371.611 167.125 371.431C167.474 371.252 167.833 371.114 168.203 371.019C168.583 370.924 168.963 370.877 169.344 370.877C169.999 370.877 170.564 371.004 171.039 371.257C171.525 371.5 171.9 371.843 172.164 372.287C172.429 372.72 172.561 373.238 172.561 373.84C172.561 374.305 172.497 374.738 172.37 375.139C172.254 375.53 172.08 375.911 171.847 376.28C171.615 376.64 171.33 377.009 170.992 377.39C170.664 377.759 170.295 378.15 169.883 378.562L167.062 381.478V381.526H173.052V382.35Z" fill="#003E5C"/>
<path d="M32.4398 21.6836C32.3576 21.6836 32.2878 21.6548 32.2303 21.5973C32.1727 21.5398 32.144 21.47 32.144 21.3878V13.3642C32.144 13.2738 32.1727 13.1998 32.2303 13.1423C32.2878 13.0848 32.3576 13.0561 32.4398 13.0561H35.7429C36.3838 13.0561 36.9425 13.1588 37.4191 13.3642C37.8957 13.5614 38.2654 13.8654 38.5284 14.2762C38.7913 14.6789 38.9228 15.1842 38.9228 15.7922C38.9228 16.4085 38.7913 16.9179 38.5284 17.3205C38.2654 17.7149 37.8957 18.0107 37.4191 18.2079C36.9425 18.4051 36.3838 18.5037 35.7429 18.5037H33.9065V21.3878C33.9065 21.47 33.8777 21.5398 33.8202 21.5973C33.7709 21.6548 33.701 21.6836 33.6107 21.6836H32.4398ZM33.8818 17.1356H35.6813C36.1578 17.1356 36.5235 17.0247 36.7782 16.8029C37.0329 16.5728 37.1603 16.2359 37.1603 15.7922C37.1603 15.3814 37.0411 15.0527 36.8029 14.8062C36.5646 14.5515 36.1907 14.4241 35.6813 14.4241H33.8818V17.1356ZM42.871 21.8068C42.2137 21.8068 41.6591 21.6918 41.2071 21.4617C40.7634 21.2317 40.4224 20.9071 40.1842 20.4881C39.9541 20.069 39.8226 19.5801 39.7898 19.0214C39.7815 18.8735 39.7774 18.6927 39.7774 18.4791C39.7774 18.2654 39.7815 18.0847 39.7898 17.9368C39.8226 17.3698 39.9582 16.8809 40.1965 16.4701C40.443 16.051 40.7881 15.7265 41.2318 15.4964C41.6837 15.2663 42.2301 15.1513 42.871 15.1513C43.5119 15.1513 44.0542 15.2663 44.4979 15.4964C44.9498 15.7265 45.2949 16.051 45.5332 16.4701C45.7797 16.8809 45.9194 17.3698 45.9523 17.9368C45.9605 18.0847 45.9646 18.2654 45.9646 18.4791C45.9646 18.6927 45.9605 18.8735 45.9523 19.0214C45.9194 19.5801 45.7838 20.069 45.5456 20.4881C45.3155 20.9071 44.9745 21.2317 44.5226 21.4617C44.0789 21.6918 43.5284 21.8068 42.871 21.8068ZM42.871 20.5867C43.3065 20.5867 43.6434 20.4511 43.8817 20.1799C44.12 19.9006 44.2514 19.4938 44.2761 18.9598C44.2843 18.8365 44.2884 18.6763 44.2884 18.4791C44.2884 18.2819 44.2843 18.1217 44.2761 17.9984C44.2514 17.4725 44.12 17.0699 43.8817 16.7905C43.6434 16.5112 43.3065 16.3715 42.871 16.3715C42.4355 16.3715 42.0986 16.5112 41.8604 16.7905C41.6221 17.0699 41.4906 17.4725 41.466 17.9984C41.4577 18.1217 41.4536 18.2819 41.4536 18.4791C41.4536 18.6763 41.4577 18.8365 41.466 18.9598C41.4906 19.4938 41.6221 19.9006 41.8604 20.1799C42.0986 20.4511 42.4355 20.5867 42.871 20.5867ZM47.626 21.6836C47.5438 21.6836 47.474 21.6548 47.4165 21.5973C47.3589 21.5398 47.3302 21.47 47.3302 21.3878V15.5704C47.3302 15.4882 47.3589 15.4184 47.4165 15.3608C47.474 15.3033 47.5438 15.2746 47.626 15.2746H48.649C48.7393 15.2746 48.8092 15.3033 48.8585 15.3608C48.916 15.4184 48.9448 15.4882 48.9448 15.5704V21.3878C48.9448 21.47 48.916 21.5398 48.8585 21.5973C48.8092 21.6548 48.7393 21.6836 48.649 21.6836H47.626ZM47.5767 14.2146C47.4863 14.2146 47.4124 14.19 47.3548 14.1407C47.3055 14.0831 47.2809 14.0092 47.2809 13.9188V13.0314C47.2809 12.9492 47.3055 12.8794 47.3548 12.8219C47.4124 12.7644 47.4863 12.7356 47.5767 12.7356H48.6983C48.7886 12.7356 48.8626 12.7644 48.9201 12.8219C48.9776 12.8794 49.0064 12.9492 49.0064 13.0314V13.9188C49.0064 14.0092 48.9776 14.0831 48.9201 14.1407C48.8626 14.19 48.7886 14.2146 48.6983 14.2146H47.5767ZM51.1285 21.6836C51.0463 21.6836 50.9765 21.6548 50.919 21.5973C50.8615 21.5398 50.8327 21.47 50.8327 21.3878V15.5704C50.8327 15.4882 50.8615 15.4184 50.919 15.3608C50.9765 15.3033 51.0463 15.2746 51.1285 15.2746H52.1392C52.2213 15.2746 52.2912 15.3033 52.3487 15.3608C52.4062 15.4184 52.435 15.4882 52.435 15.5704V16.0757C52.6486 15.8128 52.9198 15.595 53.2484 15.4225C53.5853 15.2417 54.0003 15.1513 54.4933 15.1513C54.9945 15.1513 55.43 15.2663 55.7997 15.4964C56.1695 15.7183 56.4529 16.0346 56.6501 16.4454C56.8556 16.8563 56.9583 17.3493 56.9583 17.9245V21.3878C56.9583 21.47 56.9295 21.5398 56.872 21.5973C56.8145 21.6548 56.7446 21.6836 56.6625 21.6836H55.5779C55.4957 21.6836 55.4259 21.6548 55.3683 21.5973C55.3108 21.5398 55.2821 21.47 55.2821 21.3878V17.9984C55.2821 17.5218 55.1629 17.148 54.9246 16.8768C54.6946 16.6057 54.3577 16.4701 53.914 16.4701C53.4867 16.4701 53.1457 16.6057 52.891 16.8768C52.6363 17.148 52.5089 17.5218 52.5089 17.9984V21.3878C52.5089 21.47 52.4802 21.5398 52.4226 21.5973C52.3651 21.6548 52.2953 21.6836 52.2131 21.6836H51.1285ZM61.348 21.6836C60.855 21.6836 60.4401 21.5973 60.1032 21.4248C59.7663 21.2522 59.5157 20.9975 59.3514 20.6606C59.187 20.3155 59.1049 19.8882 59.1049 19.3788V16.581H58.1312C58.049 16.581 57.9792 16.5523 57.9216 16.4947C57.8641 16.4372 57.8354 16.3674 57.8354 16.2852V15.5704C57.8354 15.4882 57.8641 15.4184 57.9216 15.3608C57.9792 15.3033 58.049 15.2746 58.1312 15.2746H59.1049V13.2286C59.1049 13.1464 59.1295 13.0766 59.1788 13.0191C59.2363 12.9616 59.3103 12.9328 59.4007 12.9328H60.399C60.4811 12.9328 60.551 12.9616 60.6085 13.0191C60.666 13.0766 60.6948 13.1464 60.6948 13.2286V15.2746H62.2354C62.3176 15.2746 62.3874 15.3033 62.4449 15.3608C62.5025 15.4184 62.5312 15.4882 62.5312 15.5704V16.2852C62.5312 16.3674 62.5025 16.4372 62.4449 16.4947C62.3874 16.5523 62.3176 16.581 62.2354 16.581H60.6948V19.2556C60.6948 19.5924 60.7523 19.8554 60.8673 20.0444C60.9906 20.2333 61.2001 20.3278 61.4959 20.3278H62.3463C62.4285 20.3278 62.4983 20.3566 62.5559 20.4141C62.6134 20.4716 62.6421 20.5415 62.6421 20.6236V21.3878C62.6421 21.47 62.6134 21.5398 62.5559 21.5973C62.4983 21.6548 62.4285 21.6836 62.3463 21.6836H61.348ZM66.1635 21.8068C65.6705 21.8068 65.2474 21.7493 64.8941 21.6343C64.549 21.5193 64.2655 21.3755 64.0436 21.2029C63.8218 21.0304 63.6575 20.8578 63.5506 20.6853C63.4438 20.5127 63.3863 20.3689 63.3781 20.2539C63.3699 20.1635 63.3945 20.0937 63.452 20.0444C63.5178 19.9868 63.5876 19.9581 63.6616 19.9581H64.6352C64.6681 19.9581 64.6969 19.9622 64.7215 19.9704C64.7462 19.9786 64.779 20.0033 64.8201 20.0444C64.9269 20.1347 65.0379 20.2292 65.1529 20.3278C65.2761 20.4264 65.4199 20.5127 65.5843 20.5867C65.7486 20.6524 65.954 20.6853 66.2005 20.6853C66.521 20.6853 66.788 20.6236 67.0017 20.5004C67.2235 20.3689 67.3344 20.184 67.3344 19.9458C67.3344 19.7732 67.2851 19.6335 67.1865 19.5267C67.0961 19.4199 66.9236 19.3254 66.6689 19.2432C66.4142 19.1528 66.0526 19.0584 65.5843 18.9598C65.1241 18.8529 64.7421 18.7174 64.438 18.553C64.134 18.3887 63.9081 18.1833 63.7602 17.9368C63.6123 17.6903 63.5383 17.4027 63.5383 17.074C63.5383 16.7536 63.6328 16.4496 63.8218 16.162C64.019 15.8662 64.3066 15.6238 64.6845 15.4348C65.0707 15.2458 65.5473 15.1513 66.1142 15.1513C66.5579 15.1513 66.9441 15.2088 67.2728 15.3239C67.6015 15.4307 67.8726 15.5663 68.0863 15.7306C68.3081 15.8949 68.4765 16.0634 68.5916 16.2359C68.7066 16.4003 68.7682 16.544 68.7765 16.6673C68.7847 16.7577 68.76 16.8316 68.7025 16.8891C68.645 16.9384 68.5793 16.9631 68.5053 16.9631H67.5933C67.5522 16.9631 67.5152 16.9549 67.4823 16.9384C67.4495 16.922 67.4166 16.9015 67.3837 16.8768C67.2933 16.7947 67.1947 16.7084 67.0879 16.618C66.9811 16.5276 66.8496 16.4496 66.6935 16.3838C66.5456 16.3099 66.3484 16.2729 66.1019 16.2729C65.7897 16.2729 65.5514 16.3427 65.3871 16.4824C65.2227 16.6139 65.1406 16.7823 65.1406 16.9877C65.1406 17.1274 65.1775 17.2507 65.2515 17.3575C65.3337 17.4561 65.4939 17.5506 65.7322 17.641C65.9705 17.7314 66.332 17.8259 66.8168 17.9245C67.3673 18.0231 67.8028 18.171 68.1232 18.3682C68.4519 18.5571 68.682 18.779 68.8134 19.0337C68.9531 19.2802 69.023 19.5555 69.023 19.8595C69.023 20.2292 68.912 20.562 68.6902 20.8578C68.4765 21.1536 68.1561 21.3878 67.7288 21.5603C67.3098 21.7247 66.788 21.8068 66.1635 21.8068Z" fill="#003E5C"/>
</svg>
