<svg width="221" height="393" viewBox="0 0 221 393" fill="none" xmlns="http://www.w3.org/2000/svg">
<path d="M0.443567 7.22427C0.443567 3.47939 3.47939 0.443567 7.22426 0.443567H213.116C216.861 0.443567 219.896 3.47939 219.896 7.22426V385.776C219.896 389.521 216.861 392.556 213.116 392.556H7.22427C3.47939 392.556 0.443567 389.521 0.443567 385.776V7.22427Z" fill="white" stroke="#003E5C" stroke-width="0.887133"/>
<rect x="109" y="66" width="111" height="33" fill="#FFD600"/>
<line y1="33.5105" x2="220.34" y2="33.5105" stroke="#003E5C" stroke-width="0.887133"/>
<line x1="108.676" y1="1.9477e-08" x2="108.676" y2="393" stroke="#003E5C" stroke-width="0.891166"/>
<path d="M158.071 17.1842C158.071 18.1089 157.905 18.8833 157.574 19.5075C157.25 20.1317 156.769 20.6017 156.129 20.9177C155.497 21.2336 154.711 21.3916 153.771 21.3916H151.737V13.1386H154.025C154.896 13.1386 155.632 13.2927 156.233 13.601C156.834 13.9092 157.289 14.3638 157.597 14.9649C157.913 15.566 158.071 16.3057 158.071 17.1842ZM157.377 17.2073C157.377 16.429 157.25 15.7856 156.996 15.277C156.742 14.7607 156.356 14.3754 155.84 14.1211C155.324 13.8591 154.676 13.7281 153.898 13.7281H152.407V20.8021H153.725C154.95 20.8021 155.863 20.5054 156.464 19.9121C157.073 19.311 157.377 18.4094 157.377 17.2073ZM162.139 15.1267C162.671 15.1267 163.11 15.25 163.457 15.4966C163.811 15.7355 164.077 16.0668 164.254 16.4907C164.439 16.9145 164.531 17.4038 164.531 17.9586V18.3979H160.139C160.139 19.2224 160.328 19.8504 160.706 20.282C161.091 20.7135 161.634 20.9292 162.335 20.9292C162.721 20.9292 163.056 20.8984 163.341 20.8368C163.626 20.7751 163.938 20.6672 164.277 20.5131V21.1142C163.969 21.2529 163.665 21.3531 163.364 21.4147C163.064 21.4764 162.713 21.5072 162.312 21.5072C161.703 21.5072 161.183 21.38 160.752 21.1257C160.328 20.8715 160.004 20.5093 159.781 20.0392C159.565 19.5615 159.457 19.0066 159.457 18.3747C159.457 17.7429 159.561 17.1842 159.769 16.6987C159.977 16.2132 160.282 15.8318 160.682 15.5544C161.083 15.2693 161.569 15.1267 162.139 15.1267ZM162.139 15.6815C161.569 15.6815 161.11 15.8703 160.763 16.2479C160.417 16.6178 160.212 17.1534 160.151 17.8546H163.85C163.85 17.4231 163.788 17.0455 163.665 16.7218C163.541 16.3982 163.352 16.1439 163.098 15.959C162.852 15.774 162.532 15.6815 162.139 15.6815ZM163.584 12.63C163.499 12.7533 163.387 12.892 163.248 13.0461C163.117 13.1925 162.975 13.3467 162.821 13.5085C162.667 13.6703 162.509 13.8283 162.347 13.9824C162.193 14.1288 162.042 14.2637 161.896 14.387H161.445V14.2829C161.592 14.1365 161.75 13.9593 161.919 13.7512C162.089 13.5432 162.254 13.3312 162.416 13.1155C162.578 12.892 162.705 12.6994 162.798 12.5375H163.584V12.63ZM168.655 21.5072C168.054 21.5072 167.542 21.3839 167.118 21.1373C166.702 20.883 166.382 20.5208 166.158 20.0508C165.943 19.5807 165.835 19.0143 165.835 18.3516C165.835 17.6581 165.958 17.0725 166.205 16.5947C166.459 16.1169 166.806 15.7547 167.245 15.5082C167.684 15.2539 168.201 15.1267 168.794 15.1267C169.087 15.1267 169.36 15.1575 169.615 15.2192C169.877 15.2731 170.108 15.3463 170.308 15.4388L170.135 15.9936C169.927 15.9089 169.703 15.8434 169.464 15.7971C169.225 15.7432 168.998 15.7162 168.782 15.7162C168.289 15.7162 167.873 15.8241 167.534 16.0399C167.203 16.2479 166.948 16.5485 166.771 16.9415C166.602 17.3345 166.517 17.8045 166.517 18.3516C166.517 18.8602 166.59 19.311 166.736 19.704C166.891 20.0893 167.126 20.3898 167.442 20.6056C167.757 20.8214 168.162 20.9292 168.655 20.9292C168.956 20.9292 169.237 20.8984 169.499 20.8368C169.769 20.7751 170.015 20.6942 170.239 20.594V21.1951C170.038 21.2799 169.807 21.3531 169.545 21.4147C169.283 21.4764 168.987 21.5072 168.655 21.5072ZM174.014 15.1267C174.545 15.1267 174.985 15.25 175.331 15.4966C175.686 15.7355 175.952 16.0668 176.129 16.4907C176.314 16.9145 176.406 17.4038 176.406 17.9586V18.3979H172.014C172.014 19.2224 172.203 19.8504 172.58 20.282C172.966 20.7135 173.509 20.9292 174.21 20.9292C174.595 20.9292 174.931 20.8984 175.216 20.8368C175.501 20.7751 175.813 20.6672 176.152 20.5131V21.1142C175.844 21.2529 175.539 21.3531 175.239 21.4147C174.938 21.4764 174.588 21.5072 174.187 21.5072C173.578 21.5072 173.058 21.38 172.627 21.1257C172.203 20.8715 171.879 20.5093 171.656 20.0392C171.44 19.5615 171.332 19.0066 171.332 18.3747C171.332 17.7429 171.436 17.1842 171.644 16.6987C171.852 16.2132 172.157 15.8318 172.557 15.5544C172.958 15.2693 173.443 15.1267 174.014 15.1267ZM174.014 15.6815C173.443 15.6815 172.985 15.8703 172.638 16.2479C172.291 16.6178 172.087 17.1534 172.026 17.8546H175.724C175.724 17.4231 175.663 17.0455 175.539 16.7218C175.416 16.3982 175.227 16.1439 174.973 15.959C174.726 15.774 174.407 15.6815 174.014 15.6815ZM173.424 12.5375C173.524 12.6994 173.652 12.892 173.806 13.1155C173.967 13.3312 174.133 13.5432 174.303 13.7512C174.48 13.9593 174.642 14.1365 174.788 14.2829V14.387H174.326C174.187 14.2637 174.037 14.1288 173.875 13.9824C173.713 13.8283 173.555 13.6703 173.401 13.5085C173.247 13.3467 173.104 13.1925 172.973 13.0461C172.842 12.892 172.735 12.7533 172.65 12.63V12.5375H173.424ZM181.929 19.7618C181.929 20.1317 181.836 20.4476 181.651 20.7096C181.466 20.9716 181.197 21.172 180.842 21.3107C180.488 21.4417 180.056 21.5072 179.548 21.5072C179.124 21.5072 178.746 21.4687 178.415 21.3916C178.083 21.3145 177.802 21.2221 177.571 21.1142V20.4785C177.848 20.6172 178.161 20.7327 178.507 20.8252C178.854 20.91 179.205 20.9524 179.559 20.9524C180.176 20.9524 180.619 20.8522 180.888 20.6518C181.158 20.4438 181.293 20.1625 181.293 19.808C181.293 19.5769 181.227 19.3881 181.096 19.2417C180.973 19.0875 180.784 18.9527 180.53 18.8371C180.283 18.7138 179.975 18.5905 179.605 18.4672C179.228 18.3362 178.893 18.2052 178.6 18.0742C178.307 17.9355 178.08 17.7621 177.918 17.5541C177.756 17.346 177.675 17.0609 177.675 16.6987C177.675 16.2055 177.875 15.8202 178.276 15.5428C178.677 15.2654 179.212 15.1267 179.883 15.1267C180.253 15.1267 180.596 15.1614 180.912 15.2307C181.235 15.3001 181.528 15.3926 181.79 15.5082L181.559 16.0514C181.405 15.9821 181.231 15.9204 181.039 15.8665C180.846 15.8048 180.65 15.7586 180.449 15.7278C180.249 15.697 180.048 15.6815 179.848 15.6815C179.363 15.6815 178.985 15.7663 178.715 15.9358C178.446 16.1054 178.311 16.352 178.311 16.6756C178.311 16.9222 178.372 17.1187 178.496 17.2651C178.627 17.4038 178.816 17.5232 179.062 17.6234C179.316 17.7236 179.621 17.8392 179.975 17.9702C180.337 18.0935 180.665 18.2245 180.958 18.3632C181.258 18.5019 181.493 18.6791 181.663 18.8949C181.84 19.1107 181.929 19.3996 181.929 19.7618Z" fill="#003E5C"/>
<line y1="66.0198" x2="220.34" y2="66.0198" stroke="#003E5C" stroke-width="0.887133"/>
<line y1="99.2513" x2="220.34" y2="99.2513" stroke="#003E5C" stroke-width="0.887133"/>
<line y1="131.761" x2="220.34" y2="131.761" stroke="#003E5C" stroke-width="0.887133"/>
<line y1="164.27" x2="220.34" y2="164.27" stroke="#003E5C" stroke-width="0.887133"/>
<line y1="197.501" x2="220.34" y2="197.501" stroke="#003E5C" stroke-width="0.887133"/>
<line y1="230.011" x2="220.34" y2="230.011" stroke="#003E5C" stroke-width="0.887133"/>
<line y1="263.242" x2="220.34" y2="263.242" stroke="#003E5C" stroke-width="0.887133"/>
<line y1="295.751" x2="220.34" y2="295.751" stroke="#003E5C" stroke-width="0.887133"/>
<line y1="328.983" x2="220.34" y2="328.983" stroke="#003E5C" stroke-width="0.887133"/>
<line y1="361.492" x2="220.34" y2="361.492" stroke="#003E5C" stroke-width="0.887133"/>
<path d="M46.0632 54.582C45.9721 54.582 45.8976 54.5531 45.8396 54.4951C45.79 54.4371 45.7651 54.3668 45.7651 54.284V47.8505L43.8773 49.3036C43.8028 49.3533 43.7283 49.374 43.6538 49.3657C43.5792 49.3491 43.513 49.3036 43.455 49.2291L42.9334 48.5584C42.8837 48.4839 42.863 48.4052 42.8713 48.3224C42.8879 48.2396 42.9334 48.1734 43.0079 48.1237L45.79 45.9751C45.8396 45.9337 45.8893 45.9088 45.939 45.9005C45.9887 45.8923 46.0425 45.8881 46.1005 45.8881H47.1934C47.2762 45.8881 47.3466 45.9171 47.4046 45.9751C47.4625 46.033 47.4915 46.1034 47.4915 46.1862V54.284C47.4915 54.3668 47.4625 54.4371 47.4046 54.4951C47.3466 54.5531 47.2762 54.582 47.1934 54.582H46.0632ZM52.4457 54.7062C51.8578 54.7062 51.3569 54.6193 50.9429 54.4454C50.5289 54.2715 50.1894 54.0314 49.9244 53.7251C49.6595 53.4187 49.4608 53.0668 49.3283 52.6694C49.1958 52.2637 49.1171 51.8331 49.0923 51.3777C49.084 51.1541 49.0757 50.9099 49.0675 50.6449C49.0675 50.3717 49.0675 50.0985 49.0675 49.8252C49.0757 49.552 49.084 49.2994 49.0923 49.0676C49.1089 48.6122 49.1875 48.1858 49.3283 47.7884C49.469 47.3826 49.6719 47.0308 49.9368 46.7327C50.2101 46.4346 50.5537 46.1986 50.9677 46.0247C51.3817 45.8509 51.8743 45.7639 52.4457 45.7639C53.0253 45.7639 53.522 45.8509 53.936 46.0247C54.35 46.1986 54.6895 46.4346 54.9545 46.7327C55.2277 47.0308 55.4306 47.3826 55.563 47.7884C55.7038 48.1858 55.7825 48.6122 55.799 49.0676C55.8156 49.2994 55.8239 49.552 55.8239 49.8252C55.8239 50.0985 55.8239 50.3717 55.8239 50.6449C55.8239 50.9099 55.8156 51.1541 55.799 51.3777C55.7825 51.8331 55.7079 52.2637 55.5755 52.6694C55.443 53.0668 55.2443 53.4187 54.9793 53.7251C54.7144 54.0314 54.3707 54.2715 53.9485 54.4454C53.5345 54.6193 53.0335 54.7062 52.4457 54.7062ZM52.4457 53.2779C52.9839 53.2779 53.3771 53.1041 53.6255 52.7563C53.8822 52.4003 54.0147 51.92 54.023 51.3156C54.0395 51.0755 54.0478 50.8354 54.0478 50.5953C54.0478 50.3469 54.0478 50.0985 54.0478 49.8501C54.0478 49.6017 54.0395 49.3657 54.023 49.1421C54.0147 48.5543 53.8822 48.0823 53.6255 47.7263C53.3771 47.3619 52.9839 47.1798 52.4457 47.1798C51.9157 47.1798 51.5224 47.3619 51.2658 47.7263C51.0174 48.0823 50.8849 48.5543 50.8683 49.1421C50.8683 49.3657 50.8642 49.6017 50.8559 49.8501C50.8559 50.0985 50.8559 50.3469 50.8559 50.5953C50.8642 50.8354 50.8683 51.0755 50.8683 51.3156C50.8849 51.92 51.0215 52.4003 51.2782 52.7563C51.5349 53.1041 51.924 53.2779 52.4457 53.2779Z" fill="#003E5C"/>
<path d="M49.6085 87.7241C49.534 87.7241 49.4719 87.6993 49.4222 87.6496C49.3725 87.5916 49.3477 87.5254 49.3477 87.4509C49.3477 87.4095 49.3518 87.3764 49.3601 87.3515C49.3767 87.3267 49.3891 87.306 49.3974 87.2894L51.2231 84.7682C51.0575 84.8096 50.8836 84.8262 50.7015 84.8179C50.2875 84.8096 49.8983 84.7309 49.534 84.5819C49.178 84.4246 48.8633 84.2176 48.5901 83.9609C48.3251 83.6959 48.114 83.3937 47.9567 83.0543C47.8076 82.7065 47.7331 82.3298 47.7331 81.924C47.7331 81.5514 47.8035 81.1871 47.9443 80.8311C48.085 80.4668 48.292 80.1397 48.5653 79.8499C48.8468 79.5601 49.1945 79.3324 49.6085 79.1668C50.0308 78.993 50.5235 78.906 51.0865 78.906C51.6412 78.906 52.1298 78.9847 52.552 79.142C52.9743 79.2993 53.3262 79.5187 53.6077 79.8002C53.8975 80.0735 54.1128 80.3881 54.2536 80.7442C54.4026 81.1002 54.4771 81.4769 54.4771 81.8744C54.4771 82.2304 54.4192 82.5616 54.3032 82.868C54.1873 83.1743 54.0424 83.4558 53.8685 83.7125C53.7029 83.9609 53.5373 84.2052 53.3717 84.4453L51.1858 87.4757C51.1527 87.5171 51.103 87.5709 51.0368 87.6372C50.9789 87.6951 50.8878 87.7241 50.7636 87.7241H49.6085ZM51.0989 83.5014C51.397 83.5014 51.6661 83.4393 51.9062 83.3151C52.1546 83.1826 52.3492 83.0004 52.4899 82.7686C52.639 82.5285 52.7135 82.247 52.7135 81.924C52.7135 81.5928 52.639 81.3113 52.4899 81.0795C52.3492 80.8394 52.1546 80.6572 51.9062 80.533C51.6578 80.4005 51.3887 80.3343 51.0989 80.3343C50.8008 80.3343 50.5276 80.4005 50.2792 80.533C50.0391 80.6572 49.8445 80.8394 49.6955 81.0795C49.5547 81.3113 49.4843 81.5928 49.4843 81.924C49.4843 82.247 49.5547 82.5285 49.6955 82.7686C49.8445 83.0004 50.0391 83.1826 50.2792 83.3151C50.5276 83.4393 50.8008 83.5014 51.0989 83.5014Z" fill="#003E5C"/>
<path d="M50.1214 120.99C49.5749 120.99 49.0864 120.924 48.6559 120.792C48.2253 120.659 47.861 120.473 47.5629 120.233C47.2731 119.993 47.0496 119.711 46.8922 119.388C46.7432 119.065 46.6687 118.705 46.6687 118.308C46.6687 117.827 46.7846 117.413 47.0164 117.066C47.2566 116.71 47.5671 116.436 47.9479 116.246C47.6416 116.056 47.4015 115.811 47.2276 115.513C47.062 115.215 46.9792 114.867 46.9792 114.47C46.9792 113.99 47.0992 113.572 47.3394 113.216C47.5878 112.851 47.9438 112.566 48.4075 112.359C48.8794 112.152 49.4507 112.048 50.1214 112.048C50.7921 112.048 51.3593 112.152 51.8229 112.359C52.2866 112.557 52.6385 112.839 52.8786 113.203C53.1187 113.559 53.2388 113.977 53.2388 114.458C53.2388 114.855 53.156 115.203 52.9904 115.501C52.8248 115.799 52.593 116.047 52.2949 116.246C52.684 116.428 52.9945 116.701 53.2264 117.066C53.4582 117.422 53.5741 117.84 53.5741 118.32C53.5741 118.842 53.4375 119.305 53.1643 119.711C52.8993 120.109 52.506 120.423 51.9844 120.655C51.471 120.879 50.85 120.99 50.1214 120.99ZM50.1214 119.699C50.4443 119.699 50.7341 119.645 50.9908 119.537C51.2558 119.421 51.4628 119.26 51.6118 119.053C51.7691 118.846 51.8478 118.602 51.8478 118.32C51.8478 118.03 51.7691 117.786 51.6118 117.587C51.4628 117.38 51.2558 117.223 50.9908 117.115C50.7341 116.999 50.4443 116.942 50.1214 116.942C49.7985 116.942 49.5046 116.999 49.2396 117.115C48.9829 117.223 48.7759 117.38 48.6186 117.587C48.4696 117.786 48.395 118.03 48.395 118.32C48.395 118.602 48.4696 118.846 48.6186 119.053C48.7759 119.26 48.9829 119.421 49.2396 119.537C49.5046 119.645 49.7985 119.699 50.1214 119.699ZM50.1214 115.712C50.3946 115.704 50.643 115.65 50.8666 115.551C51.0984 115.451 51.2806 115.319 51.4131 115.153C51.5538 114.979 51.6242 114.772 51.6242 114.532C51.6242 114.292 51.558 114.085 51.4255 113.911C51.3013 113.729 51.1233 113.588 50.8914 113.489C50.6679 113.389 50.4112 113.34 50.1214 113.34C49.8316 113.34 49.5708 113.389 49.339 113.489C49.1154 113.588 48.9374 113.729 48.8049 113.911C48.6807 114.085 48.6186 114.292 48.6186 114.532C48.6186 114.772 48.6807 114.979 48.8049 115.153C48.9374 115.327 49.1154 115.464 49.339 115.563C49.5708 115.662 49.8316 115.712 50.1214 115.712Z" fill="#003E5C"/>
<path d="M48.552 154.008C48.4775 154.008 48.4154 153.983 48.3657 153.934C48.3161 153.876 48.2912 153.81 48.2912 153.735C48.2912 153.702 48.2995 153.665 48.3161 153.623L51.3093 146.792H47.4094C47.3183 146.792 47.2438 146.763 47.1859 146.705C47.1362 146.647 47.1113 146.577 47.1113 146.494V145.625C47.1113 145.534 47.1362 145.459 47.1859 145.401C47.2438 145.343 47.3183 145.314 47.4094 145.314H52.8617C52.9528 145.314 53.0232 145.343 53.0729 145.401C53.1308 145.459 53.1598 145.534 53.1598 145.625V146.395C53.1598 146.511 53.1474 146.61 53.1226 146.693C53.106 146.768 53.0812 146.846 53.048 146.929L50.0797 153.71C50.0548 153.768 50.0093 153.834 49.9431 153.909C49.8851 153.975 49.7982 154.008 49.6822 154.008H48.552Z" fill="#003E5C"/>
<path d="M49.7484 187.275C49.0363 187.275 48.4236 187.142 47.9103 186.877C47.3969 186.604 46.9995 186.24 46.718 185.784C46.4364 185.321 46.2957 184.803 46.2957 184.232C46.2957 183.975 46.3288 183.727 46.395 183.487C46.4613 183.246 46.5482 183.019 46.6559 182.803C46.7635 182.588 46.867 182.398 46.9664 182.232C47.074 182.058 47.1692 181.922 47.252 181.822L49.5248 178.705C49.558 178.663 49.6076 178.614 49.6739 178.556C49.7401 178.49 49.8312 178.456 49.9471 178.456H51.1022C51.1767 178.456 51.2388 178.485 51.2885 178.543C51.3382 178.593 51.363 178.655 51.363 178.73C51.363 178.763 51.3547 178.796 51.3382 178.829C51.3299 178.854 51.3175 178.875 51.3009 178.891L49.5621 181.301C49.6366 181.276 49.7236 181.259 49.8229 181.251C49.9223 181.243 50.0134 181.239 50.0962 181.239C50.5102 181.247 50.9035 181.33 51.2761 181.487C51.6486 181.636 51.9757 181.843 52.2572 182.108C52.5387 182.373 52.7582 182.683 52.9155 183.039C53.0811 183.395 53.1639 183.785 53.1639 184.207C53.1639 184.753 53.0273 185.263 52.754 185.735C52.4808 186.198 52.0875 186.571 51.5741 186.852C51.0691 187.134 50.4605 187.275 49.7484 187.275ZM49.736 185.846C50.0341 185.846 50.3073 185.784 50.5557 185.66C50.8124 185.536 51.0194 185.354 51.1767 185.114C51.334 184.873 51.4127 184.575 51.4127 184.219C51.4127 183.872 51.334 183.578 51.1767 183.337C51.0194 183.097 50.8124 182.915 50.5557 182.791C50.3073 182.667 50.0341 182.605 49.736 182.605C49.4379 182.605 49.1605 182.667 48.9039 182.791C48.6555 182.915 48.4526 183.097 48.2953 183.337C48.138 183.578 48.0593 183.872 48.0593 184.219C48.0593 184.575 48.138 184.873 48.2953 185.114C48.4526 185.354 48.6555 185.536 48.9039 185.66C49.1605 185.784 49.4379 185.846 49.736 185.846Z" fill="#003E5C"/>
<path d="M50.0726 220.429C49.3605 220.429 48.7602 220.313 48.2717 220.081C47.7832 219.841 47.4106 219.531 47.1539 219.15C46.9055 218.769 46.773 218.363 46.7564 217.933C46.7482 217.858 46.7689 217.8 46.8185 217.759C46.8765 217.709 46.9427 217.684 47.0173 217.684H48.1723C48.2634 217.684 48.3379 217.705 48.3959 217.746C48.4621 217.78 48.5118 217.842 48.5449 217.933C48.6277 218.181 48.7436 218.384 48.8927 218.541C49.05 218.699 49.228 218.815 49.4267 218.889C49.6337 218.964 49.849 219.001 50.0726 219.001C50.3706 219.001 50.6397 218.943 50.8798 218.827C51.1282 218.703 51.327 218.521 51.476 218.28C51.625 218.04 51.6996 217.746 51.6996 217.399C51.6996 217.092 51.6292 216.827 51.4884 216.604C51.3477 216.38 51.1531 216.206 50.9047 216.082C50.6646 215.95 50.3872 215.883 50.0726 215.883C49.8407 215.883 49.6503 215.912 49.5012 215.97C49.3522 216.028 49.2239 216.095 49.1162 216.169C49.0169 216.244 48.9258 216.31 48.843 216.368C48.7685 216.426 48.6815 216.455 48.5822 216.455H47.4395C47.365 216.455 47.2988 216.43 47.2408 216.38C47.1911 216.322 47.1663 216.256 47.1663 216.182L47.601 211.934C47.6093 211.826 47.6465 211.743 47.7128 211.686C47.779 211.628 47.8577 211.599 47.9488 211.599H52.6186C52.7014 211.599 52.7718 211.628 52.8298 211.686C52.8877 211.743 52.9167 211.814 52.9167 211.897V212.729C52.9167 212.812 52.8877 212.882 52.8298 212.94C52.7718 212.998 52.7014 213.027 52.6186 213.027H49.0293L48.8306 215.051C48.9796 214.952 49.1783 214.857 49.4267 214.766C49.6751 214.675 50.0187 214.629 50.4576 214.629C50.855 214.629 51.2317 214.695 51.5878 214.828C51.9521 214.952 52.275 215.138 52.5565 215.387C52.838 215.627 53.0575 215.921 53.2148 216.268C53.3804 216.608 53.4632 216.997 53.4632 217.436C53.4632 218.04 53.3224 218.566 53.0409 219.013C52.7594 219.46 52.3661 219.808 51.861 220.057C51.3559 220.305 50.7598 220.429 50.0726 220.429Z" fill="#003E5C"/>
<path d="M50.9778 253.435C50.895 253.435 50.8246 253.406 50.7667 253.348C50.7087 253.29 50.6797 253.219 50.6797 253.136V251.547H46.7426C46.6515 251.547 46.577 251.518 46.5191 251.46C46.4694 251.402 46.4445 251.331 46.4445 251.249V250.404C46.4445 250.354 46.4528 250.296 46.4694 250.23C46.4942 250.156 46.5315 250.089 46.5812 250.032L50.245 244.952C50.3527 244.811 50.5058 244.741 50.7046 244.741H52.0583C52.1411 244.741 52.2115 244.77 52.2695 244.828C52.3274 244.886 52.3564 244.956 52.3564 245.039V250.081H53.4618C53.5611 250.081 53.6356 250.11 53.6853 250.168C53.7433 250.218 53.7723 250.288 53.7723 250.379V251.249C53.7723 251.331 53.7433 251.402 53.6853 251.46C53.6274 251.518 53.557 251.547 53.4742 251.547H52.3564V253.136C52.3564 253.219 52.3274 253.29 52.2695 253.348C52.2115 253.406 52.1411 253.435 52.0583 253.435H50.9778ZM48.1709 250.131H50.717V246.542L48.1709 250.131Z" fill="#003E5C"/>
<path d="M50.5181 286.7C49.9385 286.7 49.4376 286.63 49.0153 286.489C48.5931 286.348 48.2412 286.166 47.9596 285.943C47.6864 285.711 47.4794 285.463 47.3387 285.198C47.1979 284.924 47.1234 284.655 47.1151 284.39C47.1151 284.316 47.1399 284.258 47.1896 284.216C47.2476 284.167 47.3138 284.142 47.3883 284.142H48.5061C48.5889 284.142 48.6593 284.158 48.7173 284.192C48.7752 284.225 48.8249 284.291 48.8663 284.39C48.9408 284.614 49.0609 284.792 49.2265 284.924C49.4003 285.057 49.5991 285.152 49.8226 285.21C50.0462 285.26 50.2822 285.285 50.5306 285.285C51.0274 285.285 51.4206 285.169 51.7104 284.937C52.0085 284.697 52.1576 284.357 52.1576 283.918C52.1576 283.479 52.0209 283.165 51.7477 282.974C51.4745 282.776 51.0936 282.676 50.6051 282.676H49.3258C49.2347 282.676 49.1602 282.651 49.1023 282.602C49.0443 282.544 49.0153 282.469 49.0153 282.378V281.857C49.0153 281.774 49.0319 281.703 49.065 281.645C49.1064 281.579 49.1478 281.525 49.1892 281.484L51.4124 279.311H47.8603C47.7692 279.311 47.6947 279.282 47.6367 279.224C47.587 279.166 47.5622 279.095 47.5622 279.012V278.193C47.5622 278.102 47.587 278.027 47.6367 277.969C47.6947 277.911 47.7692 277.882 47.8603 277.882H53.1884C53.2795 277.882 53.354 277.911 53.412 277.969C53.4699 278.027 53.4989 278.102 53.4989 278.193V278.938C53.4989 279.012 53.4823 279.079 53.4492 279.137C53.4161 279.195 53.3788 279.244 53.3374 279.286L51.1888 281.496L51.3378 281.509C51.8429 281.55 52.29 281.666 52.6792 281.857C53.0766 282.039 53.383 282.308 53.5983 282.664C53.8218 283.02 53.9336 283.467 53.9336 284.005C53.9336 284.568 53.7846 285.053 53.4865 285.458C53.1967 285.856 52.7951 286.162 52.2818 286.377C51.7684 286.593 51.1805 286.7 50.5181 286.7Z" fill="#003E5C"/>
<path d="M46.692 319.718C46.6092 319.718 46.5388 319.689 46.4808 319.631C46.4229 319.573 46.3939 319.503 46.3939 319.42V318.787C46.3939 318.712 46.4104 318.625 46.4436 318.526C46.485 318.418 46.5719 318.311 46.7044 318.203L48.6667 316.253C49.2132 315.823 49.652 315.458 49.9832 315.16C50.3227 314.854 50.567 314.576 50.716 314.328C50.8733 314.071 50.952 313.819 50.952 313.57C50.952 313.198 50.8485 312.896 50.6415 312.664C50.4428 312.432 50.124 312.316 49.6851 312.316C49.3953 312.316 49.1511 312.378 48.9524 312.502C48.7537 312.618 48.5963 312.776 48.4804 312.974C48.3728 313.173 48.2983 313.392 48.2569 313.633C48.2403 313.74 48.1948 313.815 48.1202 313.856C48.0457 313.897 47.9712 313.918 47.8967 313.918H46.7913C46.7168 313.918 46.6547 313.893 46.605 313.844C46.5553 313.794 46.5305 313.736 46.5305 313.67C46.5388 313.314 46.6133 312.97 46.7541 312.639C46.8948 312.299 47.0977 312.001 47.3626 311.745C47.6359 311.48 47.9671 311.269 48.3562 311.111C48.7454 310.954 49.1842 310.875 49.6727 310.875C50.36 310.875 50.9271 310.991 51.3742 311.223C51.8296 311.455 52.1691 311.77 52.3927 312.167C52.6245 312.564 52.7404 313.012 52.7404 313.508C52.7404 313.897 52.6659 314.258 52.5169 314.589C52.3678 314.912 52.1526 315.226 51.871 315.533C51.5895 315.831 51.25 316.137 50.8526 316.452L49.089 318.24H52.6287C52.7197 318.24 52.7901 318.269 52.8398 318.327C52.8977 318.377 52.9267 318.447 52.9267 318.538V319.42C52.9267 319.503 52.8977 319.573 52.8398 319.631C52.7901 319.689 52.7197 319.718 52.6287 319.718H46.692Z" fill="#003E5C"/>
<path d="M50.6887 352.86C50.5977 352.86 50.5231 352.831 50.4652 352.773C50.4155 352.715 50.3907 352.645 50.3907 352.562V346.129L48.5028 347.582C48.4283 347.632 48.3538 347.652 48.2793 347.644C48.2048 347.627 48.1385 347.582 48.0806 347.507L47.5589 346.837C47.5093 346.762 47.4886 346.684 47.4968 346.601C47.5134 346.518 47.5589 346.452 47.6335 346.402L50.4155 344.253C50.4652 344.212 50.5149 344.187 50.5645 344.179C50.6142 344.171 50.668 344.166 50.726 344.166H51.819C51.9017 344.166 51.9721 344.195 52.0301 344.253C52.088 344.311 52.117 344.382 52.117 344.465V352.562C52.117 352.645 52.088 352.715 52.0301 352.773C51.9721 352.831 51.9017 352.86 51.819 352.86H50.6887Z" fill="#003E5C"/>
<path d="M49.6715 386.127C49.0836 386.127 48.5827 386.04 48.1687 385.866C47.7547 385.692 47.4152 385.452 47.1502 385.145C46.8853 384.839 46.6866 384.487 46.5541 384.09C46.4216 383.684 46.343 383.254 46.3181 382.798C46.3098 382.575 46.3016 382.33 46.2933 382.065C46.2933 381.792 46.2933 381.519 46.2933 381.246C46.3016 380.972 46.3098 380.72 46.3181 380.488C46.3347 380.033 46.4133 379.606 46.5541 379.209C46.6949 378.803 46.8977 378.451 47.1627 378.153C47.4359 377.855 47.7795 377.619 48.1935 377.445C48.6075 377.271 49.1002 377.184 49.6715 377.184C50.2511 377.184 50.7479 377.271 51.1619 377.445C51.5759 377.619 51.9153 377.855 52.1803 378.153C52.4535 378.451 52.6564 378.803 52.7889 379.209C52.9296 379.606 53.0083 380.033 53.0248 380.488C53.0414 380.72 53.0497 380.972 53.0497 381.246C53.0497 381.519 53.0497 381.792 53.0497 382.065C53.0497 382.33 53.0414 382.575 53.0248 382.798C53.0083 383.254 52.9338 383.684 52.8013 384.09C52.6688 384.487 52.4701 384.839 52.2051 385.145C51.9402 385.452 51.5966 385.692 51.1743 385.866C50.7603 386.04 50.2594 386.127 49.6715 386.127ZM49.6715 384.698C50.2097 384.698 50.603 384.524 50.8514 384.177C51.108 383.821 51.2405 383.34 51.2488 382.736C51.2654 382.496 51.2736 382.256 51.2736 382.016C51.2736 381.767 51.2736 381.519 51.2736 381.27C51.2736 381.022 51.2654 380.786 51.2488 380.563C51.2405 379.975 51.108 379.503 50.8514 379.147C50.603 378.782 50.2097 378.6 49.6715 378.6C49.1416 378.6 48.7483 378.782 48.4916 379.147C48.2432 379.503 48.1107 379.975 48.0942 380.563C48.0942 380.786 48.09 381.022 48.0817 381.27C48.0817 381.519 48.0817 381.767 48.0817 382.016C48.09 382.256 48.0942 382.496 48.0942 382.736C48.1107 383.34 48.2473 383.821 48.504 384.177C48.7607 384.524 49.1498 384.698 49.6715 384.698Z" fill="#003E5C"/>
<path d="M163.758 57.554L156.348 54.1847V53.6418L163.758 50.0489V50.8793L157.37 53.8813L163.758 56.7237V57.554ZM174.154 59.582H173.276V51.1028C173.276 50.7941 173.276 50.5279 173.276 50.3044C173.276 50.0808 173.281 49.8732 173.292 49.6816C173.302 49.49 173.308 49.309 173.308 49.1387C173.158 49.2771 173.02 49.4048 172.892 49.5219C172.765 49.6284 172.594 49.7615 172.381 49.9212L170.785 51.1507L170.305 50.512L173.403 48.1806H174.154V59.582Z" fill="#003E5C"/>
<path d="M156.348 89.5479L162.736 86.7055L156.348 83.7035V82.8731L163.758 86.466V87.0089L156.348 90.3783V89.5479ZM174.154 92.4062H173.276V83.927C173.276 83.6183 173.276 83.3522 173.276 83.1286C173.276 82.9051 173.281 82.6975 173.292 82.5058C173.302 82.3142 173.308 82.1332 173.308 81.9629C173.158 82.1013 173.02 82.2291 172.892 82.3462C172.765 82.4526 172.594 82.5857 172.381 82.7454L170.785 83.9749L170.305 83.3362L173.403 81.0048H174.154V92.4062Z" fill="#003E5C"/>
<path d="M156.348 121.485L162.735 118.643L156.348 115.64V114.81L163.757 118.403V118.946L156.348 122.315V121.485ZM176.836 124.343H169.634V123.577L172.908 120.176C173.461 119.622 173.919 119.122 174.281 118.674C174.654 118.217 174.936 117.764 175.127 117.317C175.319 116.859 175.415 116.359 175.415 115.816C175.415 115.103 175.207 114.555 174.792 114.171C174.377 113.778 173.813 113.581 173.099 113.581C172.599 113.581 172.12 113.671 171.662 113.852C171.215 114.033 170.779 114.294 170.353 114.634L169.858 113.996C170.177 113.74 170.513 113.522 170.864 113.341C171.215 113.16 171.577 113.022 171.95 112.926C172.333 112.83 172.716 112.782 173.099 112.782C173.759 112.782 174.329 112.91 174.808 113.165C175.298 113.41 175.676 113.756 175.942 114.203C176.208 114.64 176.341 115.161 176.341 115.768C176.341 116.237 176.277 116.673 176.149 117.078C176.032 117.472 175.857 117.855 175.622 118.227C175.388 118.589 175.101 118.962 174.76 119.345C174.43 119.718 174.058 120.112 173.642 120.527L170.8 123.465V123.513H176.836V124.343Z" fill="#003E5C"/>
<path d="M156.348 154.309L162.735 151.466L156.348 148.464V147.634L163.757 151.227V151.77L156.348 155.139V154.309ZM176.453 148.4C176.453 148.901 176.352 149.342 176.149 149.726C175.947 150.109 175.665 150.423 175.303 150.668C174.952 150.913 174.537 151.083 174.058 151.179V151.211C174.962 151.328 175.644 151.621 176.101 152.089C176.57 152.557 176.804 153.196 176.804 154.005C176.804 154.644 176.65 155.219 176.341 155.73C176.043 156.23 175.585 156.624 174.968 156.911C174.361 157.188 173.594 157.327 172.668 157.327C172.061 157.327 171.492 157.273 170.96 157.167C170.427 157.05 169.943 156.885 169.507 156.672V155.81C169.943 156.023 170.443 156.198 171.008 156.337C171.572 156.475 172.131 156.544 172.684 156.544C173.77 156.544 174.568 156.315 175.079 155.858C175.601 155.4 175.862 154.777 175.862 153.989C175.862 153.425 175.724 152.973 175.447 152.632C175.17 152.291 174.776 152.046 174.265 151.897C173.754 151.738 173.153 151.658 172.461 151.658H171.247V150.859H172.477C173.073 150.859 173.6 150.769 174.058 150.588C174.515 150.407 174.872 150.136 175.127 149.774C175.394 149.412 175.527 148.97 175.527 148.448C175.527 147.767 175.308 147.256 174.872 146.915C174.446 146.564 173.866 146.388 173.131 146.388C172.737 146.388 172.365 146.431 172.014 146.516C171.662 146.591 171.327 146.708 171.008 146.867C170.699 147.016 170.385 147.203 170.065 147.426L169.602 146.788C169.9 146.553 170.225 146.351 170.576 146.181C170.938 146 171.332 145.861 171.758 145.766C172.184 145.659 172.642 145.606 173.131 145.606C174.185 145.606 175 145.861 175.575 146.372C176.16 146.873 176.453 147.549 176.453 148.4Z" fill="#003E5C"/>
<path d="M156.348 186.246L162.735 183.403L156.348 180.401V179.571L163.757 183.164V183.707L156.348 187.076V186.246ZM177.65 186.262H175.75V189.104H174.872V186.262H169.139V185.527L174.808 177.639H175.75V185.431H177.65V186.262ZM174.872 181.2C174.872 180.891 174.872 180.619 174.872 180.385C174.872 180.151 174.872 179.938 174.872 179.747C174.883 179.555 174.888 179.369 174.888 179.188C174.899 179.007 174.909 178.826 174.92 178.645H174.872C174.734 178.89 174.6 179.118 174.473 179.331C174.345 179.544 174.191 179.773 174.01 180.018L170.097 185.431H174.872V181.2Z" fill="#003E5C"/>
<path d="M156.348 219.069L162.735 216.227L156.348 213.225V212.395L163.757 215.987V216.53L156.348 219.9V219.069ZM173.147 215.029C173.924 215.029 174.59 215.162 175.143 215.429C175.708 215.695 176.144 216.078 176.453 216.578C176.761 217.068 176.916 217.669 176.916 218.383C176.916 219.149 176.746 219.809 176.405 220.363C176.064 220.916 175.585 221.342 174.968 221.64C174.35 221.938 173.621 222.087 172.78 222.087C172.184 222.087 171.636 222.029 171.135 221.912C170.635 221.795 170.214 221.635 169.874 221.433V220.538C170.246 220.762 170.688 220.943 171.199 221.081C171.71 221.22 172.237 221.289 172.78 221.289C173.429 221.289 173.994 221.183 174.473 220.97C174.952 220.757 175.324 220.437 175.59 220.012C175.857 219.586 175.99 219.064 175.99 218.447C175.99 217.616 175.734 216.972 175.223 216.514C174.723 216.046 173.956 215.812 172.924 215.812C172.53 215.812 172.136 215.844 171.742 215.908C171.359 215.961 171.008 216.03 170.688 216.115L170.193 215.78L170.656 210.526H176.165V211.357H171.423L171.087 215.285C171.311 215.232 171.593 215.178 171.934 215.125C172.285 215.061 172.69 215.029 173.147 215.029Z" fill="#003E5C"/>
<path d="M156.348 251.006L162.735 248.164L156.348 245.162V244.332L163.757 247.925V248.467L156.348 251.837V251.006ZM169.762 249.01C169.762 248.191 169.821 247.435 169.938 246.743C170.065 246.051 170.257 245.433 170.513 244.891C170.768 244.337 171.093 243.869 171.487 243.485C171.88 243.091 172.349 242.793 172.892 242.591C173.435 242.389 174.052 242.288 174.744 242.288C175.021 242.288 175.287 242.304 175.543 242.336C175.809 242.367 176.038 242.41 176.229 242.463V243.278C176.038 243.203 175.814 243.15 175.559 243.118C175.314 243.075 175.048 243.054 174.76 243.054C174.079 243.054 173.483 243.177 172.972 243.421C172.471 243.656 172.051 244.002 171.71 244.459C171.38 244.906 171.125 245.46 170.944 246.12C170.773 246.78 170.678 247.541 170.656 248.404H170.72C170.869 248.127 171.077 247.866 171.343 247.621C171.609 247.376 171.939 247.179 172.333 247.03C172.737 246.871 173.206 246.791 173.738 246.791C174.419 246.791 175.005 246.929 175.495 247.206C175.995 247.483 176.378 247.882 176.644 248.404C176.921 248.915 177.06 249.527 177.06 250.24C177.06 250.996 176.916 251.661 176.628 252.236C176.352 252.8 175.947 253.242 175.415 253.561C174.893 253.87 174.27 254.024 173.547 254.024C172.929 254.024 172.386 253.902 171.918 253.657C171.449 253.412 171.055 253.066 170.736 252.619C170.417 252.172 170.172 251.64 170.002 251.022C169.842 250.405 169.762 249.734 169.762 249.01ZM173.531 253.242C174.35 253.242 174.989 252.986 175.447 252.475C175.915 251.954 176.149 251.209 176.149 250.24C176.149 249.399 175.936 248.739 175.511 248.26C175.095 247.781 174.457 247.541 173.594 247.541C173.009 247.541 172.498 247.658 172.061 247.893C171.636 248.127 171.306 248.42 171.071 248.771C170.837 249.122 170.72 249.473 170.72 249.825C170.72 250.165 170.768 250.533 170.864 250.927C170.96 251.31 171.114 251.682 171.327 252.044C171.55 252.396 171.838 252.683 172.189 252.907C172.551 253.13 172.998 253.242 173.531 253.242Z" fill="#003E5C"/>
<path d="M156.348 283.83L162.735 280.988L156.348 277.986V277.155L163.757 280.748V281.291L156.348 284.66V283.83ZM171.327 286.688L176.038 276.117H169.586V275.287H177.012V275.958L172.317 286.688H171.327Z" fill="#003E5C"/>
<path d="M156.348 315.767L162.735 312.925L156.348 309.923V309.092L163.757 312.685V313.228L156.348 316.598V315.767ZM173.307 307.064C173.956 307.064 174.526 307.171 175.016 307.384C175.505 307.586 175.889 307.884 176.165 308.278C176.442 308.672 176.581 309.156 176.581 309.731C176.581 310.189 176.474 310.593 176.261 310.945C176.059 311.285 175.777 311.589 175.415 311.855C175.053 312.11 174.638 312.345 174.169 312.557C174.723 312.77 175.207 313.021 175.622 313.308C176.038 313.595 176.362 313.936 176.596 314.33C176.831 314.713 176.948 315.171 176.948 315.703C176.948 316.353 176.788 316.906 176.469 317.364C176.16 317.822 175.729 318.173 175.175 318.418C174.632 318.663 174.004 318.785 173.291 318.785C172.556 318.785 171.918 318.663 171.375 318.418C170.832 318.162 170.411 317.816 170.113 317.38C169.826 316.933 169.682 316.401 169.682 315.783C169.682 315.23 169.794 314.75 170.018 314.346C170.252 313.941 170.571 313.601 170.976 313.324C171.391 313.037 171.849 312.797 172.349 312.605C171.923 312.403 171.535 312.18 171.183 311.935C170.843 311.679 170.566 311.376 170.353 311.025C170.151 310.663 170.049 310.231 170.049 309.731C170.049 309.178 170.188 308.704 170.465 308.31C170.752 307.916 171.141 307.613 171.63 307.4C172.12 307.176 172.679 307.064 173.307 307.064ZM170.576 315.783C170.576 316.454 170.811 316.997 171.279 317.412C171.758 317.827 172.423 318.035 173.275 318.035C173.85 318.035 174.34 317.944 174.744 317.763C175.159 317.572 175.479 317.305 175.702 316.965C175.936 316.613 176.054 316.198 176.054 315.719C176.054 315.293 175.952 314.926 175.75 314.617C175.559 314.298 175.271 314.016 174.888 313.771C174.515 313.526 174.063 313.308 173.531 313.116L173.179 312.989C172.658 313.18 172.2 313.404 171.806 313.659C171.423 313.904 171.119 314.197 170.896 314.538C170.683 314.878 170.576 315.293 170.576 315.783ZM173.291 307.831C172.61 307.831 172.045 307.996 171.598 308.326C171.162 308.656 170.944 309.135 170.944 309.763C170.944 310.189 171.045 310.551 171.247 310.849C171.46 311.147 171.747 311.402 172.109 311.615C172.471 311.818 172.886 312.009 173.355 312.19C173.845 311.988 174.26 311.78 174.6 311.567C174.941 311.344 175.202 311.088 175.383 310.801C175.575 310.503 175.67 310.152 175.67 309.747C175.67 309.119 175.457 308.645 175.032 308.326C174.616 307.996 174.036 307.831 173.291 307.831Z" fill="#003E5C"/>
<path d="M156.348 348.591L162.735 345.749L156.348 342.746V341.916L163.757 345.509V346.052L156.348 349.421V348.591ZM176.916 344.886C176.916 345.706 176.852 346.462 176.724 347.154C176.607 347.846 176.421 348.468 176.165 349.022C175.91 349.576 175.585 350.049 175.191 350.443C174.797 350.826 174.324 351.119 173.77 351.321C173.227 351.524 172.61 351.625 171.918 351.625C171.652 351.625 171.369 351.609 171.071 351.577C170.773 351.545 170.523 351.497 170.321 351.433V350.619C170.513 350.693 170.752 350.752 171.039 350.795C171.327 350.837 171.614 350.858 171.902 350.858C172.583 350.858 173.174 350.741 173.674 350.507C174.185 350.262 174.606 349.916 174.936 349.469C175.276 349.011 175.532 348.447 175.702 347.776C175.883 347.106 175.984 346.35 176.006 345.509H175.942C175.793 345.775 175.585 346.036 175.319 346.291C175.053 346.536 174.718 346.739 174.313 346.898C173.919 347.047 173.451 347.122 172.908 347.122C172.226 347.122 171.641 346.983 171.151 346.707C170.662 346.43 170.284 346.036 170.018 345.525C169.751 345.003 169.618 344.386 169.618 343.673C169.618 342.906 169.757 342.241 170.033 341.677C170.321 341.112 170.725 340.676 171.247 340.367C171.779 340.048 172.407 339.888 173.131 339.888C173.759 339.888 174.308 340.011 174.776 340.255C175.244 340.5 175.633 340.846 175.942 341.293C176.261 341.74 176.501 342.267 176.66 342.874C176.831 343.481 176.916 344.152 176.916 344.886ZM173.131 340.671C172.322 340.671 171.684 340.931 171.215 341.453C170.747 341.964 170.513 342.699 170.513 343.657C170.513 344.498 170.72 345.163 171.135 345.653C171.561 346.132 172.205 346.371 173.067 346.371C173.664 346.371 174.175 346.254 174.6 346.02C175.026 345.775 175.356 345.477 175.59 345.126C175.835 344.774 175.958 344.423 175.958 344.072C175.958 343.742 175.91 343.38 175.814 342.986C175.718 342.592 175.559 342.219 175.335 341.868C175.122 341.517 174.835 341.229 174.473 341.006C174.111 340.782 173.664 340.671 173.131 340.671Z" fill="#003E5C"/>
<path d="M151.786 381.134L158.174 378.292L151.786 375.29V374.46L159.196 378.052V378.595L151.786 381.965V381.134ZM169.592 383.993H168.714V375.513C168.714 375.205 168.714 374.939 168.714 374.715C168.714 374.491 168.719 374.284 168.73 374.092C168.74 373.901 168.746 373.72 168.746 373.549C168.597 373.688 168.458 373.815 168.331 373.933C168.203 374.039 168.032 374.172 167.82 374.332L166.223 375.561L165.744 374.923L168.842 372.591H169.592V383.993ZM181.557 378.26C181.557 379.218 181.482 380.064 181.333 380.799C181.195 381.523 180.977 382.135 180.679 382.635C180.381 383.136 179.997 383.514 179.529 383.769C179.071 384.025 178.523 384.152 177.884 384.152C177.086 384.152 176.415 383.929 175.872 383.482C175.329 383.035 174.919 382.375 174.643 381.502C174.366 380.629 174.227 379.548 174.227 378.26C174.227 377.089 174.345 376.067 174.579 375.194C174.824 374.321 175.212 373.64 175.744 373.15C176.287 372.66 177.006 372.416 177.9 372.416C178.773 372.416 179.476 372.655 180.008 373.134C180.551 373.613 180.945 374.295 181.19 375.178C181.435 376.051 181.557 377.078 181.557 378.26ZM175.138 378.26C175.138 379.41 175.233 380.363 175.425 381.118C175.617 381.864 175.915 382.422 176.319 382.795C176.724 383.168 177.246 383.354 177.884 383.354C178.544 383.354 179.071 383.173 179.465 382.811C179.87 382.438 180.162 381.874 180.343 381.118C180.535 380.363 180.631 379.41 180.631 378.26C180.631 377.195 180.546 376.291 180.375 375.545C180.216 374.79 179.934 374.215 179.529 373.821C179.135 373.416 178.592 373.214 177.9 373.214C177.208 373.214 176.66 373.416 176.255 373.821C175.851 374.225 175.564 374.806 175.393 375.561C175.223 376.307 175.138 377.206 175.138 378.26Z" fill="#003E5C"/>
<path d="M32.6893 21.7583C32.6065 21.7583 32.5362 21.7293 32.4782 21.6714C32.4202 21.6134 32.3913 21.543 32.3913 21.4602V13.3749C32.3913 13.2838 32.4202 13.2093 32.4782 13.1513C32.5362 13.0934 32.6065 13.0644 32.6893 13.0644H36.0179C36.6637 13.0644 37.2267 13.1679 37.707 13.3749C38.1872 13.5736 38.5598 13.88 38.8247 14.294C39.0897 14.6997 39.2222 15.2089 39.2222 15.8216C39.2222 16.4426 39.0897 16.956 38.8247 17.3617C38.5598 17.7591 38.1872 18.0572 37.707 18.2559C37.2267 18.4546 36.6637 18.554 36.0179 18.554H34.1673V21.4602C34.1673 21.543 34.1383 21.6134 34.0804 21.6714C34.0307 21.7293 33.9603 21.7583 33.8692 21.7583H32.6893ZM34.1425 17.1754H35.9558C36.436 17.1754 36.8044 17.0636 37.0611 16.84C37.3178 16.6082 37.4461 16.2687 37.4461 15.8216C37.4461 15.4076 37.3261 15.0764 37.086 14.828C36.8458 14.5713 36.4691 14.443 35.9558 14.443H34.1425V17.1754ZM43.2008 21.8825C42.5384 21.8825 41.9795 21.7666 41.5241 21.5347C41.077 21.3029 40.7334 20.9758 40.4933 20.5536C40.2614 20.1313 40.129 19.6386 40.0958 19.0756C40.0876 18.9266 40.0834 18.7444 40.0834 18.5291C40.0834 18.3139 40.0876 18.1317 40.0958 17.9827C40.129 17.4113 40.2656 16.9187 40.5057 16.5047C40.7541 16.0824 41.1018 15.7554 41.549 15.5235C42.0044 15.2917 42.555 15.1758 43.2008 15.1758C43.8466 15.1758 44.3931 15.2917 44.8402 15.5235C45.2956 15.7554 45.6434 16.0824 45.8835 16.5047C46.1319 16.9187 46.2727 17.4113 46.3058 17.9827C46.3141 18.1317 46.3182 18.3139 46.3182 18.5291C46.3182 18.7444 46.3141 18.9266 46.3058 19.0756C46.2727 19.6386 46.136 20.1313 45.8959 20.5536C45.6641 20.9758 45.3205 21.3029 44.8651 21.5347C44.418 21.7666 43.8632 21.8825 43.2008 21.8825ZM43.2008 20.6529C43.6396 20.6529 43.9791 20.5163 44.2192 20.2431C44.4594 19.9616 44.5918 19.5517 44.6167 19.0135C44.6249 18.8893 44.6291 18.7279 44.6291 18.5291C44.6291 18.3304 44.6249 18.169 44.6167 18.0448C44.5918 17.5148 44.4594 17.1091 44.2192 16.8276C43.9791 16.5461 43.6396 16.4053 43.2008 16.4053C42.762 16.4053 42.4225 16.5461 42.1824 16.8276C41.9423 17.1091 41.8098 17.5148 41.7849 18.0448C41.7767 18.169 41.7725 18.3304 41.7725 18.5291C41.7725 18.7279 41.7767 18.8893 41.7849 19.0135C41.8098 19.5517 41.9423 19.9616 42.1824 20.2431C42.4225 20.5163 42.762 20.6529 43.2008 20.6529ZM47.9923 21.7583C47.9096 21.7583 47.8392 21.7293 47.7812 21.6714C47.7233 21.6134 47.6943 21.543 47.6943 21.4602V15.598C47.6943 15.5152 47.7233 15.4449 47.7812 15.3869C47.8392 15.329 47.9096 15.3 47.9923 15.3H49.0232C49.1143 15.3 49.1847 15.329 49.2343 15.3869C49.2923 15.4449 49.3213 15.5152 49.3213 15.598V21.4602C49.3213 21.543 49.2923 21.6134 49.2343 21.6714C49.1847 21.7293 49.1143 21.7583 49.0232 21.7583H47.9923ZM47.9427 14.2319C47.8516 14.2319 47.7771 14.207 47.7191 14.1573C47.6694 14.0994 47.6446 14.0249 47.6446 13.9338V13.0396C47.6446 12.9568 47.6694 12.8864 47.7191 12.8284C47.7771 12.7705 47.8516 12.7415 47.9427 12.7415H49.0729C49.164 12.7415 49.2385 12.7705 49.2964 12.8284C49.3544 12.8864 49.3834 12.9568 49.3834 13.0396V13.9338C49.3834 14.0249 49.3544 14.0994 49.2964 14.1573C49.2385 14.207 49.164 14.2319 49.0729 14.2319H47.9427ZM51.5218 21.7583C51.439 21.7583 51.3686 21.7293 51.3107 21.6714C51.2527 21.6134 51.2237 21.543 51.2237 21.4602V15.598C51.2237 15.5152 51.2527 15.4449 51.3107 15.3869C51.3686 15.329 51.439 15.3 51.5218 15.3H52.5403C52.623 15.3 52.6934 15.329 52.7514 15.3869C52.8093 15.4449 52.8383 15.5152 52.8383 15.598V16.1073C53.0536 15.8423 53.3268 15.6229 53.658 15.449C53.9975 15.2669 54.4156 15.1758 54.9124 15.1758C55.4175 15.1758 55.8564 15.2917 56.229 15.5235C56.6015 15.7471 56.8872 16.0659 57.0859 16.4799C57.2929 16.8939 57.3964 17.3906 57.3964 17.9702V21.4602C57.3964 21.543 57.3674 21.6134 57.3095 21.6714C57.2515 21.7293 57.1811 21.7583 57.0983 21.7583H56.0054C55.9226 21.7583 55.8522 21.7293 55.7943 21.6714C55.7363 21.6134 55.7073 21.543 55.7073 21.4602V18.0448C55.7073 17.5645 55.5873 17.1878 55.3471 16.9146C55.1153 16.6413 54.7758 16.5047 54.3287 16.5047C53.8982 16.5047 53.5545 16.6413 53.2979 16.9146C53.0412 17.1878 52.9128 17.5645 52.9128 18.0448V21.4602C52.9128 21.543 52.8839 21.6134 52.8259 21.6714C52.7679 21.7293 52.6976 21.7583 52.6148 21.7583H51.5218ZM61.8199 21.7583C61.3231 21.7583 60.905 21.6714 60.5655 21.4975C60.226 21.3236 59.9735 21.0669 59.8079 20.7275C59.6423 20.3797 59.5595 19.9491 59.5595 19.4358V16.6165H58.5783C58.4955 16.6165 58.4252 16.5875 58.3672 16.5295C58.3092 16.4716 58.2803 16.4012 58.2803 16.3184V15.598C58.2803 15.5152 58.3092 15.4449 58.3672 15.3869C58.4252 15.329 58.4955 15.3 58.5783 15.3H59.5595V13.2383C59.5595 13.1555 59.5844 13.0851 59.634 13.0271C59.692 12.9692 59.7665 12.9402 59.8576 12.9402H60.8636C60.9464 12.9402 61.0168 12.9692 61.0747 13.0271C61.1327 13.0851 61.1617 13.1555 61.1617 13.2383V15.3H62.7142C62.797 15.3 62.8673 15.329 62.9253 15.3869C62.9833 15.4449 63.0122 15.5152 63.0122 15.598V16.3184C63.0122 16.4012 62.9833 16.4716 62.9253 16.5295C62.8673 16.5875 62.797 16.6165 62.7142 16.6165H61.1617V19.3116C61.1617 19.6511 61.2196 19.916 61.3356 20.1065C61.4598 20.2969 61.6709 20.3921 61.969 20.3921H62.8259C62.9087 20.3921 62.9791 20.4211 63.0371 20.4791C63.095 20.537 63.124 20.6074 63.124 20.6902V21.4602C63.124 21.543 63.095 21.6134 63.0371 21.6714C62.9791 21.7293 62.9087 21.7583 62.8259 21.7583H61.8199ZM66.6725 21.8825C66.1757 21.8825 65.7493 21.8245 65.3933 21.7086C65.0455 21.5927 64.7598 21.4478 64.5363 21.2739C64.3127 21.1 64.1471 20.9262 64.0395 20.7523C63.9319 20.5784 63.8739 20.4335 63.8656 20.3176C63.8573 20.2265 63.8822 20.1561 63.9401 20.1065C64.0064 20.0485 64.0768 20.0195 64.1513 20.0195H65.1324C65.1656 20.0195 65.1945 20.0237 65.2194 20.0319C65.2442 20.0402 65.2773 20.0651 65.3187 20.1065C65.4264 20.1975 65.5382 20.2928 65.6541 20.3921C65.7783 20.4915 65.9232 20.5784 66.0888 20.6529C66.2544 20.7192 66.4614 20.7523 66.7098 20.7523C67.0327 20.7523 67.3018 20.6902 67.5171 20.566C67.7406 20.4335 67.8524 20.2472 67.8524 20.0071C67.8524 19.8332 67.8027 19.6925 67.7034 19.5848C67.6123 19.4772 67.4384 19.382 67.1817 19.2992C66.925 19.2081 66.5607 19.1129 66.0888 19.0135C65.6251 18.9059 65.2401 18.7693 64.9337 18.6037C64.6274 18.4381 64.3997 18.2311 64.2506 17.9827C64.1016 17.7343 64.0271 17.4445 64.0271 17.1133C64.0271 16.7904 64.1223 16.484 64.3127 16.1942C64.5115 15.8961 64.8012 15.6519 65.1821 15.4614C65.5713 15.271 66.0515 15.1758 66.6228 15.1758C67.0699 15.1758 67.4591 15.2337 67.7903 15.3497C68.1215 15.4573 68.3947 15.5939 68.61 15.7595C68.8336 15.9251 69.0033 16.0948 69.1192 16.2687C69.2351 16.4343 69.2972 16.5792 69.3055 16.7034C69.3138 16.7945 69.289 16.869 69.231 16.927C69.173 16.9767 69.1068 17.0015 69.0323 17.0015H68.1132C68.0718 17.0015 68.0346 16.9932 68.0014 16.9767C67.9683 16.9601 67.9352 16.9394 67.9021 16.9146C67.811 16.8318 67.7116 16.7448 67.604 16.6537C67.4964 16.5627 67.3639 16.484 67.2066 16.4178C67.0575 16.3432 66.8588 16.306 66.6104 16.306C66.2958 16.306 66.0557 16.3764 65.8901 16.5171C65.7245 16.6496 65.6417 16.8193 65.6417 17.0263C65.6417 17.1671 65.6789 17.2913 65.7534 17.3989C65.8362 17.4983 65.9977 17.5935 66.2378 17.6846C66.4779 17.7757 66.8422 17.8709 67.3308 17.9702C67.8855 18.0696 68.3243 18.2186 68.6473 18.4174C68.9785 18.6078 69.2103 18.8314 69.3428 19.088C69.4835 19.3364 69.5539 19.6138 69.5539 19.9202C69.5539 20.2928 69.4421 20.6281 69.2186 20.9262C69.0033 21.2242 68.6804 21.4602 68.2498 21.6341C67.8276 21.7997 67.3018 21.8825 66.6725 21.8825Z" fill="#003E5C"/>
</svg>
