<svg width="502" height="361" viewBox="0 0 502 361" fill="none" xmlns="http://www.w3.org/2000/svg">
<line x1="49.2893" y1="72.2064" x2="501.314" y2="72.2064" stroke="#CFD8DC" stroke-width="0.805065" stroke-linecap="round" stroke-dasharray="7.25 7.25"/>
<line x1="49.2893" y1="132.853" x2="501.314" y2="132.853" stroke="#CFD8DC" stroke-width="0.805065" stroke-linecap="round" stroke-dasharray="7.25 7.25"/>
<line x1="49.2893" y1="194.309" x2="501.314" y2="194.309" stroke="#CFD8DC" stroke-width="0.805065" stroke-linecap="round" stroke-dasharray="7.25 7.25"/>
<line x1="49.2893" y1="255.765" x2="501.314" y2="255.765" stroke="#CFD8DC" stroke-width="0.805065" stroke-linecap="round" stroke-dasharray="7.25 7.25"/>
<line x1="49.2893" y1="316.411" x2="501.314" y2="316.411" stroke="#CFD8DC" stroke-width="0.805065" stroke-linecap="round" stroke-dasharray="7.25 7.25"/>
<path d="M30.3957 323.08C29.6658 323.08 29.0539 322.962 28.5602 322.726C28.0771 322.49 27.6853 322.168 27.3848 321.76C27.095 321.341 26.8856 320.863 26.7568 320.327C26.628 319.79 26.5529 319.226 26.5314 318.636C26.5314 318.346 26.526 318.051 26.5153 317.75C26.5153 317.45 26.5153 317.149 26.5153 316.849C26.526 316.537 26.5314 316.232 26.5314 315.931C26.5421 315.341 26.6119 314.777 26.7407 314.24C26.8803 313.704 27.095 313.231 27.3848 312.823C27.6853 312.405 28.0771 312.077 28.5602 311.841C29.0539 311.605 29.6658 311.487 30.3957 311.487C31.1256 311.487 31.7321 311.605 32.2152 311.841C32.7089 312.077 33.1007 312.405 33.3906 312.823C33.6911 313.231 33.9058 313.704 34.0346 314.24C34.1742 314.777 34.2493 315.341 34.26 315.931C34.2708 316.232 34.2761 316.537 34.2761 316.849C34.2761 317.149 34.2761 317.45 34.2761 317.75C34.2761 318.051 34.2708 318.346 34.26 318.636C34.2493 319.226 34.1742 319.79 34.0346 320.327C33.9058 320.863 33.6911 321.341 33.3906 321.76C33.1007 322.168 32.7089 322.49 32.2152 322.726C31.7321 322.962 31.1256 323.08 30.3957 323.08ZM30.3957 322.114C31.3511 322.114 32.0595 321.797 32.5211 321.164C32.9827 320.531 33.2242 319.661 33.2457 318.555C33.2564 318.244 33.2618 317.954 33.2618 317.686C33.2618 317.407 33.2618 317.133 33.2618 316.865C33.2618 316.586 33.2564 316.301 33.2457 316.011C33.2242 314.927 32.9827 314.063 32.5211 313.419C32.0595 312.775 31.3511 312.453 30.3957 312.453C29.4511 312.453 28.7427 312.775 28.2704 313.419C27.8088 314.063 27.5673 314.927 27.5458 316.011C27.5458 316.301 27.5404 316.586 27.5297 316.865C27.5297 317.133 27.5297 317.407 27.5297 317.686C27.5404 317.954 27.5458 318.244 27.5458 318.555C27.5673 319.661 27.8088 320.531 28.2704 321.164C28.7427 321.797 29.4511 322.114 30.3957 322.114Z" fill="#003E5C"/>
<path d="M23.7657 261.624C22.907 261.624 22.1878 261.442 21.6081 261.077C21.0285 260.712 20.5884 260.24 20.2878 259.66C19.998 259.08 19.8531 258.469 19.8531 257.824C19.8531 257.513 19.8853 257.218 19.9497 256.939C20.0248 256.649 20.1161 256.381 20.2234 256.134C20.3308 255.887 20.4381 255.667 20.5455 255.474C20.6635 255.27 20.7709 255.103 20.8675 254.975L24.0394 250.514C24.0931 250.461 24.1521 250.396 24.2166 250.321C24.2917 250.235 24.399 250.192 24.5386 250.192H24.8445C24.9411 250.192 25.0162 250.23 25.0699 250.305C25.1343 250.37 25.1665 250.45 25.1665 250.547C25.1665 250.59 25.1558 250.633 25.1343 250.676C25.1236 250.708 25.1075 250.735 25.086 250.756L22.6708 254.169C22.8211 254.127 22.9982 254.094 23.2022 254.073C23.4061 254.051 23.594 254.041 23.7657 254.041C24.4098 254.041 24.9733 254.148 25.4564 254.363C25.9501 254.567 26.358 254.846 26.6801 255.2C27.0128 255.554 27.2597 255.962 27.4207 256.424C27.5925 256.875 27.6783 257.341 27.6783 257.824C27.6783 258.469 27.5281 259.08 27.2275 259.66C26.9377 260.24 26.5029 260.712 25.9233 261.077C25.3436 261.442 24.6245 261.624 23.7657 261.624ZM23.7657 260.658C24.2702 260.658 24.7425 260.551 25.1826 260.336C25.6227 260.122 25.977 259.805 26.2453 259.386C26.5244 258.957 26.6639 258.436 26.6639 257.824C26.6639 257.213 26.5244 256.697 26.2453 256.279C25.977 255.86 25.6227 255.543 25.1826 255.329C24.7425 255.114 24.2702 255.007 23.7657 255.007C23.2612 255.007 22.7889 255.114 22.3488 255.329C21.9087 255.543 21.5491 255.86 21.27 256.279C21.0017 256.697 20.8675 257.213 20.8675 257.824C20.8675 258.436 21.0017 258.957 21.27 259.386C21.5491 259.805 21.9087 260.122 22.3488 260.336C22.7889 260.551 23.2612 260.658 23.7657 260.658ZM33.2982 261.624C32.5683 261.624 31.9564 261.506 31.4626 261.27C30.9796 261.034 30.5878 260.712 30.2872 260.304C29.9974 259.885 29.7881 259.408 29.6593 258.871C29.5305 258.334 29.4553 257.771 29.4339 257.18C29.4339 256.891 29.4285 256.595 29.4178 256.295C29.4178 255.994 29.4178 255.694 29.4178 255.393C29.4285 255.082 29.4339 254.776 29.4339 254.475C29.4446 253.885 29.5144 253.321 29.6432 252.785C29.7827 252.248 29.9974 251.776 30.2872 251.368C30.5878 250.949 30.9796 250.622 31.4626 250.386C31.9564 250.15 32.5683 250.031 33.2982 250.031C34.0281 250.031 34.6346 250.15 35.1176 250.386C35.6114 250.622 36.0032 250.949 36.293 251.368C36.5936 251.776 36.8083 252.248 36.9371 252.785C37.0766 253.321 37.1518 253.885 37.1625 254.475C37.1732 254.776 37.1786 255.082 37.1786 255.393C37.1786 255.694 37.1786 255.994 37.1786 256.295C37.1786 256.595 37.1732 256.891 37.1625 257.18C37.1518 257.771 37.0766 258.334 36.9371 258.871C36.8083 259.408 36.5936 259.885 36.293 260.304C36.0032 260.712 35.6114 261.034 35.1176 261.27C34.6346 261.506 34.0281 261.624 33.2982 261.624ZM33.2982 260.658C34.2535 260.658 34.962 260.342 35.4236 259.708C35.8851 259.075 36.1266 258.206 36.1481 257.1C36.1588 256.789 36.1642 256.499 36.1642 256.23C36.1642 255.951 36.1642 255.678 36.1642 255.409C36.1642 255.13 36.1588 254.846 36.1481 254.556C36.1266 253.472 35.8851 252.608 35.4236 251.964C34.962 251.32 34.2535 250.998 33.2982 250.998C32.3536 250.998 31.6451 251.32 31.1728 251.964C30.7112 252.608 30.4697 253.472 30.4483 254.556C30.4483 254.846 30.4429 255.13 30.4322 255.409C30.4322 255.678 30.4322 255.951 30.4322 256.23C30.4429 256.499 30.4483 256.789 30.4483 257.1C30.4697 258.206 30.7112 259.075 31.1728 259.708C31.6451 260.342 32.3536 260.658 33.2982 260.658Z" fill="#003E5C"/>
<path d="M20.9855 200.008C20.8781 200.008 20.7922 199.976 20.7278 199.912C20.6634 199.847 20.6312 199.761 20.6312 199.654V190.058L17.7491 192.28C17.6632 192.344 17.572 192.371 17.4754 192.36C17.3895 192.349 17.3144 192.301 17.25 192.215L17.0728 191.99C17.0084 191.904 16.9816 191.818 16.9923 191.732C17.0031 191.636 17.0514 191.555 17.1373 191.491L20.5668 188.85C20.642 188.796 20.7117 188.764 20.7761 188.753C20.8406 188.743 20.9103 188.737 20.9855 188.737H21.2914C21.3987 188.737 21.4846 188.77 21.549 188.834C21.6134 188.898 21.6456 188.984 21.6456 189.092V199.654C21.6456 199.761 21.6134 199.847 21.549 199.912C21.4846 199.976 21.3987 200.008 21.2914 200.008H20.9855ZM24.1484 200.008C24.041 200.008 23.9551 199.976 23.8907 199.912C23.8263 199.847 23.7941 199.761 23.7941 199.654V199.413C23.7941 199.305 23.821 199.203 23.8746 199.107C23.939 198.999 24.0464 198.876 24.1967 198.736L28.3669 194.566C28.7748 194.19 29.0861 193.863 29.3008 193.584C29.5155 193.305 29.6604 193.031 29.7355 192.763C29.8214 192.484 29.8643 192.178 29.8643 191.845C29.8643 191.126 29.655 190.562 29.2364 190.154C28.8285 189.746 28.2435 189.542 27.4813 189.542C26.9983 189.542 26.5797 189.639 26.2254 189.832C25.8712 190.025 25.5921 190.299 25.3882 190.653C25.1842 190.997 25.05 191.399 24.9856 191.861C24.9749 191.99 24.9266 192.086 24.8407 192.151C24.7548 192.205 24.6797 192.231 24.6153 192.231H24.2933C24.1859 192.231 24.1001 192.205 24.0357 192.151C23.982 192.086 23.9551 192.011 23.9551 191.925C23.9659 191.56 24.041 191.185 24.1806 190.798C24.3201 190.401 24.5294 190.036 24.8085 189.703C25.0983 189.371 25.4633 189.102 25.9034 188.898C26.3435 188.684 26.8695 188.576 27.4813 188.576C28.2971 188.576 28.9519 188.732 29.4457 189.043C29.9502 189.355 30.3152 189.757 30.5406 190.251C30.766 190.745 30.8787 191.276 30.8787 191.845C30.8787 192.285 30.8143 192.693 30.6855 193.069C30.5567 193.434 30.3635 193.793 30.1058 194.147C29.8482 194.491 29.5208 194.845 29.1237 195.21L25.356 199.042H30.7499C30.868 199.042 30.9592 199.074 31.0236 199.139C31.088 199.203 31.1202 199.294 31.1202 199.413V199.654C31.1202 199.761 31.088 199.847 31.0236 199.912C30.9592 199.976 30.868 200.008 30.7499 200.008H24.1484ZM36.9259 200.169C36.1959 200.169 35.5841 200.051 35.0903 199.815C34.6073 199.579 34.2155 199.257 33.9149 198.849C33.6251 198.43 33.4158 197.953 33.287 197.416C33.1582 196.879 33.083 196.316 33.0616 195.725C33.0616 195.436 33.0562 195.14 33.0455 194.84C33.0455 194.539 33.0455 194.239 33.0455 193.938C33.0562 193.627 33.0616 193.321 33.0616 193.02C33.0723 192.43 33.1421 191.866 33.2709 191.33C33.4104 190.793 33.6251 190.321 33.9149 189.913C34.2155 189.494 34.6073 189.167 35.0903 188.931C35.5841 188.694 36.1959 188.576 36.9259 188.576C37.6558 188.576 38.2623 188.694 38.7453 188.931C39.2391 189.167 39.6309 189.494 39.9207 189.913C40.2213 190.321 40.436 190.793 40.5648 191.33C40.7043 191.866 40.7794 192.43 40.7902 193.02C40.8009 193.321 40.8063 193.627 40.8063 193.938C40.8063 194.239 40.8063 194.539 40.8063 194.84C40.8063 195.14 40.8009 195.436 40.7902 195.725C40.7794 196.316 40.7043 196.879 40.5648 197.416C40.436 197.953 40.2213 198.43 39.9207 198.849C39.6309 199.257 39.2391 199.579 38.7453 199.815C38.2623 200.051 37.6558 200.169 36.9259 200.169ZM36.9259 199.203C37.8812 199.203 38.5897 198.887 39.0512 198.253C39.5128 197.62 39.7543 196.75 39.7758 195.645C39.7865 195.334 39.7919 195.044 39.7919 194.775C39.7919 194.496 39.7919 194.223 39.7919 193.954C39.7919 193.675 39.7865 193.391 39.7758 193.101C39.7543 192.017 39.5128 191.153 39.0512 190.509C38.5897 189.864 37.8812 189.542 36.9259 189.542C35.9813 189.542 35.2728 189.864 34.8005 190.509C34.3389 191.153 34.0974 192.017 34.0759 193.101C34.0759 193.391 34.0706 193.675 34.0598 193.954C34.0598 194.223 34.0598 194.496 34.0598 194.775C34.0706 195.044 34.0759 195.334 34.0759 195.645C34.0974 196.75 34.3389 197.62 34.8005 198.253C35.2728 198.887 35.9813 199.203 36.9259 199.203Z" fill="#003E5C"/>
<path d="M20.9855 138.553C20.8781 138.553 20.7922 138.521 20.7278 138.456C20.6634 138.392 20.6312 138.306 20.6312 138.199V128.602L17.7491 130.824C17.6632 130.889 17.572 130.915 17.4754 130.905C17.3895 130.894 17.3144 130.846 17.25 130.76L17.0728 130.534C17.0084 130.448 16.9816 130.363 16.9923 130.277C17.0031 130.18 17.0514 130.1 17.1373 130.035L20.5668 127.395C20.642 127.341 20.7117 127.309 20.7761 127.298C20.8406 127.287 20.9103 127.282 20.9855 127.282H21.2914C21.3987 127.282 21.4846 127.314 21.549 127.378C21.6134 127.443 21.6456 127.529 21.6456 127.636V138.199C21.6456 138.306 21.6134 138.392 21.549 138.456C21.4846 138.521 21.3987 138.553 21.2914 138.553H20.9855ZM27.9322 138.714C27.3847 138.714 26.8641 138.644 26.3703 138.504C25.8873 138.354 25.4633 138.139 25.0983 137.86C24.7334 137.571 24.4436 137.222 24.2289 136.814C24.0249 136.395 23.9229 135.917 23.9229 135.381C23.9229 134.694 24.0893 134.114 24.4221 133.642C24.7548 133.159 25.1949 132.788 25.7424 132.531C25.313 132.284 24.9695 131.957 24.7119 131.549C24.4543 131.141 24.3255 130.652 24.3255 130.083C24.3255 129.429 24.4865 128.887 24.8085 128.457C25.1305 128.017 25.5653 127.684 26.1127 127.459C26.6602 127.234 27.2666 127.121 27.9322 127.121C28.5977 127.121 29.2042 127.234 29.7516 127.459C30.2991 127.684 30.7338 128.017 31.0558 128.457C31.3778 128.887 31.5389 129.429 31.5389 130.083C31.5389 130.652 31.41 131.141 31.1524 131.549C30.8948 131.957 30.5513 132.284 30.1219 132.531C30.6694 132.788 31.1095 133.159 31.4422 133.642C31.775 134.114 31.9414 134.694 31.9414 135.381C31.9414 136.1 31.7589 136.706 31.3939 137.2C31.0397 137.694 30.5567 138.07 29.9448 138.327C29.3437 138.585 28.6728 138.714 27.9322 138.714ZM27.9322 137.748C28.4903 137.748 28.9949 137.651 29.4457 137.458C29.8965 137.265 30.2561 136.991 30.5245 136.637C30.7928 136.282 30.927 135.864 30.927 135.381C30.927 134.887 30.7928 134.468 30.5245 134.125C30.2561 133.771 29.8965 133.502 29.4457 133.32C28.9949 133.127 28.4903 133.03 27.9322 133.03C27.3847 133.03 26.8802 133.127 26.4186 133.32C25.9678 133.502 25.6082 133.771 25.3399 134.125C25.0715 134.468 24.9373 134.887 24.9373 135.381C24.9373 135.864 25.0715 136.282 25.3399 136.637C25.6082 136.991 25.9678 137.265 26.4186 137.458C26.8802 137.651 27.3847 137.748 27.9322 137.748ZM27.9322 132.064C28.3937 132.053 28.8177 131.967 29.2042 131.806C29.6013 131.645 29.918 131.42 30.1541 131.13C30.401 130.84 30.5245 130.491 30.5245 130.083C30.5245 129.665 30.4064 129.311 30.1702 129.021C29.9448 128.72 29.6335 128.489 29.2364 128.328C28.8499 128.167 28.4152 128.087 27.9322 128.087C27.4599 128.087 27.0251 128.167 26.628 128.328C26.2308 128.489 25.9141 128.72 25.678 129.021C25.4526 129.311 25.3399 129.665 25.3399 130.083C25.3399 130.502 25.4526 130.862 25.678 131.162C25.9141 131.452 26.2308 131.677 26.628 131.838C27.0251 131.989 27.4599 132.064 27.9322 132.064ZM37.8693 138.714C37.1394 138.714 36.5275 138.596 36.0338 138.36C35.5507 138.123 35.1589 137.801 34.8584 137.393C34.5685 136.975 34.3592 136.497 34.2304 135.96C34.1016 135.424 34.0265 134.86 34.005 134.27C34.005 133.98 33.9996 133.685 33.9889 133.384C33.9889 133.084 33.9889 132.783 33.9889 132.483C33.9996 132.171 34.005 131.865 34.005 131.565C34.0157 130.974 34.0855 130.411 34.2143 129.874C34.3539 129.337 34.5685 128.865 34.8584 128.457C35.1589 128.039 35.5507 127.711 36.0338 127.475C36.5275 127.239 37.1394 127.121 37.8693 127.121C38.5992 127.121 39.2057 127.239 39.6888 127.475C40.1825 127.711 40.5743 128.039 40.8641 128.457C41.1647 128.865 41.3794 129.337 41.5082 129.874C41.6477 130.411 41.7229 130.974 41.7336 131.565C41.7444 131.865 41.7497 132.171 41.7497 132.483C41.7497 132.783 41.7497 133.084 41.7497 133.384C41.7497 133.685 41.7444 133.98 41.7336 134.27C41.7229 134.86 41.6477 135.424 41.5082 135.96C41.3794 136.497 41.1647 136.975 40.8641 137.393C40.5743 137.801 40.1825 138.123 39.6888 138.36C39.2057 138.596 38.5992 138.714 37.8693 138.714ZM37.8693 137.748C38.8246 137.748 39.5331 137.431 39.9947 136.798C40.4562 136.164 40.6978 135.295 40.7192 134.189C40.73 133.878 40.7353 133.588 40.7353 133.32C40.7353 133.041 40.7353 132.767 40.7353 132.499C40.7353 132.22 40.73 131.935 40.7192 131.645C40.6978 130.561 40.4562 129.697 39.9947 129.053C39.5331 128.409 38.8246 128.087 37.8693 128.087C36.9247 128.087 36.2162 128.409 35.7439 129.053C35.2824 129.697 35.0408 130.561 35.0194 131.645C35.0194 131.935 35.014 132.22 35.0033 132.499C35.0033 132.767 35.0033 133.041 35.0033 133.32C35.014 133.588 35.0194 133.878 35.0194 134.189C35.0408 135.295 35.2824 136.164 35.7439 136.798C36.2162 137.431 36.9247 137.748 37.8693 137.748Z" fill="#003E5C"/>
<path d="M16.9244 77.0967C16.8171 77.0967 16.7312 77.0645 16.6668 77.0001C16.6024 76.9357 16.5702 76.8498 16.5702 76.7425V76.5009C16.5702 76.3936 16.597 76.2916 16.6507 76.195C16.7151 76.0877 16.8224 75.9642 16.9727 75.8247L21.1429 71.6544C21.5508 71.2787 21.8621 70.9514 22.0768 70.6723C22.2915 70.3932 22.4364 70.1195 22.5116 69.8511C22.5974 69.572 22.6404 69.2661 22.6404 68.9333C22.6404 68.2141 22.431 67.6506 22.0124 67.2427C21.6045 66.8348 21.0195 66.6308 20.2574 66.6308C19.7743 66.6308 19.3557 66.7274 19.0015 66.9207C18.6472 67.1139 18.3682 67.3876 18.1642 67.7418C17.9603 68.0853 17.8261 68.4879 17.7617 68.9494C17.7509 69.0782 17.7026 69.1748 17.6168 69.2392C17.5309 69.2929 17.4557 69.3198 17.3913 69.3198H17.0693C16.962 69.3198 16.8761 69.2929 16.8117 69.2392C16.758 69.1748 16.7312 69.0997 16.7312 69.0138C16.7419 68.6489 16.8171 68.2732 16.9566 67.8867C17.0962 67.4896 17.3055 67.1246 17.5846 66.7918C17.8744 66.4591 18.2393 66.1907 18.6794 65.9868C19.1195 65.7721 19.6455 65.6648 20.2574 65.6648C21.0732 65.6648 21.728 65.8204 22.2217 66.1317C22.7262 66.443 23.0912 66.8455 23.3166 67.3393C23.542 67.8331 23.6547 68.3644 23.6547 68.9333C23.6547 69.3734 23.5903 69.7813 23.4615 70.157C23.3327 70.522 23.1395 70.8816 22.8819 71.2358C22.6243 71.5793 22.2969 71.9335 21.8997 72.2985L18.132 76.1306H23.5259C23.644 76.1306 23.7353 76.1628 23.7997 76.2272C23.8641 76.2916 23.8963 76.3829 23.8963 76.5009V76.7425C23.8963 76.8498 23.8641 76.9357 23.7997 77.0001C23.7353 77.0645 23.644 77.0967 23.5259 77.0967H16.9244ZM31.0912 77.0967C30.9838 77.0967 30.8979 77.0645 30.8335 77.0001C30.7691 76.9357 30.7369 76.8498 30.7369 76.7425V74.1984H25.4235C25.3162 74.1984 25.2303 74.1662 25.1659 74.1018C25.1015 74.0374 25.0693 73.9516 25.0693 73.8442V73.5866C25.0693 73.5651 25.08 73.5061 25.1015 73.4095C25.1229 73.3129 25.1712 73.2109 25.2464 73.1036L30.1412 66.0995C30.27 65.917 30.4686 65.8258 30.7369 65.8258H31.3971C31.5044 65.8258 31.5903 65.858 31.6547 65.9224C31.7191 65.9868 31.7513 66.0727 31.7513 66.18V73.2324H33.2165C33.3239 73.2324 33.4097 73.2646 33.4741 73.329C33.5386 73.3934 33.5708 73.4793 33.5708 73.5866V73.8442C33.5708 73.9516 33.5386 74.0374 33.4741 74.1018C33.4097 74.1662 33.3239 74.1984 33.2165 74.1984H31.7513V76.7425C31.7513 76.8498 31.7191 76.9357 31.6547 77.0001C31.5903 77.0645 31.5044 77.0967 31.3971 77.0967H31.0912ZM26.3413 73.2324H30.7369V66.969L26.3413 73.2324ZM39.0891 77.2577C38.3592 77.2577 37.7473 77.1396 37.2535 76.9035C36.7705 76.6673 36.3787 76.3453 36.0782 75.9374C35.7883 75.5188 35.579 75.0411 35.4502 74.5044C35.3214 73.9677 35.2463 73.4041 35.2248 72.8137C35.2248 72.5239 35.2194 72.2287 35.2087 71.9282C35.2087 71.6276 35.2087 71.327 35.2087 71.0265C35.2194 70.7152 35.2248 70.4093 35.2248 70.1087C35.2355 69.5183 35.3053 68.9548 35.4341 68.4181C35.5736 67.8814 35.7883 67.4091 36.0782 67.0012C36.3787 66.5825 36.7705 66.2551 37.2535 66.019C37.7473 65.7828 38.3592 65.6648 39.0891 65.6648C39.819 65.6648 40.4255 65.7828 40.9085 66.019C41.4023 66.2551 41.7941 66.5825 42.0839 67.0012C42.3845 67.4091 42.5992 67.8814 42.728 68.4181C42.8675 68.9548 42.9427 69.5183 42.9534 70.1087C42.9641 70.4093 42.9695 70.7152 42.9695 71.0265C42.9695 71.327 42.9695 71.6276 42.9695 71.9282C42.9695 72.2287 42.9641 72.5239 42.9534 72.8137C42.9427 73.4041 42.8675 73.9677 42.728 74.5044C42.5992 75.0411 42.3845 75.5188 42.0839 75.9374C41.7941 76.3453 41.4023 76.6673 40.9085 76.9035C40.4255 77.1396 39.819 77.2577 39.0891 77.2577ZM39.0891 76.2916C40.0444 76.2916 40.7529 75.975 41.2145 75.3416C41.676 74.7083 41.9176 73.8389 41.939 72.7332C41.9498 72.4219 41.9551 72.1321 41.9551 71.8638C41.9551 71.5847 41.9551 71.3109 41.9551 71.0426C41.9551 70.7635 41.9498 70.479 41.939 70.1892C41.9176 69.1051 41.676 68.241 41.2145 67.5969C40.7529 66.9529 40.0444 66.6308 39.0891 66.6308C38.1445 66.6308 37.436 66.9529 36.9637 67.5969C36.5022 68.241 36.2606 69.1051 36.2392 70.1892C36.2392 70.479 36.2338 70.7635 36.2231 71.0426C36.2231 71.3109 36.2231 71.5847 36.2231 71.8638C36.2338 72.1321 36.2392 72.4219 36.2392 72.7332C36.2606 73.8389 36.5022 74.7083 36.9637 75.3416C37.436 75.975 38.1445 76.2916 39.0891 76.2916Z" fill="#003E5C"/>
<path d="M185.544 290.902C185.544 286.456 189.149 282.852 193.595 282.852H226.82C231.266 282.852 234.871 286.456 234.871 290.902V316.814H185.544V290.902Z" fill="#037CBF"/>
<path d="M132.984 141.306C132.984 136.86 136.588 133.256 141.034 133.256H174.259C178.705 133.256 182.31 136.86 182.31 141.307V316.814H132.984V141.306Z" fill="#EF7D00"/>
<path d="M161.97 353.326H150.57V351.563L155.087 346.998C155.956 346.129 156.689 345.356 157.285 344.68C157.88 344.004 158.331 343.343 158.637 342.699C158.943 342.039 159.096 341.323 159.096 340.55C159.096 339.6 158.814 338.883 158.251 338.4C157.687 337.901 156.955 337.652 156.053 337.652C155.216 337.652 154.475 337.796 153.831 338.086C153.203 338.376 152.559 338.779 151.899 339.294L150.764 337.869C151.215 337.482 151.706 337.136 152.237 336.83C152.784 336.524 153.372 336.283 154 336.106C154.644 335.929 155.328 335.84 156.053 335.84C157.132 335.84 158.058 336.025 158.83 336.396C159.603 336.766 160.199 337.297 160.618 337.99C161.052 338.666 161.27 339.479 161.27 340.429C161.27 341.105 161.165 341.749 160.956 342.361C160.746 342.957 160.449 343.545 160.062 344.124C159.676 344.704 159.209 345.292 158.661 345.887C158.114 346.483 157.51 347.103 156.85 347.747L153.251 351.297V351.394H161.97V353.326ZM175.864 344.68C175.864 346.081 175.759 347.328 175.55 348.423C175.341 349.518 175.003 350.452 174.536 351.225C174.085 351.982 173.489 352.561 172.748 352.964C172.024 353.366 171.146 353.568 170.116 353.568C168.828 353.568 167.757 353.213 166.904 352.505C166.066 351.797 165.438 350.782 165.02 349.462C164.617 348.125 164.416 346.531 164.416 344.68C164.416 342.812 164.601 341.218 164.971 339.898C165.358 338.577 165.97 337.571 166.807 336.879C167.644 336.17 168.747 335.816 170.116 335.816C171.404 335.816 172.475 336.17 173.328 336.879C174.181 337.571 174.817 338.577 175.236 339.898C175.655 341.218 175.864 342.812 175.864 344.68ZM166.541 344.68C166.541 346.258 166.654 347.57 166.879 348.617C167.121 349.663 167.499 350.452 168.015 350.983C168.546 351.499 169.246 351.756 170.116 351.756C170.985 351.756 171.678 351.499 172.193 350.983C172.724 350.468 173.111 349.687 173.352 348.641C173.594 347.578 173.714 346.258 173.714 344.68C173.714 343.102 173.594 341.798 173.352 340.767C173.111 339.721 172.724 338.94 172.193 338.424C171.678 337.893 170.985 337.627 170.116 337.627C169.246 337.627 168.546 337.893 168.015 338.424C167.499 338.94 167.121 339.721 166.879 340.767C166.654 341.798 166.541 343.102 166.541 344.68ZM185.628 353.326H183.551V341.274C183.551 340.807 183.551 340.413 183.551 340.091C183.567 339.769 183.583 339.471 183.599 339.197C183.615 338.907 183.631 338.61 183.647 338.304C183.39 338.561 183.156 338.779 182.947 338.956C182.738 339.133 182.472 339.358 182.15 339.632L180.314 341.129L179.203 339.704L183.865 336.082H185.628V353.326ZM197.758 335.84C198.773 335.84 199.666 336.001 200.439 336.323C201.212 336.629 201.816 337.088 202.251 337.7C202.702 338.312 202.927 339.068 202.927 339.97C202.927 340.663 202.774 341.266 202.468 341.782C202.178 342.297 201.784 342.756 201.285 343.158C200.786 343.545 200.238 343.891 199.642 344.197C200.351 344.535 200.995 344.921 201.574 345.356C202.154 345.775 202.613 346.266 202.951 346.829C203.305 347.393 203.482 348.069 203.482 348.858C203.482 349.824 203.249 350.661 202.782 351.37C202.315 352.062 201.655 352.602 200.802 352.988C199.964 353.374 198.974 353.568 197.831 353.568C196.591 353.568 195.536 353.383 194.667 353.012C193.814 352.642 193.162 352.119 192.711 351.442C192.276 350.75 192.059 349.913 192.059 348.931C192.059 348.142 192.22 347.457 192.542 346.878C192.88 346.298 193.323 345.799 193.87 345.38C194.417 344.962 195.005 344.607 195.633 344.317C195.07 343.995 194.554 343.633 194.087 343.231C193.637 342.812 193.274 342.337 193.001 341.806C192.743 341.274 192.614 340.654 192.614 339.946C192.614 339.06 192.84 338.32 193.29 337.724C193.741 337.112 194.353 336.645 195.126 336.323C195.899 336.001 196.776 335.84 197.758 335.84ZM194.136 348.955C194.136 349.792 194.434 350.492 195.029 351.056C195.625 351.603 196.543 351.877 197.783 351.877C198.572 351.877 199.232 351.748 199.763 351.491C200.294 351.233 200.697 350.879 200.971 350.428C201.26 349.977 201.405 349.462 201.405 348.882C201.405 348.319 201.252 347.828 200.947 347.409C200.657 346.974 200.238 346.588 199.691 346.25C199.159 345.912 198.523 345.606 197.783 345.332L197.396 345.187C196.688 345.493 196.092 345.823 195.609 346.177C195.126 346.531 194.756 346.934 194.498 347.385C194.256 347.836 194.136 348.359 194.136 348.955ZM197.734 337.555C196.849 337.555 196.116 337.772 195.536 338.207C194.973 338.626 194.691 339.238 194.691 340.043C194.691 340.638 194.828 341.137 195.102 341.54C195.392 341.943 195.778 342.289 196.261 342.579C196.744 342.852 197.275 343.118 197.855 343.376C198.419 343.134 198.918 342.868 199.352 342.579C199.803 342.289 200.158 341.943 200.415 341.54C200.689 341.121 200.826 340.622 200.826 340.043C200.826 339.238 200.544 338.626 199.98 338.207C199.417 337.772 198.668 337.555 197.734 337.555Z" fill="#003E5C"/>
<path d="M376.256 353.326H364.856V351.563L369.373 346.998C370.242 346.129 370.975 345.356 371.57 344.68C372.166 344.004 372.617 343.343 372.923 342.699C373.229 342.039 373.382 341.323 373.382 340.55C373.382 339.6 373.1 338.883 372.536 338.4C371.973 337.901 371.24 337.652 370.339 337.652C369.501 337.652 368.761 337.796 368.117 338.086C367.489 338.376 366.845 338.779 366.184 339.294L365.049 337.869C365.5 337.482 365.991 337.136 366.523 336.83C367.07 336.524 367.658 336.283 368.286 336.106C368.93 335.929 369.614 335.84 370.339 335.84C371.417 335.84 372.343 336.025 373.116 336.396C373.889 336.766 374.485 337.297 374.903 337.99C375.338 338.666 375.555 339.479 375.555 340.429C375.555 341.105 375.451 341.749 375.241 342.361C375.032 342.957 374.734 343.545 374.348 344.124C373.961 344.704 373.494 345.292 372.947 345.887C372.4 346.483 371.796 347.103 371.136 347.747L367.537 351.297V351.394H376.256V353.326ZM390.15 344.68C390.15 346.081 390.045 347.328 389.836 348.423C389.626 349.518 389.288 350.452 388.821 351.225C388.37 351.982 387.775 352.561 387.034 352.964C386.309 353.366 385.432 353.568 384.401 353.568C383.113 353.568 382.043 353.213 381.189 352.505C380.352 351.797 379.724 350.782 379.305 349.462C378.903 348.125 378.702 346.531 378.702 344.68C378.702 342.812 378.887 341.218 379.257 339.898C379.644 338.577 380.255 337.571 381.093 336.879C381.93 336.17 383.033 335.816 384.401 335.816C385.69 335.816 386.76 336.17 387.614 336.879C388.467 337.571 389.103 338.577 389.522 339.898C389.94 341.218 390.15 342.812 390.15 344.68ZM380.827 344.68C380.827 346.258 380.94 347.57 381.165 348.617C381.407 349.663 381.785 350.452 382.3 350.983C382.832 351.499 383.532 351.756 384.401 351.756C385.271 351.756 385.963 351.499 386.479 350.983C387.01 350.468 387.396 349.687 387.638 348.641C387.879 347.578 388 346.258 388 344.68C388 343.102 387.879 341.798 387.638 340.767C387.396 339.721 387.01 338.94 386.479 338.424C385.963 337.893 385.271 337.627 384.401 337.627C383.532 337.627 382.832 337.893 382.3 338.424C381.785 338.94 381.407 339.721 381.165 340.767C380.94 341.798 380.827 343.102 380.827 344.68ZM399.913 353.326H397.836V341.274C397.836 340.807 397.836 340.413 397.836 340.091C397.852 339.769 397.869 339.471 397.885 339.197C397.901 338.907 397.917 338.61 397.933 338.304C397.675 338.561 397.442 338.779 397.233 338.956C397.023 339.133 396.758 339.358 396.436 339.632L394.6 341.129L393.489 339.704L398.15 336.082H399.913V353.326ZM417.72 343.448C417.72 344.43 417.647 345.412 417.502 346.395C417.374 347.361 417.14 348.278 416.802 349.148C416.464 350.001 415.997 350.766 415.401 351.442C414.805 352.102 414.049 352.626 413.131 353.012C412.213 353.383 411.102 353.568 409.798 353.568C409.476 353.568 409.098 353.544 408.663 353.495C408.244 353.463 407.898 353.407 407.624 353.326V351.515C407.914 351.611 408.252 351.692 408.639 351.756C409.025 351.805 409.395 351.829 409.75 351.829C410.877 351.829 411.803 351.644 412.527 351.273C413.268 350.903 413.855 350.404 414.29 349.776C414.725 349.132 415.039 348.391 415.232 347.554C415.425 346.7 415.538 345.807 415.57 344.873H415.425C415.184 345.243 414.878 345.581 414.508 345.887C414.137 346.193 413.686 346.435 413.155 346.612C412.64 346.789 412.028 346.878 411.32 346.878C410.337 346.878 409.468 346.676 408.711 346.274C407.97 345.855 407.391 345.259 406.972 344.487C406.57 343.714 406.368 342.772 406.368 341.661C406.368 340.453 406.594 339.415 407.045 338.545C407.512 337.676 408.156 337.008 408.977 336.541C409.798 336.074 410.764 335.84 411.875 335.84C412.696 335.84 413.461 336.001 414.169 336.323C414.878 336.629 415.498 337.096 416.029 337.724C416.561 338.352 416.971 339.141 417.261 340.091C417.567 341.041 417.72 342.16 417.72 343.448ZM411.875 337.627C410.877 337.627 410.056 337.957 409.412 338.618C408.784 339.278 408.47 340.284 408.47 341.637C408.47 342.748 408.735 343.625 409.267 344.269C409.814 344.897 410.651 345.211 411.778 345.211C412.551 345.211 413.219 345.058 413.783 344.752C414.347 344.43 414.781 344.028 415.087 343.545C415.409 343.062 415.57 342.562 415.57 342.047C415.57 341.532 415.49 341.017 415.329 340.501C415.184 339.97 414.958 339.487 414.653 339.052C414.347 338.618 413.96 338.271 413.493 338.014C413.026 337.756 412.487 337.627 411.875 337.627Z" fill="#003E5C"/>
<path d="M5.69867 42.4872C4.72186 42.4872 3.92216 42.2993 3.29958 41.9236C2.68773 41.5372 2.23152 41.0166 1.93097 40.3618C1.63041 39.707 1.46403 38.961 1.43183 38.1237C1.42109 37.6836 1.41572 37.2113 1.41572 36.7068C1.41572 36.2023 1.42109 35.7193 1.43183 35.2577C1.46403 34.4204 1.63041 33.6744 1.93097 33.0196C2.23152 32.3541 2.68773 31.8335 3.29958 31.4578C3.92216 31.0821 4.72186 30.8943 5.69867 30.8943C6.4608 30.8943 7.11022 31.0016 7.64693 31.2163C8.18364 31.431 8.61837 31.7154 8.95113 32.0696C9.29463 32.4131 9.54688 32.7888 9.70789 33.1967C9.87964 33.5939 9.97625 33.9857 9.99772 34.3721C10.0085 34.4687 9.97625 34.5492 9.90111 34.6137C9.8367 34.6673 9.7562 34.6942 9.65959 34.6942H9.33756C9.25169 34.6942 9.17655 34.6727 9.11214 34.6298C9.04774 34.5761 9.0048 34.4848 8.98333 34.356C8.77938 33.4007 8.39295 32.7459 7.82404 32.3917C7.26586 32.0374 6.55741 31.8603 5.69867 31.8603C4.72186 31.8603 3.94363 32.1394 3.36398 32.6976C2.79507 33.245 2.48914 34.1252 2.44621 35.3382C2.41401 36.2184 2.41401 37.1201 2.44621 38.0432C2.48914 39.2562 2.79507 40.1418 3.36398 40.6999C3.94363 41.2474 4.72186 41.5211 5.69867 41.5211C6.55741 41.5211 7.26586 41.344 7.82404 40.9898C8.39295 40.6355 8.77938 39.9807 8.98333 39.0254C9.0048 38.8966 9.04774 38.8107 9.11214 38.7678C9.17655 38.7141 9.25169 38.6873 9.33756 38.6873H9.65959C9.7562 38.6873 9.8367 38.7195 9.90111 38.7839C9.97625 38.8376 10.0085 38.9127 9.99772 39.0093C9.97625 39.3957 9.87964 39.7929 9.70789 40.2008C9.54688 40.598 9.29463 40.9737 8.95113 41.3279C8.61837 41.6714 8.18364 41.9505 7.64693 42.1652C7.11022 42.3798 6.4608 42.4872 5.69867 42.4872ZM12.5315 42.3262C12.4242 42.3262 12.3383 42.294 12.2739 42.2296C12.2095 42.1652 12.1773 42.0793 12.1773 41.9719V31.2485C12.1773 31.1411 12.2095 31.0553 12.2739 30.9909C12.3383 30.9265 12.4242 30.8943 12.5315 30.8943H12.8053C12.9126 30.8943 12.9985 30.9265 13.0629 30.9909C13.1273 31.0553 13.1595 31.1411 13.1595 31.2485V35.0645C13.4493 34.6888 13.7982 34.3829 14.2061 34.1467C14.6247 33.9106 15.1775 33.7925 15.8645 33.7925C16.5944 33.7925 17.2009 33.9535 17.6839 34.2755C18.1777 34.5868 18.5427 35.0162 18.7788 35.5636C19.0257 36.1003 19.1492 36.7122 19.1492 37.3992V41.9719C19.1492 42.0793 19.117 42.1652 19.0526 42.2296C18.9882 42.294 18.9023 42.3262 18.7949 42.3262H18.5212C18.4139 42.3262 18.328 42.294 18.2636 42.2296C18.1992 42.1652 18.167 42.0793 18.167 41.9719V37.4797C18.167 36.6209 17.9577 35.9501 17.539 35.467C17.1204 34.9732 16.5086 34.7264 15.7035 34.7264C14.9414 34.7264 14.3241 34.9732 13.8518 35.467C13.3903 35.9501 13.1595 36.6209 13.1595 37.4797V41.9719C13.1595 42.0793 13.1273 42.1652 13.0629 42.2296C12.9985 42.294 12.9126 42.3262 12.8053 42.3262H12.5315ZM24.8139 42.4872C24.084 42.4872 23.4775 42.3315 22.9945 42.0202C22.5222 41.6982 22.1679 41.2635 21.9318 40.716C21.7064 40.1686 21.5937 39.5567 21.5937 38.8805V34.3077C21.5937 34.2004 21.6259 34.1145 21.6903 34.0501C21.7547 33.9857 21.8406 33.9535 21.9479 33.9535H22.2216C22.329 33.9535 22.4148 33.9857 22.4792 34.0501C22.5436 34.1145 22.5758 34.2004 22.5758 34.3077V38.8C22.5758 40.6355 23.3755 41.5533 24.9749 41.5533C25.7371 41.5533 26.3489 41.3118 26.8105 40.8288C27.2721 40.335 27.5028 39.6587 27.5028 38.8V34.3077C27.5028 34.2004 27.535 34.1145 27.5995 34.0501C27.6639 33.9857 27.7497 33.9535 27.8571 33.9535H28.1308C28.2381 33.9535 28.324 33.9857 28.3884 34.0501C28.4528 34.1145 28.485 34.2004 28.485 34.3077V41.9719C28.485 42.0793 28.4528 42.1652 28.3884 42.2296C28.324 42.294 28.2381 42.3262 28.1308 42.3262H27.8571C27.7497 42.3262 27.6639 42.294 27.5995 42.2296C27.535 42.1652 27.5028 42.0793 27.5028 41.9719V41.2152C27.213 41.5909 26.8642 41.8968 26.4563 42.133C26.0591 42.3691 25.5116 42.4872 24.8139 42.4872ZM33.9105 42.3262C33.3524 42.3262 32.9122 42.2081 32.5902 41.9719C32.2682 41.7358 32.0428 41.4138 31.914 41.0059C31.7852 40.598 31.7208 40.1418 31.7208 39.6373V34.8874H30.4649C30.3575 34.8874 30.2716 34.8552 30.2072 34.7908C30.1428 34.7264 30.1106 34.6405 30.1106 34.5331V34.3077C30.1106 34.2004 30.1428 34.1145 30.2072 34.0501C30.2716 33.9857 30.3575 33.9535 30.4649 33.9535H31.7208V31.2485C31.7208 31.1411 31.753 31.0553 31.8174 30.9909C31.8818 30.9265 31.9676 30.8943 32.075 30.8943H32.3487C32.456 30.8943 32.5419 30.9265 32.6063 30.9909C32.6707 31.0553 32.7029 31.1411 32.7029 31.2485V33.9535H34.6995C34.8068 33.9535 34.8927 33.9857 34.9571 34.0501C35.0215 34.1145 35.0537 34.2004 35.0537 34.3077V34.5331C35.0537 34.6405 35.0215 34.7264 34.9571 34.7908C34.8927 34.8552 34.8068 34.8874 34.6995 34.8874H32.7029V39.5729C32.7029 40.1418 32.7942 40.5872 32.9767 40.9093C33.1699 41.2313 33.508 41.3923 33.991 41.3923H34.8605C34.9678 41.3923 35.0537 41.4245 35.1181 41.4889C35.1825 41.5533 35.2147 41.6392 35.2147 41.7465V41.9719C35.2147 42.0793 35.1825 42.1652 35.1181 42.2296C35.0537 42.294 34.9678 42.3262 34.8605 42.3262H33.9105ZM39.9868 42.4872C38.9455 42.4872 38.119 42.1491 37.5072 41.4728C36.8953 40.7858 36.5464 39.8895 36.4606 38.7839C36.4498 38.6229 36.4445 38.4082 36.4445 38.1398C36.4445 37.8715 36.4498 37.6568 36.4606 37.4958C36.5142 36.7659 36.686 36.1218 36.9758 35.5636C37.2656 35.0054 37.6628 34.5707 38.1673 34.2594C38.6826 33.9481 39.289 33.7925 39.9868 33.7925C40.7381 33.7925 41.3768 33.9589 41.9028 34.2916C42.4288 34.6244 42.8313 35.1021 43.1104 35.7246C43.4002 36.3472 43.5451 37.0879 43.5451 37.9466V38.1881C43.5451 38.2955 43.5076 38.3814 43.4324 38.4458C43.368 38.5102 43.2822 38.5424 43.1748 38.5424H37.4428C37.4428 38.5424 37.4428 38.5638 37.4428 38.6068C37.4428 38.6497 37.4428 38.6819 37.4428 38.7034C37.4642 39.1864 37.5769 39.648 37.7809 40.0881C37.9848 40.5175 38.2747 40.8717 38.6503 41.1508C39.026 41.4191 39.4715 41.5533 39.9868 41.5533C40.4483 41.5533 40.8294 41.4835 41.1299 41.344C41.4412 41.2044 41.6881 41.0542 41.8706 40.8932C42.0531 40.7214 42.1712 40.5926 42.2248 40.5067C42.3214 40.3672 42.3966 40.2867 42.4503 40.2652C42.5039 40.233 42.5898 40.2169 42.7079 40.2169H42.9655C43.0621 40.2169 43.1426 40.2491 43.207 40.3135C43.2822 40.3672 43.3144 40.4423 43.3036 40.5389C43.2929 40.6892 43.207 40.8771 43.046 41.1025C42.8957 41.3172 42.6757 41.5318 42.3858 41.7465C42.1068 41.9612 41.7633 42.1383 41.3554 42.2779C40.9475 42.4174 40.4913 42.4872 39.9868 42.4872ZM37.4428 37.6407H42.563V37.5763C42.563 37.0396 42.461 36.5565 42.257 36.1272C42.0531 35.6978 41.7579 35.3597 41.3715 35.1128C40.985 34.8552 40.5235 34.7264 39.9868 34.7264C39.45 34.7264 38.9885 34.8552 38.602 35.1128C38.2263 35.3597 37.9365 35.6978 37.7326 36.1272C37.5394 36.5565 37.4428 37.0396 37.4428 37.5763V37.6407ZM48.3256 42.4872C47.7674 42.4872 47.2844 42.412 46.8765 42.2618C46.4793 42.1115 46.1519 41.9344 45.8943 41.7304C45.6367 41.5157 45.4435 41.3064 45.3147 41.1025C45.1966 40.8985 45.1322 40.7429 45.1214 40.6355C45.1107 40.5175 45.1483 40.4316 45.2341 40.3779C45.32 40.3135 45.4005 40.2813 45.4757 40.2813H45.7172C45.7816 40.2813 45.8353 40.292 45.8782 40.3135C45.9319 40.335 45.9963 40.394 46.0714 40.4906C46.211 40.6731 46.372 40.8502 46.5544 41.022C46.7369 41.183 46.9677 41.3118 47.2468 41.4084C47.5366 41.505 47.8962 41.5533 48.3256 41.5533C48.9696 41.5533 49.501 41.4299 49.9196 41.183C50.3383 40.9361 50.5476 40.5711 50.5476 40.0881C50.5476 39.7875 50.4617 39.546 50.29 39.3635C50.1289 39.1811 49.8498 39.02 49.4527 38.8805C49.0555 38.7409 48.5188 38.596 47.8426 38.4458C47.1663 38.2847 46.6457 38.0915 46.2807 37.8661C45.9265 37.6407 45.685 37.3831 45.5562 37.0933C45.4274 36.7927 45.363 36.4707 45.363 36.1272C45.363 35.7515 45.4703 35.3865 45.685 35.0323C45.8997 34.6673 46.2163 34.3721 46.635 34.1467C47.0643 33.9106 47.601 33.7925 48.2451 33.7925C48.7711 33.7925 49.2165 33.8623 49.5815 34.0018C49.9572 34.1413 50.2631 34.3131 50.4993 34.517C50.7354 34.7103 50.9072 34.9035 51.0145 35.0967C51.1326 35.2899 51.197 35.4456 51.2077 35.5636C51.2185 35.671 51.1863 35.7568 51.1111 35.8212C51.036 35.8857 50.9501 35.9179 50.8535 35.9179H50.612C50.5261 35.9179 50.4563 35.9018 50.4027 35.8696C50.349 35.8266 50.3007 35.7729 50.2577 35.7085C50.1504 35.5368 50.0216 35.3758 49.8713 35.2255C49.721 35.0752 49.5171 34.9571 49.2595 34.8713C49.0126 34.7747 48.6745 34.7264 48.2451 34.7264C47.601 34.7264 47.1234 34.8605 46.8121 35.1289C46.5008 35.3865 46.3451 35.7193 46.3451 36.1272C46.3451 36.3633 46.4095 36.5726 46.5383 36.7551C46.6672 36.9269 46.9087 37.0879 47.2629 37.2382C47.6171 37.3777 48.1324 37.528 48.8086 37.689C49.4956 37.8393 50.0377 38.0271 50.4349 38.2525C50.832 38.4672 51.1111 38.7248 51.2721 39.0254C51.4439 39.326 51.5298 39.6802 51.5298 40.0881C51.5298 40.5175 51.4063 40.9146 51.1594 41.2796C50.9233 41.6446 50.5637 41.9397 50.0806 42.1652C49.6083 42.3798 49.0233 42.4872 48.3256 42.4872Z" fill="#003E5C"/>
<path d="M452.347 21.8725V18.8439H449.521V17.8585H452.347V14.8298H453.449V17.8585H456.274V18.8439H453.449V21.8725H452.347ZM464.631 13.7285H460.197L459.907 17.5832H460.009C460.25 17.245 460.521 16.9745 460.82 16.7717C461.129 16.5688 461.55 16.4673 462.081 16.4673C462.516 16.4673 462.917 16.5398 463.284 16.6847C463.651 16.8296 463.97 17.0373 464.24 17.3078C464.511 17.5687 464.718 17.8923 464.863 18.2787C465.018 18.6652 465.095 19.1047 465.095 19.5974C465.095 20.0901 465.018 20.5442 464.863 20.9596C464.709 21.3654 464.482 21.718 464.182 22.0175C463.892 22.3073 463.535 22.5343 463.11 22.6985C462.694 22.8628 462.221 22.9449 461.69 22.9449C461.265 22.9449 460.888 22.8966 460.559 22.8C460.24 22.7034 459.955 22.573 459.704 22.4087C459.453 22.2445 459.231 22.0609 459.038 21.8581C458.854 21.6552 458.685 21.4426 458.531 21.2204L459.443 20.5249C459.569 20.7277 459.699 20.9113 459.835 21.0755C459.98 21.2398 460.134 21.3798 460.298 21.4958C460.472 21.6117 460.67 21.7035 460.893 21.7711C461.115 21.8291 461.38 21.8581 461.69 21.8581C462.385 21.8581 462.912 21.6745 463.269 21.3074C463.627 20.9403 463.805 20.4234 463.805 19.7568V19.6119C463.805 18.9453 463.627 18.4285 463.269 18.0614C462.912 17.6943 462.385 17.5107 461.69 17.5107C461.226 17.5107 460.859 17.5976 460.588 17.7715C460.327 17.9358 460.091 18.1338 459.878 18.3657L458.849 18.2208L459.212 12.6562H464.631V13.7285ZM468.931 22.771L475.944 12.6562H477.06L470.047 22.771H468.931ZM469.51 18.2208C468.776 18.2208 468.211 17.9793 467.815 17.4962C467.419 17.0035 467.221 16.2886 467.221 15.3515C467.221 14.4144 467.419 13.7044 467.815 13.2213C468.211 12.7286 468.776 12.4823 469.51 12.4823C470.245 12.4823 470.81 12.7286 471.206 13.2213C471.602 13.7044 471.8 14.4144 471.8 15.3515C471.8 16.2886 471.602 17.0035 471.206 17.4962C470.81 17.9793 470.245 18.2208 469.51 18.2208ZM469.51 17.4672C470.341 17.4672 470.757 16.9069 470.757 15.7863V14.9168C470.757 13.7961 470.341 13.2358 469.51 13.2358C468.68 13.2358 468.264 13.7961 468.264 14.9168V15.7863C468.264 16.9069 468.68 17.4672 469.51 17.4672ZM476.481 22.9449C475.746 22.9449 475.181 22.7034 474.785 22.2203C474.389 21.7276 474.191 21.0127 474.191 20.0756C474.191 19.1385 474.389 18.4285 474.785 17.9454C475.181 17.4527 475.746 17.2064 476.481 17.2064C477.215 17.2064 477.78 17.4527 478.176 17.9454C478.572 18.4285 478.77 19.1385 478.77 20.0756C478.77 21.0127 478.572 21.7276 478.176 22.2203C477.78 22.7034 477.215 22.9449 476.481 22.9449ZM476.481 22.1913C477.311 22.1913 477.727 21.631 477.727 20.5104V19.6409C477.727 18.5203 477.311 17.9599 476.481 17.9599C475.65 17.9599 475.234 18.5203 475.234 19.6409V20.5104C475.234 21.631 475.65 22.1913 476.481 22.1913Z" fill="#EF7D00"/>
<path d="M432.273 8.44395C432.576 7.87538 433.391 7.87538 433.694 8.44395L444.958 29.5794C445.244 30.1157 444.855 30.7631 444.248 30.7631L421.72 30.7631C421.112 30.7631 420.724 30.1157 421.009 29.5794L432.273 8.44395Z" fill="#EF7D00"/>
<path d="M138.864 20.6421H136.333L129.358 9.49355H129.281C129.293 9.75117 129.306 10.0281 129.319 10.3244C129.345 10.6206 129.364 10.9362 129.377 11.2711C129.39 11.5932 129.403 11.9281 129.416 12.2759C129.429 12.6108 129.435 12.9521 129.435 13.2999V20.6421H127.542V6.8465H130.053L137.009 17.9371H137.067C137.054 17.7439 137.041 17.5056 137.028 17.2222C137.016 16.9259 137.003 16.6103 136.99 16.2754C136.99 15.9405 136.983 15.5992 136.971 15.2514C136.958 14.9036 136.945 14.5751 136.932 14.266V6.8465H138.864V20.6421ZM151.488 15.4253C151.488 16.2883 151.372 17.0547 151.14 17.7245C150.908 18.3943 150.58 18.9611 150.155 19.4248C149.73 19.8885 149.215 20.2428 148.609 20.4875C148.004 20.7194 147.321 20.8353 146.561 20.8353C145.866 20.8353 145.221 20.7194 144.629 20.4875C144.036 20.2428 143.521 19.8885 143.083 19.4248C142.658 18.9611 142.323 18.3943 142.079 17.7245C141.834 17.0547 141.711 16.2819 141.711 15.4059C141.711 14.2595 141.905 13.287 142.291 12.4884C142.69 11.6898 143.257 11.0844 143.991 10.6722C144.738 10.2471 145.614 10.0346 146.619 10.0346C147.572 10.0346 148.41 10.2471 149.131 10.6722C149.865 11.0844 150.438 11.6898 150.85 12.4884C151.276 13.287 151.488 14.266 151.488 15.4253ZM143.817 15.4253C143.817 16.1981 143.914 16.8679 144.107 17.4347C144.3 17.9886 144.603 18.4137 145.015 18.7099C145.428 19.0062 145.956 19.1543 146.6 19.1543C147.244 19.1543 147.772 19.0062 148.184 18.7099C148.596 18.4137 148.899 17.9886 149.092 17.4347C149.285 16.8679 149.382 16.1981 149.382 15.4253C149.382 14.6266 149.279 13.9568 149.073 13.4158C148.88 12.8748 148.577 12.4626 148.165 12.1792C147.765 11.883 147.237 11.7349 146.58 11.7349C145.614 11.7349 144.912 12.0569 144.474 12.7009C144.036 13.345 143.817 14.2531 143.817 15.4253ZM165.755 10.0346C166.927 10.0346 167.809 10.3373 168.402 10.9427C168.994 11.5481 169.291 12.5206 169.291 13.8602V20.6421H167.242V14.1307C167.242 13.3321 167.081 12.7331 166.759 12.3338C166.45 11.9216 165.961 11.7155 165.291 11.7155C164.364 11.7155 163.7 12.0054 163.301 12.585C162.902 13.1518 162.702 13.9762 162.702 15.0582V20.6421H160.673V14.1307C160.673 13.6026 160.596 13.1582 160.441 12.7975C160.3 12.4369 160.087 12.1664 159.804 11.986C159.52 11.8057 159.153 11.7155 158.702 11.7155C158.058 11.7155 157.549 11.8572 157.176 12.1406C156.802 12.424 156.532 12.8426 156.364 13.3965C156.21 13.9375 156.133 14.6009 156.133 15.3866V20.6421H154.084V10.2278H155.707L155.997 11.6189H156.113C156.332 11.2583 156.596 10.962 156.905 10.7301C157.227 10.4983 157.582 10.3244 157.968 10.2084C158.355 10.0925 158.754 10.0346 159.166 10.0346C159.952 10.0346 160.615 10.1762 161.156 10.4596C161.697 10.7301 162.09 11.1488 162.335 11.7155H162.489C162.824 11.1359 163.288 10.7108 163.88 10.4403C164.473 10.1698 165.098 10.0346 165.755 10.0346ZM174.473 9.49355C174.473 9.91863 174.46 10.3244 174.434 10.7108C174.421 11.0844 174.402 11.3806 174.376 11.5996H174.473C174.769 11.1616 175.168 10.7945 175.671 10.4983C176.173 10.202 176.824 10.0539 177.622 10.0539C178.872 10.0539 179.877 10.5047 180.636 11.4064C181.409 12.3081 181.796 13.6477 181.796 15.4253C181.796 16.6232 181.622 17.6215 181.274 18.4201C180.926 19.2187 180.437 19.8241 179.806 20.2363C179.174 20.6356 178.44 20.8353 177.603 20.8353C176.791 20.8353 176.141 20.6936 175.652 20.4102C175.162 20.114 174.769 19.7662 174.473 19.3669H174.318L173.932 20.6421H172.425V5.95771H174.473V9.49355ZM177.139 11.7155C176.469 11.7155 175.941 11.8443 175.555 12.102C175.168 12.3596 174.892 12.7525 174.724 13.2806C174.557 13.8087 174.473 14.4785 174.473 15.29V15.4446C174.473 16.6425 174.666 17.5635 175.053 18.2076C175.439 18.8387 176.147 19.1543 177.178 19.1543C178.002 19.1543 178.627 18.8323 179.052 18.1883C179.477 17.5442 179.69 16.6168 179.69 15.4059C179.69 14.1822 179.477 13.2613 179.052 12.643C178.627 12.0247 177.989 11.7155 177.139 11.7155ZM189.546 10.0346C189.726 10.0346 189.926 10.0474 190.145 10.0732C190.364 10.0861 190.544 10.1054 190.686 10.1312L190.473 12.044C190.332 12.0054 190.164 11.9732 189.971 11.9474C189.778 11.9216 189.598 11.9087 189.43 11.9087C189.044 11.9087 188.67 11.986 188.309 12.1406C187.962 12.2823 187.646 12.4948 187.363 12.7782C187.079 13.0487 186.854 13.3836 186.686 13.7829C186.532 14.1822 186.455 14.6395 186.455 15.1548V20.6421H184.406V10.2278H186.029L186.3 12.0826H186.377C186.596 11.7091 186.86 11.3677 187.169 11.0586C187.479 10.7495 187.833 10.5047 188.232 10.3244C188.631 10.1312 189.069 10.0346 189.546 10.0346ZM196.333 10.0346C197.248 10.0346 198.033 10.2278 198.69 10.6142C199.347 10.9878 199.85 11.5288 200.197 12.2372C200.558 12.9457 200.738 13.7829 200.738 14.749V15.8697H193.744C193.77 16.9388 194.047 17.7567 194.575 18.3235C195.116 18.8903 195.869 19.1737 196.835 19.1737C197.505 19.1737 198.098 19.1157 198.613 18.9998C199.141 18.8709 199.682 18.6842 200.236 18.4394V20.1397C199.721 20.3716 199.193 20.5455 198.652 20.6614C198.124 20.7773 197.492 20.8353 196.758 20.8353C195.753 20.8353 194.865 20.6356 194.092 20.2363C193.319 19.837 192.714 19.2445 192.276 18.4588C191.851 17.6601 191.638 16.6812 191.638 15.5219C191.638 14.3497 191.831 13.3579 192.218 12.5464C192.617 11.7349 193.164 11.1166 193.86 10.6915C194.568 10.2535 195.393 10.0346 196.333 10.0346ZM196.333 11.6189C195.599 11.6189 195.006 11.8572 194.556 12.3338C194.118 12.8104 193.86 13.4867 193.783 14.3626H198.69C198.69 13.8216 198.607 13.345 198.439 12.9328C198.272 12.5206 198.014 12.1986 197.666 11.9667C197.319 11.7349 196.874 11.6189 196.333 11.6189ZM211.888 20.8353C210.638 20.8353 209.627 20.3845 208.854 19.4828C208.094 18.5811 207.714 17.2415 207.714 15.4639C207.714 13.6734 208.101 12.3209 208.873 11.4064C209.646 10.4918 210.664 10.0346 211.926 10.0346C212.454 10.0346 212.912 10.1054 213.298 10.2471C213.697 10.3759 214.039 10.5562 214.322 10.7881C214.618 11.02 214.87 11.2776 215.076 11.561H215.192C215.166 11.3806 215.134 11.123 215.095 10.7881C215.056 10.4403 215.037 10.1312 215.037 9.86066V5.95771H217.085V20.6421H215.481L215.134 19.2509H215.037C214.844 19.5472 214.599 19.8177 214.303 20.0624C214.019 20.2943 213.678 20.4811 213.279 20.6228C212.879 20.7645 212.416 20.8353 211.888 20.8353ZM212.371 19.1543C213.375 19.1543 214.084 18.8774 214.496 18.3235C214.908 17.7567 215.114 16.913 215.114 15.7924V15.4832C215.114 14.2595 214.915 13.3257 214.515 12.6816C214.129 12.0376 213.408 11.7155 212.351 11.7155C211.514 11.7155 210.883 12.0569 210.458 12.7396C210.033 13.4094 209.82 14.3304 209.82 15.5026C209.82 16.6747 210.033 17.5764 210.458 18.2076C210.883 18.8387 211.52 19.1543 212.371 19.1543ZM224.391 10.0346C225.305 10.0346 226.091 10.2278 226.748 10.6142C227.405 10.9878 227.907 11.5288 228.255 12.2372C228.616 12.9457 228.796 13.7829 228.796 14.749V15.8697H221.802C221.828 16.9388 222.105 17.7567 222.633 18.3235C223.174 18.8903 223.927 19.1737 224.893 19.1737C225.563 19.1737 226.156 19.1157 226.671 18.9998C227.199 18.8709 227.74 18.6842 228.294 18.4394V20.1397C227.779 20.3716 227.25 20.5455 226.709 20.6614C226.181 20.7773 225.55 20.8353 224.816 20.8353C223.811 20.8353 222.922 20.6356 222.15 20.2363C221.377 19.837 220.771 19.2445 220.333 18.4588C219.908 17.6601 219.696 16.6812 219.696 15.5219C219.696 14.3497 219.889 13.3579 220.275 12.5464C220.675 11.7349 221.222 11.1166 221.918 10.6915C222.626 10.2535 223.451 10.0346 224.391 10.0346ZM224.391 11.6189C223.657 11.6189 223.064 11.8572 222.613 12.3338C222.175 12.8104 221.918 13.4867 221.84 14.3626H226.748C226.748 13.8216 226.664 13.345 226.497 12.9328C226.329 12.5206 226.072 12.1986 225.724 11.9667C225.376 11.7349 224.932 11.6189 224.391 11.6189ZM240.564 20.8353C239.61 20.8353 238.773 20.6485 238.052 20.275C237.331 19.9014 236.77 19.3218 236.371 18.536C235.972 17.7374 235.772 16.7263 235.772 15.5026C235.772 14.2145 235.984 13.1711 236.41 12.3725C236.847 11.5738 237.434 10.9878 238.168 10.6142C238.915 10.2278 239.765 10.0346 240.718 10.0346C241.298 10.0346 241.839 10.099 242.341 10.2278C242.856 10.3437 243.282 10.479 243.616 10.6335L242.998 12.2952C242.637 12.1535 242.251 12.0311 241.839 11.9281C241.44 11.825 241.06 11.7735 240.699 11.7735C240.055 11.7735 239.52 11.9152 239.095 12.1986C238.683 12.4691 238.374 12.8813 238.168 13.4351C237.975 13.9762 237.878 14.6588 237.878 15.4832C237.878 16.269 237.981 16.9324 238.187 17.4734C238.393 18.0144 238.696 18.4266 239.095 18.7099C239.507 18.9804 240.016 19.1157 240.622 19.1157C241.201 19.1157 241.71 19.0513 242.148 18.9225C242.586 18.7937 242.998 18.6262 243.385 18.4201V20.1977C243.011 20.4167 242.605 20.5777 242.167 20.6807C241.729 20.7838 241.195 20.8353 240.564 20.8353ZM247.891 9.87998C247.891 10.202 247.878 10.524 247.852 10.8461C247.827 11.1681 247.801 11.4321 247.775 11.6382H247.91C248.129 11.2776 248.4 10.9813 248.722 10.7495C249.057 10.5176 249.424 10.3437 249.823 10.2278C250.235 10.1118 250.654 10.0539 251.079 10.0539C251.903 10.0539 252.593 10.1891 253.147 10.4596C253.713 10.7173 254.138 11.1294 254.422 11.6962C254.718 12.2501 254.866 12.9714 254.866 13.8602V20.6421H252.837V14.15C252.837 13.3385 252.663 12.7331 252.316 12.3338C251.981 11.9216 251.44 11.7155 250.693 11.7155C249.984 11.7155 249.424 11.8572 249.012 12.1406C248.612 12.424 248.323 12.8426 248.142 13.3965C247.975 13.9375 247.891 14.6073 247.891 15.4059V20.6421H245.843V5.95771H247.891V9.87998ZM266.978 10.2278V20.6421H265.336L265.046 19.2703H264.95C264.731 19.6309 264.447 19.9272 264.1 20.1591C263.752 20.3909 263.372 20.5584 262.96 20.6614C262.547 20.7773 262.122 20.8353 261.684 20.8353C260.873 20.8353 260.184 20.7065 259.617 20.4489C259.063 20.1784 258.638 19.7662 258.342 19.2123C258.058 18.6455 257.917 17.9242 257.917 17.0483V10.2278H259.984V16.7391C259.984 17.5506 260.152 18.156 260.486 18.5554C260.834 18.9547 261.369 19.1543 262.09 19.1543C262.811 19.1543 263.378 19.0126 263.79 18.7293C264.203 18.4459 264.492 18.0337 264.66 17.4927C264.84 16.9388 264.93 16.2754 264.93 15.5026V10.2278H266.978ZM273.932 19.1737C274.202 19.1737 274.479 19.1479 274.763 19.0964C275.046 19.0448 275.291 18.9869 275.497 18.9225V20.4682C275.278 20.5712 274.982 20.655 274.608 20.7194C274.235 20.7967 273.861 20.8353 273.488 20.8353C272.921 20.8353 272.399 20.7387 271.923 20.5455C271.459 20.3523 271.085 20.0174 270.802 19.5408C270.519 19.0642 270.377 18.4008 270.377 17.5506V11.7928H268.928V10.8654L270.454 10.0925L271.169 7.88986H272.425V10.2278H275.4V11.7928H272.425V17.512C272.425 18.0788 272.56 18.4974 272.831 18.7679C273.114 19.0384 273.481 19.1737 273.932 19.1737ZM281.676 10.0346C282.591 10.0346 283.377 10.2278 284.034 10.6142C284.69 10.9878 285.193 11.5288 285.541 12.2372C285.901 12.9457 286.082 13.7829 286.082 14.749V15.8697H279.087C279.113 16.9388 279.39 17.7567 279.918 18.3235C280.459 18.8903 281.213 19.1737 282.179 19.1737C282.848 19.1737 283.441 19.1157 283.956 18.9998C284.484 18.8709 285.025 18.6842 285.579 18.4394V20.1397C285.064 20.3716 284.536 20.5455 283.995 20.6614C283.467 20.7773 282.836 20.8353 282.101 20.8353C281.097 20.8353 280.208 20.6356 279.435 20.2363C278.662 19.837 278.057 19.2445 277.619 18.4588C277.194 17.6601 276.981 16.6812 276.981 15.5219C276.981 14.3497 277.174 13.3579 277.561 12.5464C277.96 11.7349 278.508 11.1166 279.203 10.6915C279.912 10.2535 280.736 10.0346 281.676 10.0346ZM281.676 11.6189C280.942 11.6189 280.35 11.8572 279.899 12.3338C279.461 12.8104 279.203 13.4867 279.126 14.3626H284.034C284.034 13.8216 283.95 13.345 283.782 12.9328C283.615 12.5206 283.357 12.1986 283.009 11.9667C282.662 11.7349 282.217 11.6189 281.676 11.6189ZM295.554 17.7052C295.554 18.3879 295.387 18.9611 295.052 19.4248C294.717 19.8885 294.234 20.2428 293.603 20.4875C292.972 20.7194 292.212 20.8353 291.323 20.8353C290.589 20.8353 289.957 20.7773 289.429 20.6614C288.914 20.5584 288.438 20.4038 288 20.1977V18.4008C288.463 18.6198 288.998 18.8194 289.603 18.9998C290.209 19.1672 290.801 19.2509 291.381 19.2509C292.154 19.2509 292.708 19.1286 293.042 18.8838C293.39 18.6391 293.564 18.3106 293.564 17.8984C293.564 17.6666 293.5 17.4605 293.371 17.2801C293.242 17.0869 292.997 16.8937 292.637 16.7005C292.289 16.4944 291.774 16.2625 291.091 16.0049C290.434 15.7344 289.874 15.4704 289.41 15.2127C288.946 14.9422 288.592 14.6266 288.347 14.266C288.103 13.8924 287.98 13.4158 287.98 12.8362C287.98 11.9345 288.341 11.2454 289.062 10.7688C289.796 10.2793 290.763 10.0346 291.96 10.0346C292.592 10.0346 293.184 10.099 293.738 10.2278C294.305 10.3437 294.852 10.524 295.38 10.7688L294.704 12.3338C294.408 12.1921 294.099 12.0762 293.777 11.986C293.468 11.883 293.152 11.7993 292.83 11.7349C292.521 11.6704 292.199 11.6382 291.864 11.6382C291.246 11.6382 290.775 11.7349 290.453 11.9281C290.131 12.1213 289.97 12.3918 289.97 12.7396C289.97 12.9843 290.041 13.1968 290.183 13.3772C290.337 13.5575 290.602 13.7379 290.975 13.9182C291.349 14.0985 291.857 14.3175 292.501 14.5751C293.146 14.8199 293.693 15.071 294.144 15.3287C294.608 15.5863 294.955 15.9019 295.187 16.2754C295.432 16.649 295.554 17.1256 295.554 17.7052ZM308.676 6.8465L303.537 20.6421H301.585L306.725 6.8465H308.676ZM319.488 10.0346C320.802 10.0346 321.781 10.3244 322.425 10.904C323.069 11.4708 323.391 12.366 323.391 13.5897V20.6421H321.942L321.536 19.193H321.459C321.162 19.5665 320.853 19.8757 320.531 20.1204C320.222 20.3651 319.861 20.5455 319.449 20.6614C319.05 20.7773 318.56 20.8353 317.981 20.8353C317.362 20.8353 316.802 20.7258 316.3 20.5068C315.81 20.275 315.424 19.9272 315.14 19.4635C314.857 18.9869 314.715 18.3943 314.715 17.6859C314.715 16.6296 315.115 15.8246 315.913 15.2707C316.725 14.7168 317.955 14.4141 319.604 14.3626L321.381 14.3046V13.725C321.381 12.9521 321.207 12.4111 320.86 12.102C320.512 11.7928 320.022 11.6382 319.391 11.6382C318.85 11.6382 318.335 11.7155 317.845 11.8701C317.356 12.0247 316.892 12.2115 316.454 12.4304L315.797 10.9427C316.287 10.685 316.847 10.4725 317.478 10.3051C318.122 10.1247 318.792 10.0346 319.488 10.0346ZM319.971 15.6764C318.786 15.728 317.961 15.9276 317.498 16.2754C317.047 16.6103 316.821 17.0869 316.821 17.7052C316.821 18.2462 316.982 18.6391 317.304 18.8838C317.639 19.1286 318.058 19.2509 318.56 19.2509C319.372 19.2509 320.042 19.0255 320.57 18.5747C321.098 18.1238 321.362 17.4476 321.362 16.5459V15.6378L319.971 15.6764ZM331.819 10.0346C333.03 10.0346 333.957 10.3373 334.602 10.9427C335.246 11.5481 335.568 12.5206 335.568 13.8602V20.6421H333.539V14.15C333.539 13.3385 333.365 12.7331 333.017 12.3338C332.682 11.9216 332.141 11.7155 331.394 11.7155C330.338 11.7155 329.604 12.0311 329.191 12.6623C328.792 13.2935 328.593 14.2016 328.593 15.3866V20.6421H326.544V10.2278H328.167L328.457 11.6189H328.573C328.805 11.2583 329.088 10.962 329.423 10.7301C329.758 10.4983 330.132 10.3244 330.544 10.2084C330.956 10.0925 331.381 10.0346 331.819 10.0346Z" fill="#003E5C"/>
<path d="M344.844 103.302C344.844 98.8554 348.448 95.251 352.894 95.251H386.119C390.565 95.251 394.17 98.8554 394.17 103.302V317.623H344.844V103.302Z" fill="#EF7D00"/>
<path d="M397.404 280.39C397.404 275.944 401.009 272.34 405.455 272.34H438.68C443.126 272.34 446.73 275.944 446.73 280.39V317.623H397.404V280.39Z" fill="#037CBF"/>
</svg>
