<svg width="112" height="107" viewBox="0 0 112 107" fill="none" xmlns="http://www.w3.org/2000/svg">
<g clip-path="url(#clip0_1309_5122)">
<path fill-rule="evenodd" clip-rule="evenodd" d="M17.0683 106.65L46.1606 91.4872L77.1268 75.352C77.5659 75.1298 77.9386 74.8029 78.2095 74.4025C78.4805 74.002 78.6406 73.5413 78.6747 73.0643C78.7242 72.5876 78.6464 72.1067 78.4489 71.6671C78.2514 71.2276 77.9406 70.844 77.5462 70.5528L55.7624 54.0632L33.9787 37.5735C33.5948 37.2739 33.1371 37.0752 32.65 36.9967C32.1629 36.9182 31.6631 36.9626 31.1991 37.1255C30.7289 37.2769 30.3069 37.5423 29.9737 37.8963C29.6404 38.2502 29.4072 38.6808 29.2963 39.1468L20.7932 72.2877L12.8052 103.422C12.6594 103.96 12.6814 104.529 12.8685 105.056C13.0556 105.582 13.3995 106.044 13.8572 106.384C14.3042 106.731 14.8485 106.943 15.4206 106.99C15.9926 107.037 16.5663 106.919 17.0683 106.65Z" fill="#002A54"/>
<path fill-rule="evenodd" clip-rule="evenodd" d="M33.1615 50.4346C37.8741 50.9846 42.122 55.3103 46.8347 55.8575C49.8012 56.2035 52.9521 55.0497 56.0551 54.2843L55.7625 54.0632L33.9788 37.5735C33.5949 37.2739 33.1372 37.0752 32.6501 36.9967C32.163 36.9182 31.6632 36.9626 31.1992 37.1255C30.729 37.2769 30.307 37.5423 29.9738 37.8963C29.6406 38.2502 29.4073 38.6808 29.2964 39.1468L26.1455 51.4269C28.5228 50.7833 30.8958 50.1712 33.1615 50.4346Z" fill="#FFD600"/>
<path fill-rule="evenodd" clip-rule="evenodd" d="M43.1002 69.3091C38.3876 68.7621 34.1397 64.4335 29.4269 63.8862C27.2584 63.6339 24.9914 64.1811 22.7162 64.7934L20.7936 72.2884L19.0078 79.2448C21.6013 78.5447 24.2013 77.7906 26.6731 78.0798C31.3855 78.6268 35.6336 82.9527 40.346 83.5027C45.0584 84.0527 50.236 80.8181 54.9486 81.3654C57.065 81.612 59.0869 82.6182 61.0995 83.704L77.1272 75.3529C77.5662 75.1307 77.9389 74.8038 78.2099 74.4033C78.4808 74.0029 78.641 73.5423 78.6751 73.0652C78.7242 72.5624 78.6351 72.0559 78.4167 71.5968C76.031 72.2431 73.6492 72.8582 71.3757 72.5945C66.6633 72.0475 62.4152 67.7189 57.7031 67.1716C52.9909 66.6244 47.8131 69.8562 43.1005 69.3089" fill="#FFD600"/>
<path fill-rule="evenodd" clip-rule="evenodd" d="M32.4807 95.6598C28.6508 98.6873 24.5173 101.827 20.0801 105.08L35.8564 96.8589L46.1606 91.49L61.1001 83.7029L77.1278 75.3517C77.5669 75.1295 77.9396 74.8027 78.2107 74.4022C78.4817 74.0018 78.6419 73.5411 78.6761 73.0641C78.7252 72.5612 78.636 72.0548 78.4175 71.5958C78.2164 71.1872 77.9185 70.8298 77.5478 70.5526L65.7583 61.6289C64.4719 63.9444 63.0028 66.1611 61.364 68.2594C58.0873 72.52 53.7125 77.1907 48.2396 82.2714C43.7325 86.4583 38.4799 90.9211 32.4818 95.6598" fill="#00184C"/>
<path fill-rule="evenodd" clip-rule="evenodd" d="M35.8564 96.8592C31.4603 95.9578 27.4303 92.0826 22.9873 91.5641C20.5924 91.2862 18.078 91.9835 15.5647 92.6669L12.8052 103.422C12.6594 103.961 12.6814 104.529 12.8685 105.056C13.0556 105.583 13.3995 106.045 13.8572 106.384C14.3042 106.732 14.8485 106.943 15.4206 106.99C15.9926 107.038 16.5663 106.919 17.0683 106.651L35.8564 96.8594" fill="#FFD600"/>
<path fill-rule="evenodd" clip-rule="evenodd" d="M48.2373 82.2713C50.5125 81.659 52.7788 81.1119 54.9482 81.3641C57.0646 81.6107 59.0865 82.617 61.0991 83.7027L77.1268 75.3516C77.1834 75.3206 77.239 75.2893 77.2928 75.2581L77.3327 75.2353C77.3726 75.2098 77.4114 75.1843 77.4498 75.1588C77.4879 75.1305 77.5254 75.105 77.562 75.0765L77.6341 75.0227L77.6687 74.9914L77.7037 74.9632L77.7375 74.9349L77.771 74.9036L77.8036 74.8724L77.8356 74.8441L77.8676 74.8129L77.8991 74.7788L77.9297 74.7476L77.9597 74.7136L77.989 74.6823L78.0179 74.6483L78.0463 74.6143L78.0739 74.5803C78.1015 74.5463 78.1284 74.5122 78.1539 74.4755L78.1795 74.4387L78.2042 74.4047V74.4019L78.2287 74.3679L78.2525 74.3311L78.2745 74.2913L78.2966 74.2546L78.3407 74.178L78.3612 74.1383L78.3812 74.1015L78.4006 74.0617L78.4194 74.022L78.4372 73.9794L78.4549 73.9397L78.4718 73.8999L78.4877 73.8574L78.5036 73.8149L78.5186 73.7751L78.5329 73.7326L78.5464 73.6901L78.5594 73.6476L78.5717 73.6023L78.5834 73.5598L78.5946 73.5173L78.605 73.472L78.6149 73.4267L78.6237 73.3842L78.6323 73.3389L78.6401 73.2936L78.6471 73.2483L78.6535 73.203L78.6595 73.1547L78.6647 73.1095L78.6689 73.0642L78.6714 73.0387L78.6731 73.0132L78.6747 72.9904L78.6764 72.9649V72.9394L78.6775 72.9166L78.6786 72.8911V72.8684V72.8429V72.7466V72.721V72.6983V72.6728L78.6775 72.65L78.6764 72.6273L78.6749 72.6018L78.6738 72.579L78.672 72.5563V72.5535L78.67 72.5308L78.6681 72.508L78.6656 72.4853L78.663 72.4598L78.6601 72.437L78.6575 72.4143L78.6546 72.3915L78.6513 72.366L78.6475 72.3432L78.644 72.3205L78.6398 72.2978L78.6356 72.275L78.6312 72.2522L78.6266 72.2295L78.622 72.2067L78.6176 72.184L78.6125 72.1612L78.6074 72.1385L78.6021 72.1157L78.5962 72.093L78.5907 72.0703L78.5852 72.0475L78.579 72.0248L78.5728 72.002L78.5666 71.9822V71.9795L78.5598 71.9597L78.553 71.937L78.5461 71.9142L78.5389 71.8944V71.8917L78.5316 71.8719L78.5239 71.8491L78.5161 71.8294V71.8266L78.5082 71.8068L78.5001 71.7841L78.4915 71.7643L78.4829 71.7416L78.474 71.7218L78.4654 71.699L78.4564 71.6793L78.4476 71.6565L78.4379 71.6368L78.4288 71.617V71.6142L78.4191 71.5944C76.0335 72.2408 73.6519 72.8558 71.3784 72.5922C67.9128 72.1897 64.6984 69.7433 61.3659 68.2578C58.0891 72.5183 53.7143 77.1889 48.2415 82.2698" fill="#998000"/>
<path fill-rule="evenodd" clip-rule="evenodd" d="M35.8567 96.8588C34.6844 96.5949 33.5506 96.1921 32.4809 95.6597C28.6522 98.6843 24.5202 101.823 20.085 105.077L35.8569 96.8588" fill="#998000"/>
<path fill-rule="evenodd" clip-rule="evenodd" d="M62.7842 48.091C62.6501 48.2596 62.4826 48.4008 62.2915 48.5066C62.1004 48.6123 61.8894 48.6805 61.6708 48.7071C61.4522 48.7338 61.2302 48.7183 61.0179 48.6617C60.8055 48.6051 60.6068 48.5085 60.4334 48.3774C60.0822 48.1107 59.8543 47.7211 59.7991 47.2934C59.7439 46.8656 59.8659 46.4341 60.1387 46.0925C61.0013 45.0125 62.1464 44.3321 63.2895 43.649C64.167 43.1245 65.0462 42.6003 65.5382 41.988L65.5341 41.9852C65.7569 41.7073 65.5226 40.4715 65.2882 39.2383C64.9179 37.2881 64.5473 35.3349 65.691 33.9062C66.9882 32.2876 69.8005 32.7609 72.6107 33.2344C74.4406 33.5405 76.2704 33.8494 76.3337 33.7701C76.3969 33.6908 75.6421 32.0438 74.8877 30.3997C73.7265 27.8654 72.5649 25.3284 73.8588 23.7096L73.855 23.7069C74.9961 22.2809 77.04 22.1506 79.0824 22.0203C80.3681 21.941 81.6548 21.8587 81.8743 21.5838C82.3717 20.963 82.6788 20.0078 82.9853 19.0523C83.3821 17.8192 83.78 16.5833 84.6544 15.492C84.7885 15.3242 84.9557 15.1837 85.1465 15.0786C85.3372 14.9735 85.5477 14.906 85.7657 14.8799C85.9838 14.8538 86.205 14.8696 86.4166 14.9265C86.6282 14.9834 86.826 15.0803 86.9986 15.2114C87.3481 15.4782 87.5744 15.8671 87.6284 16.2938C87.6824 16.7205 87.5597 17.1505 87.2869 17.4905C86.7999 18.0971 86.4904 19.061 86.1813 20.0218C85.7825 21.2634 85.383 22.505 84.5199 23.5823C83.3781 25.0082 81.3347 25.1386 79.2923 25.2689C78.0063 25.3482 76.7197 25.4305 76.5001 25.7054L76.4966 25.7026L76.4939 25.7054C76.4311 25.7819 77.1853 27.429 77.9393 29.0758C79.1022 31.6101 80.265 34.1471 78.9664 35.7686C77.6679 37.3902 74.8586 36.9139 72.0481 36.4405C70.2182 36.1343 68.3884 35.8254 68.324 35.9047C68.1062 36.1768 68.341 37.4157 68.5756 38.6516C68.9466 40.6075 69.3181 42.5635 68.1798 43.9837L68.1757 43.9809L68.1737 43.9837C67.3044 45.0695 66.1674 45.7468 65.0307 46.4244C64.157 46.9459 63.2818 47.4677 62.7838 48.0912" fill="#003E5C"/>
<path fill-rule="evenodd" clip-rule="evenodd" d="M53.1834 39.9375C53.0975 40.1333 52.9724 40.3107 52.8152 40.4597C52.658 40.6087 52.4718 40.7261 52.2673 40.8054C52.0628 40.8847 51.8441 40.9242 51.6237 40.9217C51.4033 40.9192 51.1856 40.8747 50.9831 40.7907C50.5737 40.6177 50.2518 40.2957 50.0874 39.8948C49.9231 39.4939 49.9297 39.0466 50.1057 38.6504C50.7312 37.2359 51.7027 36.0821 52.6518 34.9538C53.5152 33.9276 54.3582 32.9241 54.6686 31.9716C54.8408 31.4416 54.024 30.217 53.2268 29.0234C52.1296 27.3793 51.055 25.7691 51.3857 24.0712C51.7587 22.155 54.0227 21.0635 56.2388 19.9919C57.6451 19.3144 59.0221 18.6483 59.0263 18.5605C59.0334 18.4017 57.7835 17.6193 56.5571 16.8539C54.7379 15.7201 52.947 14.6003 52.7334 12.9164C52.5431 11.414 53.3968 10.0903 54.2414 8.78063C54.774 7.95572 55.2996 7.13931 55.2301 6.92394C54.9967 6.20958 54.3115 5.44145 53.632 4.67884C52.9676 3.98462 52.3813 3.22442 51.8831 2.41098C51.6695 2.03264 51.6191 1.58836 51.7429 1.17446C51.8667 0.760555 52.1547 0.410382 52.5445 0.199879C52.7373 0.0973655 52.9493 0.0326876 53.1681 0.00956704C53.387 -0.0135535 53.6085 0.00532974 53.8197 0.0651579C54.031 0.124986 54.2279 0.224564 54.3991 0.358139C54.5702 0.491715 54.7123 0.656651 54.817 0.84343C55.2045 1.45476 55.6542 2.02737 56.1594 2.55279C57.0591 3.56202 57.9657 4.57956 58.4125 5.94321C58.9522 7.59579 58.0172 9.04723 57.0706 10.5127C56.5448 11.3264 56.0124 12.1513 56.0598 12.5197C56.0818 12.6926 57.2143 13.3984 58.3649 14.1157C60.3932 15.3829 62.4576 16.6728 62.3659 18.6995C62.2753 20.7065 60.0208 21.7978 57.7187 22.9091C56.2432 23.6207 54.7352 24.3491 54.673 24.6695C54.5895 25.0947 55.3027 26.1635 56.0302 27.2548C57.2549 29.0889 58.5102 30.9711 57.8647 32.9526C57.3592 34.5031 56.3146 35.7447 55.2449 37.0146C54.4427 37.9701 53.6221 38.9451 53.1834 39.9373" fill="#FFD600"/>
<path fill-rule="evenodd" clip-rule="evenodd" d="M72.6576 55.7235C72.4835 55.8532 72.2844 55.9484 72.0719 56.0033C71.8594 56.0583 71.6377 56.0721 71.4196 56.0439C71.2015 56.0157 70.9914 55.946 70.8015 55.839C70.6115 55.7319 70.4455 55.5895 70.313 55.4202C70.0437 55.0768 69.9257 54.645 69.9846 54.2183C70.0435 53.7915 70.2745 53.4045 70.6276 53.141C72.1119 52.0355 73.7943 51.5875 75.4337 51.1511C76.536 50.8562 77.6189 50.57 78.4062 50.0938C78.9353 49.7763 79.3374 48.3617 79.7307 46.984C80.3196 44.9147 80.8959 42.8935 82.6675 42.0941C84.67 41.1899 86.8411 42.7376 88.9639 44.2542C90.2064 45.1414 91.4249 46.0118 91.6159 45.955C91.8619 45.8842 92.3952 44.5886 92.9184 43.3187C93.7923 41.1984 94.6514 39.1148 96.6442 38.871C98.4332 38.6526 99.8374 39.8347 101.224 40.9998C101.989 41.6434 102.745 42.2812 103.09 42.3009C103.802 42.3049 104.513 42.2336 105.209 42.0883C106.497 41.873 107.778 41.6574 109.207 42.0203C109.638 42.1305 110.005 42.4005 110.23 42.7712C110.454 43.142 110.517 43.5834 110.405 43.999C110.351 44.2046 110.256 44.398 110.124 44.5679C109.993 44.7379 109.827 44.881 109.638 44.9893C109.449 45.0975 109.24 45.1687 109.022 45.1987C108.804 45.2287 108.582 45.2169 108.369 45.1641C107.651 44.9827 106.714 45.1386 105.772 45.2974C104.826 45.4902 103.86 45.5739 102.894 45.5468C101.417 45.459 100.233 44.464 99.0373 43.4575C98.2146 42.7659 97.381 42.0628 97.0507 42.1053C97.0205 42.1081 96.5251 43.3072 96.0225 44.529C95.2017 46.5218 94.3648 48.5515 92.5718 49.073C90.7913 49.5918 88.9079 48.2482 86.9861 46.8762C85.6512 45.9237 84.2861 44.9485 84.069 45.0478C83.7041 45.2121 83.332 46.5163 82.9528 47.8485C82.3873 49.8327 81.809 51.8652 80.1615 52.8574C78.969 53.5745 77.6535 53.9262 76.3115 54.2834C74.9925 54.632 73.6386 54.995 72.6574 55.7233" fill="#FFD600"/>
</g>
<defs>
<clipPath id="clip0_1309_5122">
<rect width="110.955" height="107" fill="white" transform="translate(0.698242)"/>
</clipPath>
</defs>
</svg>
