<svg width="111" height="106" viewBox="0 0 111 106" fill="none" xmlns="http://www.w3.org/2000/svg">
<g clip-path="url(#clip0_1309_5112)">
<path d="M12.8302 100.347C2.10142 100.347 -2.28783 93.016 3.07655 84.0556L45.9924 12.3731C51.3567 3.41273 60.1348 3.41273 65.4992 12.3731L108.415 84.0556C113.779 93.016 109.39 100.347 98.6614 100.347H12.8302Z" fill="#003E5C"/>
<path d="M108.416 84.0558L65.4997 12.3733C62.8177 7.89286 59.2815 5.65929 55.7461 5.65967V100.347H98.6619C109.391 100.347 113.78 93.0162 108.416 84.0558Z" fill="#002A54"/>
<path d="M55.7456 66.2755H47.8944L43.9688 35.9897H55.7456L59.6713 51.1326L55.7456 66.2755Z" fill="#FFD600"/>
<path d="M63.5974 66.2755H55.7461V35.9897H67.523L63.5974 66.2755Z" fill="#998000"/>
<path d="M55.7458 88.99H47.8945V73.8472H55.7458L59.6714 81.4186L55.7458 88.99Z" fill="#FFD600"/>
<path d="M63.5974 73.8472H55.7461V88.99H63.5974V73.8472Z" fill="#998000"/>
</g>
<defs>
<clipPath id="clip0_1309_5112">
<rect width="109.918" height="106" fill="white" transform="translate(0.787109)"/>
</clipPath>
</defs>
</svg>
