<svg width="651" height="614" viewBox="0 0 651 614" fill="none" xmlns="http://www.w3.org/2000/svg">
<path d="M473.581 298.248C473.581 395.566 394.689 474.458 297.371 474.458C200.054 474.458 121.162 395.566 121.162 298.248C121.162 200.931 200.054 122.039 297.371 122.039C394.689 122.039 473.581 200.931 473.581 298.248ZM132.334 298.248C132.334 389.396 206.224 463.286 297.371 463.286C388.519 463.286 462.409 389.396 462.409 298.248C462.409 207.101 388.519 133.211 297.371 133.211C206.224 133.211 132.334 207.101 132.334 298.248Z" fill="url(#paint0_angular_1983_1188)"/>
<g filter="url(#filter0_i_1983_1188)">
<path d="M298.847 7.19336C260.6 7.19336 222.728 14.7266 187.392 29.363C152.057 43.9994 119.95 65.4523 92.9059 92.4968C65.8614 119.541 44.4085 151.648 29.7722 186.983C15.1358 222.319 7.60253 260.191 7.60254 298.437L124.1 298.437C124.1 275.489 128.62 252.766 137.402 231.565C146.184 210.364 159.055 191.1 175.282 174.873C191.509 158.646 210.773 145.775 231.974 136.993C253.175 128.211 275.899 123.691 298.847 123.691L298.847 7.19336Z" fill="#003E5C"/>
</g>
<path d="M7.60254 298.437C7.60254 336.684 15.1358 374.556 29.7722 409.892C44.4085 445.227 65.8614 477.333 92.9059 504.378C119.95 531.423 152.057 552.875 187.392 567.512C222.728 582.148 260.6 589.681 298.847 589.681L298.847 473.184C275.899 473.184 253.175 468.664 231.974 459.882C210.773 451.1 191.509 438.228 175.282 422.002C159.055 405.775 146.184 386.511 137.402 365.31C128.62 344.109 124.1 321.385 124.1 298.437L7.60254 298.437Z" fill="#003E5C"/>
<g filter="url(#filter1_i_1983_1188)">
<path d="M298.847 589.681C337.093 589.681 374.965 582.148 410.301 567.512C445.636 552.875 477.743 531.423 504.787 504.378C531.832 477.333 553.285 445.227 567.921 409.892C582.557 374.556 590.091 336.684 590.091 298.437L473.593 298.437C473.593 321.385 469.073 344.109 460.291 365.31C451.509 386.511 438.638 405.775 422.411 422.002C406.184 438.228 386.92 451.1 365.719 459.882C344.518 468.664 321.795 473.184 298.847 473.184L298.847 589.681Z" fill="#FFD600"/>
</g>
<g filter="url(#filter2_i_1983_1188)">
<path d="M590.091 298.437C590.091 260.191 582.557 222.318 567.921 186.983C553.285 151.648 531.832 119.541 504.787 92.4967C477.743 65.4522 445.636 43.9994 410.301 29.363C374.965 14.7266 337.093 7.19335 298.847 7.19336L298.847 123.691C321.795 123.691 344.518 128.211 365.719 136.993C386.92 145.775 406.184 158.646 422.411 174.873C438.638 191.1 451.509 210.364 460.291 231.565C469.073 252.766 473.593 275.489 473.593 298.437H590.091Z" fill="#003E5C"/>
</g>
<path d="M146.267 180.356L137.902 158.862H110.377L102.11 180.356H93.2592L120.395 110.62H128.273L155.312 180.356H146.267ZM127.495 130.072C127.301 129.554 126.977 128.613 126.523 127.252C126.069 125.89 125.615 124.496 125.161 123.069C124.772 121.578 124.448 120.443 124.188 119.665C123.864 120.962 123.508 122.291 123.119 123.653C122.794 124.95 122.438 126.149 122.049 127.252C121.724 128.354 121.433 129.294 121.173 130.072L113.295 151.081H135.276L127.495 130.072Z" fill="#F6F8F9"/>
<path d="M505.08 144.953C505.08 152.734 503.621 159.251 500.704 164.503C497.851 169.755 493.733 173.71 488.351 176.369C482.969 179.027 476.453 180.356 468.802 180.356H449.447V110.912H470.844C477.847 110.912 483.91 112.209 489.032 114.802C494.155 117.396 498.11 121.221 500.898 126.279C503.686 131.272 505.08 137.497 505.08 144.953ZM495.84 145.245C495.84 139.085 494.803 134.028 492.728 130.072C490.718 126.117 487.735 123.199 483.78 121.319C479.89 119.374 475.156 118.401 469.58 118.401H458.2V172.867H467.635C477.037 172.867 484.072 170.565 488.74 165.962C493.474 161.293 495.84 154.388 495.84 145.245Z" fill="#F6F8F9"/>
<path d="M595.715 297.858C595.715 462.36 462.36 595.715 297.858 595.715C133.355 595.715 0 462.36 0 297.858C0 133.355 133.355 0 297.858 0C462.36 0 595.715 133.355 595.715 297.858ZM9.94214 297.858C9.94214 456.869 138.846 585.773 297.858 585.773C456.869 585.773 585.773 456.869 585.773 297.858C585.773 138.846 456.869 9.94214 297.858 9.94214C138.846 9.94214 9.94214 138.846 9.94214 297.858Z" fill="url(#paint1_angular_1983_1188)"/>
<path d="M121.562 416.669C127.333 416.669 132.164 417.22 136.054 418.323C140.009 419.425 142.96 421.24 144.905 423.769C146.915 426.298 147.92 429.67 147.92 433.884C147.92 436.608 147.401 439.039 146.364 441.179C145.391 443.254 143.9 445.005 141.89 446.431C139.944 447.793 137.545 448.733 134.692 449.252V449.738C137.61 450.192 140.236 451.035 142.571 452.267C144.97 453.499 146.85 455.249 148.212 457.519C149.573 459.788 150.254 462.739 150.254 466.37C150.254 470.584 149.282 474.183 147.336 477.166C145.391 480.084 142.603 482.321 138.972 483.877C135.406 485.368 131.126 486.114 126.133 486.114H101.721V416.669H121.562ZM123.313 446.237C129.278 446.237 133.363 445.296 135.568 443.416C137.772 441.471 138.875 438.618 138.875 434.857C138.875 431.031 137.513 428.308 134.79 426.687C132.131 425.001 127.852 424.158 121.951 424.158H110.474V446.237H123.313ZM110.474 453.531V478.722H124.48C130.64 478.722 134.919 477.522 137.318 475.123C139.718 472.724 140.917 469.579 140.917 465.689C140.917 463.225 140.366 461.085 139.264 459.27C138.226 457.454 136.443 456.06 133.914 455.087C131.45 454.05 128.079 453.531 123.799 453.531H110.474Z" fill="white"/>
<g filter="url(#filter3_bd_1983_1188)">
<path d="M481.681 580.708C543.722 540.366 590.795 480.763 615.662 411.062L462.145 356.292C449.28 392.353 424.926 423.19 392.828 444.061L481.681 580.708Z" fill="#FFD600" fill-opacity="0.3" shape-rendering="crispEdges"/>
</g>
<path d="M480.762 421.021C476.656 421.021 472.945 421.741 469.631 423.182C466.317 424.551 463.507 426.604 461.202 429.342C458.896 432.007 457.131 435.286 455.906 439.176C454.682 442.994 454.069 447.317 454.069 452.144C454.069 458.484 455.042 463.996 456.987 468.679C459.004 473.362 461.958 476.964 465.849 479.486C469.811 482.007 474.746 483.268 480.654 483.268C484.04 483.268 487.246 482.98 490.272 482.403C493.298 481.827 496.252 481.107 499.134 480.242V488.671C496.252 489.752 493.262 490.544 490.164 491.049C487.138 491.553 483.5 491.805 479.249 491.805C471.396 491.805 464.84 490.184 459.581 486.942C454.321 483.7 450.359 479.089 447.693 473.109C445.1 467.13 443.803 460.105 443.803 452.036C443.803 446.2 444.595 440.869 446.18 436.042C447.837 431.215 450.215 427.036 453.313 423.506C456.483 419.976 460.373 417.274 464.984 415.401C469.595 413.456 474.89 412.483 480.87 412.483C484.833 412.483 488.651 412.879 492.326 413.672C496 414.464 499.278 415.581 502.16 417.022L498.269 425.235C495.892 424.155 493.226 423.182 490.272 422.317C487.39 421.453 484.22 421.021 480.762 421.021Z" fill="#F6F8F9"/>
<defs>
<filter id="filter0_i_1983_1188" x="7.60254" y="7.19336" width="291.244" height="295.567" filterUnits="userSpaceOnUse" color-interpolation-filters="sRGB">
<feFlood flood-opacity="0" result="BackgroundImageFix"/>
<feBlend mode="normal" in="SourceGraphic" in2="BackgroundImageFix" result="shape"/>
<feColorMatrix in="SourceAlpha" type="matrix" values="0 0 0 0 0 0 0 0 0 0 0 0 0 0 0 0 0 0 127 0" result="hardAlpha"/>
<feOffset dy="4.32273"/>
<feGaussianBlur stdDeviation="10.8068"/>
<feComposite in2="hardAlpha" operator="arithmetic" k2="-1" k3="1"/>
<feColorMatrix type="matrix" values="0 0 0 0 0 0 0 0 0 0 0 0 0 0 0 0 0 0 0.17 0"/>
<feBlend mode="normal" in2="shape" result="effect1_innerShadow_1983_1188"/>
</filter>
<filter id="filter1_i_1983_1188" x="298.847" y="298.438" width="291.244" height="295.569" filterUnits="userSpaceOnUse" color-interpolation-filters="sRGB">
<feFlood flood-opacity="0" result="BackgroundImageFix"/>
<feBlend mode="normal" in="SourceGraphic" in2="BackgroundImageFix" result="shape"/>
<feColorMatrix in="SourceAlpha" type="matrix" values="0 0 0 0 0 0 0 0 0 0 0 0 0 0 0 0 0 0 127 0" result="hardAlpha"/>
<feOffset dy="4.32458"/>
<feGaussianBlur stdDeviation="10.8028"/>
<feComposite in2="hardAlpha" operator="arithmetic" k2="-1" k3="1"/>
<feColorMatrix type="matrix" values="0 0 0 0 0 0 0 0 0 0 0 0 0 0 0 0 0 0 0.17 0"/>
<feBlend mode="normal" in2="shape" result="effect1_innerShadow_1983_1188"/>
</filter>
<filter id="filter2_i_1983_1188" x="298.847" y="7.19336" width="291.244" height="295.567" filterUnits="userSpaceOnUse" color-interpolation-filters="sRGB">
<feFlood flood-opacity="0" result="BackgroundImageFix"/>
<feBlend mode="normal" in="SourceGraphic" in2="BackgroundImageFix" result="shape"/>
<feColorMatrix in="SourceAlpha" type="matrix" values="0 0 0 0 0 0 0 0 0 0 0 0 0 0 0 0 0 0 127 0" result="hardAlpha"/>
<feOffset dy="4.32273"/>
<feGaussianBlur stdDeviation="10.8068"/>
<feComposite in2="hardAlpha" operator="arithmetic" k2="-1" k3="1"/>
<feColorMatrix type="matrix" values="0 0 0 0 0 0 0 0 0 0 0 0 0 0 0 0 0 0 0.17 0"/>
<feBlend mode="normal" in2="shape" result="effect1_innerShadow_1983_1188"/>
</filter>
<filter id="filter3_bd_1983_1188" x="358.093" y="319.82" width="292.305" height="293.887" filterUnits="userSpaceOnUse" color-interpolation-filters="sRGB">
<feFlood flood-opacity="0" result="BackgroundImageFix"/>
<feGaussianBlur in="BackgroundImage" stdDeviation="10.4207"/>
<feComposite in2="SourceAlpha" operator="in" result="effect1_backgroundBlur_1983_1188"/>
<feColorMatrix in="SourceAlpha" type="matrix" values="0 0 0 0 0 0 0 0 0 0 0 0 0 0 0 0 0 0 127 0" result="hardAlpha"/>
<feOffset dy="-1.73678"/>
<feGaussianBlur stdDeviation="17.3678"/>
<feComposite in2="hardAlpha" operator="out"/>
<feColorMatrix type="matrix" values="0 0 0 0 0 0 0 0 0 0 0 0 0 0 0 0 0 0 0.25 0"/>
<feBlend mode="normal" in2="effect1_backgroundBlur_1983_1188" result="effect2_dropShadow_1983_1188"/>
<feBlend mode="normal" in="SourceGraphic" in2="effect2_dropShadow_1983_1188" result="shape"/>
</filter>
<radialGradient id="paint0_angular_1983_1188" cx="0" cy="0" r="1" gradientUnits="userSpaceOnUse" gradientTransform="translate(297.885 295.679) rotate(142.382) scale(180.951 179.749)">
<stop offset="0.0146151" stop-color="#00ABBE"/>
<stop offset="0.241082" stop-color="#B0DF35"/>
<stop offset="0.473043" stop-color="#EF7D00"/>
<stop offset="0.838542" stop-color="#FFD600"/>
</radialGradient>
<radialGradient id="paint1_angular_1983_1188" cx="0" cy="0" r="1" gradientUnits="userSpaceOnUse" gradientTransform="translate(298.726 293.515) rotate(136.554) scale(339.691 337.435)">
<stop offset="0.0146151" stop-color="#00ABBE"/>
<stop offset="0.241082" stop-color="#B0DF35"/>
<stop offset="0.473043" stop-color="#EF7D00"/>
<stop offset="0.838542" stop-color="#FFD600"/>
</radialGradient>
</defs>
</svg>
