<svg width="25" height="24" viewBox="0 0 25 24" fill="none" xmlns="http://www.w3.org/2000/svg">
<path fill-rule="evenodd" clip-rule="evenodd" d="M15.6404 23.7197L9.10935 23.7197L9.10935 18.3262C7.16093 17.1601 5.84384 14.9959 5.84384 12.5066C5.84384 8.79507 8.77191 5.77874 12.3749 5.77874C15.9778 5.77874 18.9059 8.79507 18.9059 12.5066C18.9059 14.9959 17.5888 17.1601 15.6404 18.3262L15.6404 23.7197ZM11.2864 21.4768L11.2864 17.0364L10.1979 16.3861C8.84812 15.5787 8.02086 14.0986 8.02086 12.5063C8.02086 10.0282 9.96928 8.02109 12.3749 8.02109C14.7805 8.02109 16.7289 10.0282 16.7289 12.5063C16.7289 14.0986 15.8907 15.5787 14.5519 16.3861L13.4634 17.0364L13.4634 21.4768L11.2864 21.4768ZM21.0829 13.6838L24.3484 13.6838L24.3484 11.4411L21.0829 11.4411L21.0829 13.6838ZM21.5727 4.61232L20.0379 3.03126L18.0895 5.04963L19.6243 6.63068L21.5727 4.61232ZM13.4634 3.59197L11.2864 3.59197L11.2864 0.22803L13.4634 0.22803L13.4634 3.59197ZM3.66684 13.6838L0.401328 13.6838L0.401329 11.4411L3.66684 11.4411L3.66684 13.6838ZM4.72268 3.02031L6.6711 5.03867L5.1472 6.6085L3.18789 4.60135L4.72268 3.02031Z" fill="#FFD600"/>
</svg>
