<svg width="20" height="36" viewBox="0 0 20 36" fill="none" xmlns="http://www.w3.org/2000/svg">
<path d="M6.81375 24.056C6.81375 22.84 6.92575 21.8 7.14975 20.936C7.40575 20.04 7.82175 19.192 8.39775 18.392C9.00575 17.592 9.82175 16.76 10.8458 15.896C12.0938 14.84 13.0538 13.96 13.7258 13.256C14.4298 12.552 14.9258 11.864 15.2138 11.192C15.5018 10.52 15.6458 9.704 15.6458 8.744C15.6458 7.208 15.1498 6.024 14.1578 5.192C13.1658 4.36 11.7258 3.944 9.83775 3.944C8.26975 3.944 6.87775 4.152 5.66175 4.568C4.44575 4.952 3.27775 5.416 2.15775 5.96L0.66975 2.6C1.94975 1.928 3.35775 1.368 4.89375 0.919998C6.46175 0.471998 8.20575 0.247998 10.1258 0.247998C13.1658 0.247998 15.5178 0.999998 17.1818 2.504C18.8458 4.008 19.6778 6.056 19.6778 8.648C19.6778 10.088 19.4378 11.32 18.9578 12.344C18.5098 13.336 17.8538 14.264 16.9898 15.128C16.1578 15.96 15.1658 16.856 14.0138 17.816C12.9578 18.712 12.1418 19.496 11.5658 20.168C11.0218 20.84 10.6538 21.512 10.4618 22.184C10.2698 22.824 10.1738 23.608 10.1738 24.536V25.352H6.81375V24.056ZM5.70975 32.408C5.70975 31.224 5.98175 30.392 6.52575 29.912C7.10175 29.432 7.82175 29.192 8.68575 29.192C9.48575 29.192 10.1738 29.432 10.7498 29.912C11.3258 30.392 11.6138 31.224 11.6138 32.408C11.6138 33.56 11.3258 34.392 10.7498 34.904C10.1738 35.416 9.48575 35.672 8.68575 35.672C7.82175 35.672 7.10175 35.416 6.52575 34.904C5.98175 34.392 5.70975 33.56 5.70975 32.408Z" fill="#003E5C"/>
</svg>
