<svg width="26" height="28" viewBox="0 0 26 28" fill="none" xmlns="http://www.w3.org/2000/svg">
<path fill-rule="evenodd" clip-rule="evenodd" d="M23.0027 13.8172C23.0027 14.2706 22.9627 14.6972 22.9094 15.1239L25.7227 17.3239C25.976 17.5239 26.0427 17.8839 25.8827 18.1772L23.216 22.7906C23.056 23.0839 22.7094 23.2039 22.4027 23.0839L19.0827 21.7506C18.3894 22.2706 17.6427 22.7239 16.8294 23.0572L16.3227 26.5906C16.2827 26.9106 16.0027 27.1506 15.6694 27.1506H10.336C10.0027 27.1506 9.72272 26.9106 9.68272 26.5906L9.17605 23.0572C8.36272 22.7239 7.61605 22.2839 6.92272 21.7506L3.60272 23.0839C3.30938 23.1906 2.94938 23.0839 2.78938 22.7906L0.122716 18.1772C-0.0372844 17.8839 0.0293822 17.5239 0.282716 17.3239L3.09605 15.1239C3.04272 14.6972 3.00272 14.2572 3.00272 13.8172C3.00272 13.3772 3.04272 12.9372 3.09605 12.5106L0.282716 10.3106C0.0293822 10.1106 -0.0506178 9.75055 0.122716 9.45722L2.78938 4.84389C2.94938 4.55055 3.29605 4.43055 3.60272 4.55055L6.92272 5.88389C7.61605 5.36389 8.36272 4.91055 9.17605 4.57722L9.68272 1.04389C9.72272 0.723887 10.0027 0.483887 10.336 0.483887H15.6694C16.0027 0.483887 16.2827 0.723887 16.3227 1.04389L16.8294 4.57722C17.6427 4.91055 18.3894 5.35055 19.0827 5.88389L22.4027 4.55055C22.696 4.44389 23.056 4.55055 23.216 4.84389L25.8827 9.45722C26.0427 9.75055 25.976 10.1106 25.7227 10.3106L22.9094 12.5106C22.9627 12.9372 23.0027 13.3639 23.0027 13.8172ZM8.33605 13.8172C8.33605 16.3906 10.4294 18.4839 13.0027 18.4839C15.576 18.4839 17.6694 16.3906 17.6694 13.8172C17.6694 11.2439 15.576 9.15055 13.0027 9.15055C10.4294 9.15055 8.33605 11.2439 8.33605 13.8172Z" fill="#F6F8F9"/>
</svg>
