<svg width="41" height="52" viewBox="0 0 41 52" fill="none" xmlns="http://www.w3.org/2000/svg">
<path d="M40.9528 20.2698C40.9528 9.1345 31.8936 0.0751953 20.7582 0.0751953L16.298 20.2698L20.7582 42.4547L30.4292 39.1095L30.4442 37.9945C36.7036 34.5603 40.9528 27.8992 40.9528 20.2698Z" fill="#FFD600"/>
<path d="M0.56369 20.2698C0.56369 9.1345 9.62288 0.0751953 20.7583 0.0751953V42.4547L11.0272 39.1095L11.0723 37.9945C4.81296 34.5603 0.56369 27.8992 0.56369 20.2698Z" fill="#FFEE70"/>
<path d="M21.8734 4.53613V42.456H14.4321V36.0154L12.6971 35.062C7.28567 32.0937 3.92377 26.4259 3.92377 20.2707C3.92377 20.2707 7.9352 4.53613 21.8734 4.53613Z" fill="white"/>
<path d="M20.7585 3.41992C11.4816 3.43631 3.92377 10.9886 3.92377 20.2693H7.26895C7.26895 12.8329 13.3258 6.78149 20.7584 6.7651V42.4545H27.0847V36.0139L28.8197 35.0605C34.2311 32.0922 37.593 26.4244 37.593 20.2693C37.5931 10.9886 30.0353 3.43631 20.7585 3.41992Z" fill="#FFF4B8"/>
<path d="M27.2812 18.6465C24.5102 18.6465 22.2634 20.8933 22.2634 23.6643V25.3368H20.7584L19.6433 27.0094L20.7584 28.682H22.2634V41.3396H25.6086V28.682H27.2812C30.0521 28.682 32.2989 26.4352 32.2989 23.6643C32.2989 20.8933 30.0521 18.6465 27.2812 18.6465ZM27.2812 25.3368C26.359 25.3368 25.6086 24.5864 25.6086 23.6643C25.6086 22.7421 26.359 21.9917 27.2812 21.9917C28.2033 21.9917 28.9538 22.7421 28.9538 23.6643C28.9538 24.5864 28.2033 25.3368 27.2812 25.3368Z" fill="#FFD600"/>
<path d="M20.7583 25.3368H19.2232V23.6643C19.2232 20.8933 16.9763 18.6465 14.2054 18.6465C11.4345 18.6465 9.18765 20.8933 9.18765 23.6643C9.18765 26.4352 11.4345 28.682 14.2054 28.682H15.878V41.3396H19.2232V28.682H20.7583V25.3368ZM14.2053 25.3368C13.2832 25.3368 12.5327 24.5864 12.5327 23.6643C12.5327 22.7421 13.2832 21.9917 14.2053 21.9917C15.1275 21.9917 15.8779 22.7421 15.8779 23.6643C15.8779 24.5864 15.1275 25.3368 14.2053 25.3368Z" fill="#FFEE70"/>
<path d="M30.4293 48.0281L28.1992 51.3733H20.7584L19.6433 46.9131L30.4293 48.0281Z" fill="#121923"/>
<path d="M30.4293 43.5711V48.0314H20.7584L19.6433 42.4561L30.4293 43.5711Z" fill="#466289"/>
<path d="M30.4293 39.1104V43.5706H19.6433L20.7584 39.1104H30.4293Z" fill="#6B81A1"/>
<path d="M11.0274 48.0309L13.2575 51.3761H20.7585V48.0309L15.8929 45.8008L11.0274 48.0309Z" fill="#233145"/>
<path d="M11.0274 43.57V48.0302H20.7585V43.57L15.8929 41.3398L11.0274 43.57Z" fill="#6B81A1"/>
<path d="M20.7585 39.1104H11.0274V43.5706H20.7585V39.1104Z" fill="#8799B3"/>
</svg>
