<svg width="22" height="22" viewBox="0 0 22 22" fill="none" xmlns="http://www.w3.org/2000/svg">
<path fill-rule="evenodd" clip-rule="evenodd" d="M16.333 5.86214C16.333 8.80881 13.9463 11.1955 10.9997 11.1955C8.05301 11.1955 5.66634 8.80881 5.66634 5.86214C5.66634 2.91548 8.05301 0.528809 10.9997 0.528809C13.9463 0.528809 16.333 2.91548 16.333 5.86214ZM13.6663 5.86214C13.6663 4.39547 12.4663 3.19548 10.9997 3.19548C9.53301 3.19548 8.33301 4.39547 8.33301 5.86214C8.33301 7.32881 9.53301 8.52881 10.9997 8.52881C12.4663 8.52881 13.6663 7.32881 13.6663 5.86214ZM10.9997 12.5288C7.43967 12.5288 0.333008 14.3155 0.333008 17.8621V20.5288C0.333008 21.2621 0.933008 21.8621 1.66634 21.8621H20.333C21.0663 21.8621 21.6663 21.2621 21.6663 20.5288V17.8621C21.6663 14.3155 14.5597 12.5288 10.9997 12.5288ZM2.99967 17.8755V19.1955H18.9997V17.8621C18.733 16.9155 14.5997 15.1955 10.9997 15.1955C7.39967 15.1955 3.26634 16.9155 2.99967 17.8755Z" fill="#F6F8F9"/>
</svg>
