<svg width="147" height="150" viewBox="0 0 147 150" fill="none" xmlns="http://www.w3.org/2000/svg">
<circle cx="73.2194" cy="76.7804" r="72.2194" fill="white" stroke="#003E5C" stroke-width="1.52041" stroke-dasharray="15.2 15.2"/>
<path d="M50.2066 59.6691C50.2066 62.491 49.9795 65.0047 49.5254 67.2103C49.1038 69.4159 48.4226 71.2972 47.482 72.8541C46.5738 74.3786 45.3575 75.5462 43.833 76.3571C42.341 77.168 40.5408 77.5734 38.4325 77.5734C35.7728 77.5734 33.5834 76.8599 31.8644 75.4327C30.1453 74.0056 28.8641 71.9621 28.0208 69.3024C27.1775 66.6103 26.7558 63.3992 26.7558 59.6691C26.7558 55.9066 27.1288 52.6955 27.8748 50.0358C28.6533 47.3761 29.902 45.3489 31.6211 43.9542C33.3402 42.527 35.6107 41.8134 38.4325 41.8134C41.0922 41.8134 43.2816 42.527 45.0007 43.9542C46.7522 45.3489 48.0496 47.3761 48.8929 50.0358C49.7687 52.6955 50.2066 55.9066 50.2066 59.6691ZM31.913 59.6691C31.913 62.6856 32.1238 65.1993 32.5455 67.2103C32.9672 69.2213 33.6483 70.7296 34.5889 71.7351C35.562 72.7406 36.8432 73.2433 38.4325 73.2433C40.0219 73.2433 41.2868 72.7568 42.2275 71.7837C43.2005 70.7782 43.8979 69.27 44.3195 67.259C44.7736 65.2156 45.0007 62.6856 45.0007 59.6691C45.0007 56.6526 44.7736 54.1551 44.3195 52.1765C43.8979 50.1656 43.2005 48.6573 42.2275 47.6518C41.2868 46.6463 40.0219 46.1436 38.4325 46.1436C36.8432 46.1436 35.562 46.6463 34.5889 47.6518C33.6483 48.6573 32.9672 50.1656 32.5455 52.1765C32.1238 54.1551 31.913 56.6526 31.913 59.6691Z" fill="#EF7D00"/>
<path d="M84.0448 38.8388L54.8165 117H48.6862L77.9145 38.8388H84.0448Z" fill="#003E5C"/>
<path d="M87.384 100.209C87.384 98.1985 87.5137 96.2199 87.7732 94.2738C88.0651 92.3277 88.5517 90.4951 89.2328 88.776C89.9464 87.0245 90.9195 85.4838 92.152 84.154C93.3845 82.7917 94.9414 81.7375 96.8227 80.9915C98.7364 80.2131 101.039 79.8238 103.731 79.8238C104.413 79.8238 105.175 79.8563 106.018 79.9211C106.894 79.9536 107.607 80.0509 108.159 80.2131V84.5432C107.543 84.3486 106.861 84.2026 106.115 84.1053C105.402 84.008 104.688 83.9593 103.975 83.9593C101.737 83.9593 99.8878 84.2999 98.4282 84.9811C96.9687 85.6622 95.8172 86.6028 94.9739 87.8029C94.1306 89.003 93.5143 90.3978 93.1251 91.9871C92.7358 93.544 92.4926 95.2469 92.3953 97.0957H92.6872C93.1737 96.3172 93.7738 95.6199 94.4873 95.0036C95.2009 94.3873 96.0767 93.9008 97.1146 93.544C98.1525 93.1872 99.3527 93.0088 100.715 93.0088C102.726 93.0088 104.477 93.4305 105.969 94.2738C107.494 95.1171 108.662 96.3334 109.472 97.9228C110.316 99.5121 110.737 101.442 110.737 103.712C110.737 106.145 110.267 108.253 109.327 110.037C108.418 111.789 107.121 113.135 105.434 114.076C103.78 115.016 101.785 115.487 99.45 115.487C97.7633 115.487 96.1902 115.178 94.7306 114.562C93.271 113.946 91.9898 113.005 90.887 111.74C89.7842 110.475 88.9247 108.886 88.3084 106.972C87.6921 105.026 87.384 102.772 87.384 100.209ZM99.4013 111.205C101.25 111.205 102.758 110.605 103.926 109.405C105.094 108.172 105.678 106.275 105.678 103.712C105.678 101.669 105.159 100.047 104.121 98.8472C103.115 97.6471 101.591 97.047 99.5473 97.047C98.1525 97.047 96.9362 97.3389 95.8983 97.9228C94.8604 98.5066 94.0495 99.2526 93.4656 100.161C92.8818 101.069 92.5899 101.993 92.5899 102.934C92.5899 103.94 92.7358 104.929 93.0278 105.902C93.3197 106.875 93.7413 107.767 94.2927 108.578C94.8766 109.389 95.5902 110.037 96.4335 110.524C97.2768 110.978 98.2661 111.205 99.4013 111.205Z" fill="#003E5C"/>
</svg>
