<svg width="147" height="150" viewBox="0 0 147 150" fill="none" xmlns="http://www.w3.org/2000/svg">
<circle cx="73.2194" cy="76.7804" r="72.2194" fill="white" stroke="#003E5C" stroke-width="1.52041" stroke-dasharray="15.2 15.2"/>
<path d="M50.1579 77.0869H26.8044V73.0974L35.7566 63.9992C37.5081 62.2153 38.9677 60.6746 40.1354 59.3772C41.3031 58.0473 42.1788 56.7824 42.7627 55.5823C43.3465 54.3497 43.6384 53.0199 43.6384 51.5927C43.6384 49.8088 43.1194 48.4789 42.0815 47.6032C41.0436 46.695 39.6975 46.2409 38.0433 46.2409C36.454 46.2409 35.0268 46.549 33.7618 47.1653C32.4969 47.7491 31.1832 48.5762 29.8209 49.6466L27.0477 46.1922C27.9883 45.3813 28.9938 44.6515 30.0642 44.0028C31.167 43.3541 32.3833 42.8352 33.7132 42.4459C35.0755 42.0567 36.5675 41.8621 38.1893 41.8621C40.3949 41.8621 42.2923 42.2513 43.8817 43.0298C45.471 43.7758 46.6873 44.8462 47.5307 46.2409C48.4064 47.6356 48.8443 49.2736 48.8443 51.1548C48.8443 52.5496 48.6335 53.8632 48.2118 55.0957C47.7901 56.2958 47.1739 57.4797 46.363 58.6474C45.5845 59.8151 44.6277 60.999 43.4924 62.1991C42.3572 63.3992 41.1084 64.6642 39.7462 65.994L33.2753 72.2703V72.5135H50.1579V77.0869Z" fill="#EF7D00"/>
<path d="M84.0448 38.8388L54.8165 117H48.6862L77.9145 38.8388H84.0448Z" fill="#003E5C"/>
<path d="M90.5579 115.097H85.4494V92.0356C85.4494 91.2247 85.4494 90.4787 85.4494 89.7976C85.4818 89.084 85.5142 88.4029 85.5467 87.7541C85.5791 87.073 85.6115 86.4243 85.644 85.808C85.2223 86.2297 84.7844 86.6351 84.3303 87.0244C83.8762 87.4136 83.3573 87.8677 82.7734 88.3866L78.9785 91.4518L76.3512 88.1434L86.2765 80.3589H90.5579V115.097ZM125.942 97.6794C125.942 100.501 125.715 103.015 125.26 105.221C124.839 107.426 124.158 109.307 123.217 110.864C122.309 112.389 121.093 113.556 119.568 114.367C118.076 115.178 116.276 115.584 114.168 115.584C111.508 115.584 109.318 114.87 107.599 113.443C105.88 112.016 104.599 109.972 103.756 107.313C102.913 104.621 102.491 101.409 102.491 97.6794C102.491 93.9169 102.864 90.7058 103.61 88.0461C104.388 85.3864 105.637 83.3592 107.356 81.9644C109.075 80.5373 111.346 79.8237 114.168 79.8237C116.827 79.8237 119.017 80.5373 120.736 81.9644C122.487 83.3592 123.785 85.3864 124.628 88.0461C125.504 90.7058 125.942 93.9169 125.942 97.6794ZM107.648 97.6794C107.648 100.696 107.859 103.21 108.281 105.221C108.702 107.232 109.383 108.74 110.324 109.745C111.297 110.751 112.578 111.254 114.168 111.254C115.757 111.254 117.022 110.767 117.963 109.794C118.936 108.788 119.633 107.28 120.055 105.269C120.509 103.226 120.736 100.696 120.736 97.6794C120.736 94.6629 120.509 92.1654 120.055 90.1868C119.633 88.1758 118.936 86.6676 117.963 85.6621C117.022 84.6566 115.757 84.1538 114.168 84.1538C112.578 84.1538 111.297 84.6566 110.324 85.6621C109.383 86.6676 108.702 88.1758 108.281 90.1868C107.859 92.1654 107.648 94.6629 107.648 97.6794Z" fill="#003E5C"/>
</svg>
