<svg width="147" height="150" viewBox="0 0 147 150" fill="none" xmlns="http://www.w3.org/2000/svg">
<circle cx="73.2194" cy="76.7804" r="72.2194" fill="white" stroke="#003E5C" stroke-width="1.52041" stroke-dasharray="15.2 15.2"/>
<path d="M50.1093 57.1878C50.1093 59.1664 49.9633 61.1449 49.6714 63.1235C49.3795 65.0696 48.8929 66.9184 48.2118 68.6699C47.5307 70.389 46.5576 71.9297 45.2926 73.292C44.0601 74.6218 42.487 75.676 40.5733 76.4544C38.692 77.2004 36.4053 77.5734 33.7132 77.5734C33.0645 77.5734 32.3022 77.541 31.4265 77.4761C30.5507 77.4113 29.8209 77.2977 29.2371 77.1356V72.8054C29.8534 73.0001 30.5345 73.146 31.2805 73.2433C32.059 73.3406 32.805 73.3893 33.5186 73.3893C35.7566 73.3893 37.5892 73.0649 39.0164 72.4162C40.476 71.7351 41.6274 70.7945 42.4707 69.5943C43.3465 68.3942 43.979 66.9995 44.3682 65.4102C44.7574 63.8208 44.9845 62.1342 45.0493 60.3503H44.7574C44.2709 61.0963 43.6708 61.7774 42.9573 62.3937C42.2437 63.01 41.3679 63.4965 40.33 63.8533C39.3245 64.2101 38.1082 64.3885 36.681 64.3885C34.7025 64.3885 32.951 63.9668 31.4265 63.1235C29.9345 62.2802 28.783 61.0801 27.9721 59.5232C27.1612 57.9338 26.7558 56.0039 26.7558 53.7334C26.7558 51.2684 27.2099 49.1601 28.1181 47.4085C29.0587 45.6246 30.3723 44.2623 32.059 43.3217C33.7781 42.3811 35.7728 41.9107 38.0433 41.9107C39.7299 41.9107 41.3031 42.2189 42.7627 42.8352C44.2222 43.4514 45.5034 44.3921 46.6062 45.657C47.709 46.922 48.5686 48.5113 49.1849 50.425C49.8011 52.3387 50.1093 54.593 50.1093 57.1878ZM38.092 46.1436C36.2431 46.1436 34.7349 46.7598 33.5672 47.9924C32.3995 49.2249 31.8157 51.1062 31.8157 53.6361C31.8157 55.712 32.3022 57.35 33.2753 58.5501C34.2808 59.7502 35.8215 60.3503 37.8973 60.3503C39.3245 60.3503 40.557 60.0583 41.595 59.4745C42.6329 58.8582 43.4438 58.1122 44.0276 57.2365C44.6115 56.3283 44.9034 55.3876 44.9034 54.4146C44.9034 53.4415 44.7574 52.4685 44.4655 51.4954C44.1736 50.5223 43.7519 49.6304 43.2005 48.8195C42.6491 48.0086 41.9356 47.3599 41.0598 46.8734C40.2165 46.3868 39.2272 46.1436 38.092 46.1436Z" fill="#54C352"/>
<path d="M84.0448 38.8388L54.8165 117H48.6862L77.9145 38.8388H84.0448Z" fill="#003E5C"/>
<path d="M90.5579 115.097H85.4494V92.0356C85.4494 91.2247 85.4494 90.4787 85.4494 89.7976C85.4818 89.084 85.5142 88.4029 85.5467 87.7541C85.5791 87.073 85.6115 86.4243 85.644 85.808C85.2223 86.2297 84.7844 86.6351 84.3303 87.0244C83.8762 87.4136 83.3573 87.8677 82.7734 88.3866L78.9785 91.4518L76.3512 88.1434L86.2765 80.3589H90.5579V115.097ZM125.942 97.6794C125.942 100.501 125.715 103.015 125.26 105.221C124.839 107.426 124.158 109.307 123.217 110.864C122.309 112.389 121.093 113.556 119.568 114.367C118.076 115.178 116.276 115.584 114.168 115.584C111.508 115.584 109.318 114.87 107.599 113.443C105.88 112.016 104.599 109.972 103.756 107.313C102.913 104.621 102.491 101.409 102.491 97.6794C102.491 93.9169 102.864 90.7058 103.61 88.0461C104.388 85.3864 105.637 83.3592 107.356 81.9644C109.075 80.5373 111.346 79.8237 114.168 79.8237C116.827 79.8237 119.017 80.5373 120.736 81.9644C122.487 83.3592 123.785 85.3864 124.628 88.0461C125.504 90.7058 125.942 93.9169 125.942 97.6794ZM107.648 97.6794C107.648 100.696 107.859 103.21 108.281 105.221C108.702 107.232 109.383 108.74 110.324 109.745C111.297 110.751 112.578 111.254 114.168 111.254C115.757 111.254 117.022 110.767 117.963 109.794C118.936 108.788 119.633 107.28 120.055 105.269C120.509 103.226 120.736 100.696 120.736 97.6794C120.736 94.6629 120.509 92.1654 120.055 90.1868C119.633 88.1758 118.936 86.6676 117.963 85.6621C117.022 84.6566 115.757 84.1538 114.168 84.1538C112.578 84.1538 111.297 84.6566 110.324 85.6621C109.383 86.6676 108.702 88.1758 108.281 90.1868C107.859 92.1654 107.648 94.6629 107.648 97.6794Z" fill="#003E5C"/>
</svg>
