<svg width="164" height="142" viewBox="0 0 164 142" fill="none" xmlns="http://www.w3.org/2000/svg">
<path d="M25.5854 76.6245C20.9946 76.6245 17.0443 75.7703 13.7346 74.0621C10.425 72.3005 7.86266 69.9517 6.04768 67.0157C4.2327 64.0264 3.32521 60.69 3.32521 57.0067C3.32521 55.3518 3.53874 53.7504 3.96579 52.2023C4.39285 50.6543 4.95335 49.1863 5.64732 47.7983C6.34128 46.4104 7.00855 45.1826 7.64913 44.115C8.34309 42.994 8.95698 42.1132 9.4908 41.4726L24.1441 21.3744C24.3576 21.1075 24.6779 20.7872 25.105 20.4135C25.532 19.9865 26.1192 19.7729 26.8665 19.7729H34.3133C34.7937 19.7729 35.1941 19.9598 35.5144 20.3334C35.8347 20.6537 35.9948 21.0541 35.9948 21.5345C35.9948 21.7481 35.9414 21.9616 35.8347 22.1751C35.7813 22.3353 35.7012 22.4687 35.5945 22.5755L24.3843 38.1096C24.8647 37.9494 25.4252 37.8426 26.0658 37.7893C26.7064 37.7359 27.2936 37.7092 27.8274 37.7092C30.4965 37.7626 33.0321 38.2964 35.4343 39.3106C37.8365 40.2715 39.9451 41.6061 41.76 43.3143C43.575 45.0225 44.9896 47.0243 46.0039 49.3197C47.0715 51.6151 47.6053 54.1241 47.6053 56.8465C47.6053 60.3697 46.7245 63.6527 44.9629 66.6955C43.2013 69.6848 40.6657 72.087 37.3561 73.902C34.0998 75.717 30.1762 76.6245 25.5854 76.6245ZM25.5053 67.4161C27.4271 67.4161 29.1886 67.0157 30.7901 66.215C32.4449 65.4143 33.7795 64.2399 34.7937 62.6918C35.808 61.1438 36.3151 59.222 36.3151 56.9266C36.3151 54.6846 35.808 52.7895 34.7937 51.2415C33.7795 49.6934 32.4449 48.519 30.7901 47.7183C29.1886 46.9175 27.4271 46.5172 25.5053 46.5172C23.5836 46.5172 21.7953 46.9175 20.1405 47.7183C18.539 48.519 17.2311 49.6934 16.2169 51.2415C15.2026 52.7895 14.6955 54.6846 14.6955 56.9266C14.6955 59.222 15.2026 61.1438 16.2169 62.6918C17.2311 64.2399 18.539 65.4143 20.1405 66.215C21.7953 67.0157 23.5836 67.4161 25.5053 67.4161ZM74.7462 76.7045C70.1554 76.7045 66.2852 75.9572 63.1357 74.4625C59.9861 72.9144 57.584 70.9126 55.9291 68.4571C54.3277 66.0015 53.4736 63.3858 53.3668 60.6099C53.3134 60.1295 53.4469 59.7558 53.7672 59.4889C54.1408 59.1686 54.5679 59.0085 55.0483 59.0085H62.4951C63.0823 59.0085 63.5627 59.1419 63.9364 59.4089C64.3634 59.6224 64.6837 60.0227 64.8973 60.6099C65.4311 62.2114 66.1784 63.5192 67.1393 64.5335C68.1535 65.5478 69.3013 66.2951 70.5824 66.7755C71.917 67.256 73.3049 67.4962 74.7462 67.4962C76.6679 67.4962 78.4028 67.1225 79.9509 66.3752C81.5524 65.5744 82.8335 64.4 83.7944 62.852C84.7553 61.3039 85.2357 59.4089 85.2357 57.1668C85.2357 55.1917 84.7819 53.4835 83.8745 52.0422C82.967 50.6009 81.7125 49.4799 80.111 48.6791C78.563 47.825 76.7747 47.398 74.7462 47.398C73.2515 47.398 72.0237 47.5848 71.0628 47.9585C70.102 48.3321 69.2746 48.7592 68.5806 49.2396C67.94 49.7201 67.3528 50.1471 66.819 50.5208C66.3386 50.8945 65.7781 51.0813 65.1375 51.0813H57.7708C57.2904 51.0813 56.8633 50.9212 56.4896 50.6009C56.1694 50.2272 56.0092 49.8001 56.0092 49.3197L58.8117 21.9349C58.8651 21.2409 59.1053 20.7071 59.5324 20.3334C59.9595 19.9598 60.4666 19.7729 61.0538 19.7729H91.1611C91.6949 19.7729 92.1486 19.9598 92.5223 20.3334C92.896 20.7071 93.0828 21.1609 93.0828 21.6947V27.0595C93.0828 27.5934 92.896 28.0471 92.5223 28.4208C92.1486 28.7944 91.6949 28.9813 91.1611 28.9813H68.0201L66.7389 42.0331C67.6998 41.3925 68.981 40.7786 70.5824 40.1914C72.1839 39.6042 74.3992 39.3106 77.2284 39.3106C79.7908 39.3106 82.2196 39.7377 84.515 40.5918C86.8638 41.3925 88.9457 42.5936 90.7607 44.1951C92.5757 45.7431 93.9903 47.6382 95.0045 49.8802C96.0722 52.0689 96.606 54.5778 96.606 57.407C96.606 61.3039 95.6985 64.6936 93.8835 67.5763C92.0686 70.4589 89.5329 72.7009 86.2766 74.3024C83.0204 75.9038 79.1769 76.7045 74.7462 76.7045ZM108.706 75.8237C107.585 75.8237 107.025 75.2899 107.025 74.2223C107.025 73.902 107.132 73.6084 107.345 73.3415L146.821 21.2943C147.195 20.8139 147.568 20.4402 147.942 20.1733C148.316 19.9064 148.849 19.7729 149.543 19.7729H153.787C154.908 19.7729 155.469 20.3068 155.469 21.3744C155.469 21.6947 155.362 21.9883 155.148 22.2552L115.673 74.3024C115.299 74.7828 114.925 75.1565 114.552 75.4234C114.231 75.6903 113.698 75.8237 112.95 75.8237H108.706ZM147.221 76.3042C143.645 76.3042 140.815 75.3166 138.734 73.3415C136.652 71.3664 135.504 68.7773 135.29 65.5744C135.237 64.1865 135.21 62.9854 135.21 61.9712C135.21 60.9569 135.237 59.7025 135.29 58.2078C135.504 55.0049 136.598 52.4159 138.573 50.4407C140.602 48.4656 143.485 47.478 147.221 47.478C151.011 47.478 153.894 48.4656 155.869 50.4407C157.898 52.4159 158.992 55.0049 159.152 58.2078C159.259 59.7025 159.312 60.9569 159.312 61.9712C159.312 62.9854 159.259 64.1865 159.152 65.5744C158.992 68.7773 157.844 71.3664 155.709 73.3415C153.627 75.3166 150.798 76.3042 147.221 76.3042ZM147.221 70.0585C148.396 70.0585 149.303 69.8183 149.944 69.3379C150.638 68.8574 151.145 68.2435 151.465 67.4962C151.785 66.7488 151.946 66.0015 151.946 65.2542C152.052 63.9196 152.106 62.7986 152.106 61.8911C152.106 60.9302 152.052 59.8359 151.946 58.6081C151.892 57.3803 151.518 56.2593 150.825 55.2451C150.131 54.1774 148.929 53.6436 147.221 53.6436C145.566 53.6436 144.392 54.1774 143.698 55.2451C143.004 56.2593 142.604 57.3803 142.497 58.6081C142.444 59.8359 142.417 60.9302 142.417 61.8911C142.417 62.7986 142.444 63.9196 142.497 65.2542C142.604 66.0015 142.791 66.7488 143.057 67.4962C143.378 68.2435 143.858 68.8574 144.499 69.3379C145.193 69.8183 146.1 70.0585 147.221 70.0585ZM115.272 47.9585C111.696 47.9585 108.866 47.0243 106.785 45.1559C104.703 43.2876 103.555 40.7519 103.341 37.549C103.288 36.1611 103.261 34.96 103.261 33.9458C103.261 32.8781 103.288 31.597 103.341 30.1023C103.555 26.8994 104.649 24.3104 106.624 22.3353C108.653 20.3601 111.536 19.3726 115.272 19.3726C119.062 19.3726 121.945 20.3601 123.92 22.3353C125.949 24.3104 127.043 26.8994 127.203 30.1023C127.31 31.597 127.363 32.8781 127.363 33.9458C127.363 34.96 127.31 36.1611 127.203 37.549C127.043 40.7519 125.895 43.2876 123.76 45.1559C121.678 47.0243 118.849 47.9585 115.272 47.9585ZM115.272 42.0331C116.447 42.0331 117.354 41.7929 117.995 41.3125C118.689 40.832 119.196 40.2181 119.516 39.4708C119.836 38.7234 119.997 37.9494 119.997 37.1487C120.103 35.8141 120.157 34.6931 120.157 33.7856C120.157 32.8248 120.103 31.7304 119.997 30.5027C119.943 29.2749 119.57 28.1539 118.876 27.1396C118.182 26.1254 116.981 25.6182 115.272 25.6182C113.617 25.6182 112.443 26.1254 111.749 27.1396C111.055 28.1539 110.681 29.2749 110.628 30.5027C110.575 31.7304 110.548 32.8248 110.548 33.7856C110.548 34.6931 110.575 35.8141 110.628 37.1487C110.681 37.9494 110.842 38.7234 111.109 39.4708C111.429 40.2181 111.909 40.832 112.55 41.3125C113.244 41.7929 114.151 42.0331 115.272 42.0331Z" fill="#003E5C"/>
<path d="M95.2176 117.884C98.4515 117.884 101.073 115.263 101.073 112.029C101.073 108.795 98.4515 106.173 95.2176 106.173C91.9837 106.173 89.3621 108.795 89.3621 112.029C89.3621 115.263 91.9837 117.884 95.2176 117.884Z" fill="#003E5C"/>
<path d="M110.434 112.554C109.122 112.068 107.666 112.736 107.178 114.046L103.9 122.872L81.7681 115.925L85.239 108.751C85.8482 107.492 85.3214 105.977 84.0618 105.368C82.8044 104.759 81.2879 105.286 80.6788 106.544L75.9299 116.358C75.609 117.021 75.5928 117.79 75.8844 118.467C76.1771 119.142 76.7483 119.658 77.4508 119.878L81.0701 121.014L72.3843 125.961L66.7966 127.604C66.7912 127.607 66.7857 127.608 66.7803 127.609L66.5983 127.663L58.6399 117.747C57.3273 116.11 54.9349 115.85 53.2993 117.162C51.6626 118.475 51.4013 120.866 52.714 122.503L62.2657 134.404C62.9985 135.317 64.0955 135.824 65.2293 135.824C65.5859 135.824 65.9469 135.774 66.3014 135.669L67.0916 135.436L73.618 140.66C74.3118 141.217 75.153 141.494 75.9919 141.494C76.8373 141.494 77.6818 141.213 78.3788 140.651L85.4038 134.982C85.4277 134.962 85.445 134.938 85.4677 134.918L96.925 125.994L104.676 128.427C104.929 128.506 105.184 128.544 105.436 128.544C106.468 128.544 107.432 127.909 107.81 126.893L111.926 115.812C112.414 114.499 111.746 113.04 110.434 112.554Z" fill="#003E5C"/>
<path d="M103.564 105.235C103.564 105.833 104.049 106.319 104.648 106.319C105.246 106.319 105.732 105.833 105.732 105.235V88.706C105.732 88.1077 105.246 87.6221 104.648 87.6221C104.049 87.6221 103.564 88.1077 103.564 88.706V105.235Z" fill="#003E5C"/>
<path d="M101.927 98.4614V81.9311C101.927 81.3328 101.441 80.8472 100.843 80.8472C100.245 80.8472 99.759 81.3328 99.759 81.9311V98.4613C99.759 99.0597 100.245 99.5451 100.843 99.5451C101.442 99.5453 101.927 99.0597 101.927 98.4614Z" fill="#003E5C"/>
<path d="M64.7329 101.296V117.825C64.7329 118.424 65.2185 118.909 65.8168 118.909C66.4151 118.909 66.9007 118.424 66.9007 117.825V101.296C66.9007 100.697 66.4151 100.212 65.8168 100.212C65.2184 100.212 64.7329 100.697 64.7329 101.296Z" fill="#003E5C"/>
<path d="M68.5376 94.5214V111.052C68.5376 111.65 69.0232 112.135 69.6215 112.135C70.2199 112.135 70.7054 111.65 70.7054 111.052V94.5214C70.7054 93.923 70.2198 93.4375 69.6215 93.4375C69.0232 93.4375 68.5376 93.9231 68.5376 94.5214Z" fill="#003E5C"/>
</svg>
