<svg width="1211" height="581" viewBox="0 0 1211 581" fill="none" xmlns="http://www.w3.org/2000/svg">
<path d="M816.861 33.8762C730.414 99.5157 607.123 82.6479 541.484 -3.799C475.844 -90.2459 492.712 -213.536 579.159 -279.176C665.606 -344.815 788.896 -327.947 854.536 -241.5C920.175 -155.054 903.307 -31.7632 816.861 33.8762ZM586.694 -269.252C505.728 -207.774 489.93 -92.3003 551.408 -11.3341C612.886 69.632 728.359 85.4304 809.325 23.9525C890.292 -37.5254 906.09 -152.999 844.612 -233.965C783.134 -314.931 667.66 -330.73 586.694 -269.252Z" fill="url(#paint0_angular_1309_5354)"/>
<path d="M502.486 -379.917C468.512 -354.12 439.951 -321.884 418.435 -285.05C396.919 -248.215 382.868 -207.503 377.086 -165.239C371.303 -122.974 373.902 -79.9841 384.734 -38.7239C395.566 2.53645 414.418 41.2592 440.215 75.2336L543.7 -3.34244C528.221 -23.7271 516.91 -46.9608 510.411 -71.7169C503.912 -96.4731 502.352 -122.267 505.822 -147.626C509.291 -172.985 517.722 -197.412 530.631 -219.512C543.541 -241.613 560.677 -260.955 581.062 -276.433L502.486 -379.917Z" fill="#FFD600"/>
<path d="M440.215 75.2336C466.012 109.208 498.248 137.769 535.083 159.285C571.917 180.801 612.629 194.851 654.894 200.634C697.159 206.416 740.148 203.817 781.409 192.985C822.669 182.154 861.392 163.301 895.366 137.504L816.79 34.02C796.406 49.4981 773.172 60.8096 748.416 67.3087C723.659 73.8078 697.866 75.3671 672.507 71.8977C647.148 68.4283 622.721 59.998 600.62 47.0883C578.519 34.1786 559.178 17.0422 543.7 -3.34244L440.215 75.2336Z" fill="#FFD600"/>
<path d="M895.366 137.504C929.341 111.707 957.901 79.4714 979.417 42.6367C1000.93 5.8021 1014.98 -34.9098 1020.77 -77.1745C1026.55 -119.439 1023.95 -162.429 1013.12 -203.689C1002.29 -244.949 983.434 -283.672 957.637 -317.647L854.153 -239.071C869.631 -218.686 880.942 -195.452 887.441 -170.696C893.94 -145.94 895.5 -120.146 892.03 -94.7873C888.561 -69.4285 880.131 -45.0013 867.221 -22.9005C854.311 -0.799754 837.175 18.5419 816.79 34.02L895.366 137.504Z" fill="#FFD600"/>
<path d="M899.673 142.108C753.546 253.062 545.141 224.549 434.186 78.4228C323.231 -67.7039 351.744 -276.109 497.871 -387.064C643.997 -498.018 852.403 -469.506 963.357 -323.379C1074.31 -177.252 1045.8 31.153 899.673 142.108ZM504.577 -378.232C363.328 -270.981 335.767 -69.5322 443.018 71.7169C550.269 212.966 751.718 240.527 892.967 133.276C1034.22 26.025 1061.78 -175.424 954.526 -316.673C847.275 -457.922 645.826 -485.483 504.577 -378.232Z" fill="url(#paint1_angular_1309_5354)"/>
<g filter="url(#filter0_bd_1309_5354)">
<path d="M573.708 233.534C651.39 261.435 736.085 263.048 814.773 238.125L759.879 64.816C719.169 77.7104 675.351 76.8759 635.161 62.4408L573.708 233.534Z" fill="#FFD600" fill-opacity="0.3" shape-rendering="crispEdges"/>
</g>
<path d="M701.378 111.661C697.774 111.584 694.505 112.146 691.57 113.348C688.637 114.487 686.133 116.236 684.059 118.595C681.986 120.89 680.376 123.734 679.228 127.124C678.081 130.451 677.463 134.233 677.372 138.468C677.253 144.031 678.003 148.885 679.622 153.031C681.304 157.177 683.828 160.394 687.194 162.679C690.624 164.966 694.93 166.165 700.114 166.276C703.085 166.34 705.903 166.147 708.569 165.698C711.235 165.249 713.84 164.672 716.385 163.968L716.227 171.364C713.678 172.258 711.04 172.897 708.312 173.282C705.648 173.667 702.451 173.82 698.721 173.74C691.831 173.593 686.109 172.048 681.555 169.104C677.001 166.161 673.611 162.041 671.384 156.744C669.221 151.448 668.215 145.261 668.366 138.181C668.476 133.06 669.271 128.397 670.753 124.192C672.297 119.987 674.462 116.366 677.246 113.326C680.094 110.288 683.558 107.991 687.639 106.434C691.722 104.814 696.386 104.06 701.633 104.172C705.11 104.246 708.453 104.666 711.662 105.43C714.871 106.195 717.726 107.236 720.227 108.554L716.66 115.688C714.594 114.695 712.273 113.791 709.698 112.977C707.185 112.165 704.412 111.726 701.378 111.661Z" fill="#F6F8F9"/>
<defs>
<filter id="filter0_bd_1309_5354" x="534.966" y="21.7615" width="318.549" height="270.751" filterUnits="userSpaceOnUse" color-interpolation-filters="sRGB">
<feFlood flood-opacity="0" result="BackgroundImageFix"/>
<feGaussianBlur in="BackgroundImage" stdDeviation="11.6227"/>
<feComposite in2="SourceAlpha" operator="in" result="effect1_backgroundBlur_1309_5354"/>
<feColorMatrix in="SourceAlpha" type="matrix" values="0 0 0 0 0 0 0 0 0 0 0 0 0 0 0 0 0 0 127 0" result="hardAlpha"/>
<feOffset dy="-1.93711"/>
<feGaussianBlur stdDeviation="19.3711"/>
<feComposite in2="hardAlpha" operator="out"/>
<feColorMatrix type="matrix" values="0 0 0 0 0 0 0 0 0 0 0 0 0 0 0 0 0 0 0.25 0"/>
<feBlend mode="normal" in2="effect1_backgroundBlur_1309_5354" result="effect2_dropShadow_1309_5354"/>
<feBlend mode="normal" in="SourceGraphic" in2="effect2_dropShadow_1309_5354" result="shape"/>
</filter>
<radialGradient id="paint0_angular_1309_5354" cx="0" cy="0" r="1" gradientUnits="userSpaceOnUse" gradientTransform="translate(700.639 -123.926) rotate(-164.828) scale(201.823 200.483)">
<stop offset="0.0146151" stop-color="#00ABBE"/>
<stop offset="0.241082" stop-color="#B0DF35"/>
<stop offset="0.473043" stop-color="#EF7D00"/>
<stop offset="0.838542" stop-color="#FFD600"/>
</radialGradient>
<radialGradient id="paint1_angular_1309_5354" cx="0" cy="0" r="1" gradientUnits="userSpaceOnUse" gradientTransform="translate(703.215 -124.636) rotate(-170.656) scale(378.874 376.357)">
<stop offset="0.0146151" stop-color="#00ABBE"/>
<stop offset="0.241082" stop-color="#B0DF35"/>
<stop offset="0.473043" stop-color="#EF7D00"/>
<stop offset="0.838542" stop-color="#FFD600"/>
</radialGradient>
</defs>
</svg>
